<?xml version="1.0" encoding="UTF-8" standalone="no"?>
<svg width="25px" height="32px" viewBox="0 0 25 32" version="1.1" xmlns="http://www.w3.org/2000/svg" xmlns:xlink="http://www.w3.org/1999/xlink" xmlns:sketch="http://www.bohemiancoding.com/sketch/ns">
    <!-- Generator: Sketch 3.1 (8751) - http://www.bohemiancoding.com/sketch -->
    <title>icon-clipboard</title>
    <desc>Created with Sketch.</desc>
    <defs>
        <rect id="path-1" x="6.54761905" y="0" width="13.0952381" height="6.98181818"></rect>
    </defs>
    <g id="design" stroke="none" stroke-width="1" fill="none" fill-rule="evenodd" sketch:type="MSPage">
        <g id="Desktop-HD" sketch:type="MSArtboardGroup" transform="translate(-484.000000, -1870.000000)">
            <g id="color-palette" sketch:type="MSLayerGroup" transform="translate(15.000000, 1726.000000)">
                <g id="palettes" transform="translate(41.000000, 105.000000)">
                    <g id="primary">
                        <g id="Group" transform="translate(360.000000, 0.000000)">
                            <g id="icon-clipboard" transform="translate(68.000000, 39.000000)">
                                <path d="M13.5966653,2.90909091 L22.9964051,2.90909091 C24.1102368,2.90909091 25,3.80431367 25,4.9086269 L25,30.000464 C25,31.0974669 24.10296,32 22.9964051,32 L2.00359486,32 C0.889763236,32 0,31.1047772 0,30.000464 L0,4.9086269 C0,3.81162401 0.897039974,2.90909091 2.00359486,2.90909091 L11.9985728,2.90909091 C11.9385408,3.05046144 11.9047619,3.2099868 11.9047619,3.37880372 C11.9047619,3.95954828 12.3045076,4.43033471 12.797619,4.43033471 C13.2907305,4.43033471 13.6904762,3.95954828 13.6904762,3.37880372 C13.6904762,3.2099868 13.6566973,3.05046144 13.5966653,2.90909091 Z M2,5 L2,30 L23,30 L23,5 L2,5 Z" id="Rectangle-14" fill="#1F3340" sketch:type="MSShapeGroup"></path>
                                <mask id="mask-2" sketch:name="Rectangle 195" fill="white">
                                    <use xlink:href="#path-1"></use>
                                </mask>
                                <g id="Rectangle-195"></g>
                                <path d="M13.6075752,2.9357157 C16.6767212,3.13905472 19.047619,4.482312 19.047619,6.10909091 C19.047619,7.8764022 16.2493989,9.30909091 12.797619,9.30909091 C9.34583919,9.30909091 6.54761905,7.8764022 6.54761905,6.10909091 C6.54761905,4.482312 8.91851689,3.13905472 11.9876629,2.9357157 C11.934464,3.07036945 11.9047619,3.2205015 11.9047619,3.37880372 C11.9047619,3.95954828 12.3045076,4.43033471 12.797619,4.43033471 C13.2907305,4.43033471 13.6904762,3.95954828 13.6904762,3.37880372 C13.6904762,3.2205015 13.6607741,3.07036945 13.6075752,2.9357157 Z" id="Oval-40-copy" fill="#1F3340" sketch:type="MSShapeGroup" mask="url(#mask-2)"></path>
                                <path d="M12.797619,6.4 C14.6056942,6.4 16.0714286,4.96731129 16.0714286,3.2 C16.0714286,1.43268871 14.6056942,0 12.797619,0 C10.9895439,0 9.52380952,1.43268871 9.52380952,3.2 C9.52380952,4.96731129 10.9895439,6.4 12.797619,6.4 Z M12.797619,4.43033471 C13.2907305,4.43033471 13.6904762,3.95954828 13.6904762,3.37880372 C13.6904762,2.79805916 13.2907305,2.32727273 12.797619,2.32727273 C12.3045076,2.32727273 11.9047619,2.79805916 11.9047619,3.37880372 C11.9047619,3.95954828 12.3045076,4.43033471 12.797619,4.43033471 Z" id="Oval-40" fill="#1F3340" sketch:type="MSShapeGroup"></path>
                                <rect id="Rectangle-26-copy-5" fill="#1F3340" sketch:type="MSShapeGroup" x="4" y="11.0545455" width="17" height="1"></rect>
                                <rect id="Rectangle-26-copy-6" fill="#1F3340" sketch:type="MSShapeGroup" x="4" y="14" width="17" height="1"></rect>
                                <rect id="Rectangle-26-copy-7" fill="#1F3340" sketch:type="MSShapeGroup" x="4" y="17.0363636" width="17" height="1"></rect>
                                <rect id="Rectangle-26-copy-8" fill="#1F3340" sketch:type="MSShapeGroup" x="4" y="20" width="17" height="1"></rect>
                                <rect id="Rectangle-26-copy-9" fill="#1F3340" sketch:type="MSShapeGroup" x="4" y="23" width="17" height="1"></rect>
                                <rect id="Rectangle-26-copy-10" fill="#1F3340" sketch:type="MSShapeGroup" x="4" y="26" width="17" height="1"></rect>
                            </g>
                        </g>
                    </g>
                </g>
            </g>
        </g>
    </g>
</svg>