<?xml version="1.0" encoding="UTF-8" standalone="no"?>
<svg width="32px" height="30px" viewBox="0 0 32 30" version="1.1" xmlns="http://www.w3.org/2000/svg" xmlns:xlink="http://www.w3.org/1999/xlink" xmlns:sketch="http://www.bohemiancoding.com/sketch/ns">
    <!-- Generator: Sketch 3.1 (8751) - http://www.bohemiancoding.com/sketch -->
    <title>icon-zip-folder</title>
    <desc>Created with Sketch.</desc>
    <defs></defs>
    <g id="design" stroke="none" stroke-width="1" fill="none" fill-rule="evenodd" sketch:type="MSPage">
        <g id="Desktop-HD" sketch:type="MSArtboardGroup" transform="translate(-250.000000, -826.000000)">
            <g id="logo-usage" sketch:type="MSLayerGroup" transform="translate(15.000000, 665.000000)">
                <g id="logo-box" transform="translate(43.000000, 83.000000)" sketch:type="MSShapeGroup">
                    <g id="hover">
                        <g id="Group" transform="translate(111.000000, 40.000000)">
                            <g id="icon-zip-folder-+-Download-Logo-as-.ZI-+-2-Color-Logo-for-Lig">
                                <g id="icon-zip-folder" transform="translate(81.000000, 38.000000)">
                                    <path d="M15.9950893,3 C14.8932319,3 14,2.09990108 14,0.998956561 L14,2.00104344 C14,0.895897664 13.1029399,0 11.9941413,0 L2.00585866,0 C0.898053512,0 0,0.89784041 0,1.99161703 L0,28.008383 C0,29.1083227 0.889261723,30 2.00174332,30 L29.9982567,30 C31.103789,30 32,29.1016617 32,27.9926701 L32,5.00732994 C32,3.89871223 31.1073772,3 30.0049107,3 L15.9950893,3 Z" id="Rectangle-14" stroke="#1F3340" stroke-width="2" stroke-linejoin="round"></path>
                                    <rect id="Rectangle-21" stroke="#1F3340" stroke-width="2" stroke-linejoin="round" x="0" y="8" width="32" height="22" rx="2"></rect>
                                    <rect id="Rectangle-397" fill="#1F3340" x="16" y="10" width="2" height="2"></rect>
                                    <rect id="Rectangle-398" fill="#1F3340" x="14" y="12" width="2" height="2"></rect>
                                    <rect id="Rectangle-399" fill="#1F3340" x="16" y="14" width="2" height="2"></rect>
                                    <rect id="Rectangle-400" fill="#1F3340" x="14" y="16" width="2" height="2"></rect>
                                    <rect id="Rectangle-401" fill="#1F3340" x="16" y="18" width="2" height="2"></rect>
                                    <rect id="Rectangle-402" fill="#1F3340" x="14" y="20" width="2" height="2"></rect>
                                    <rect id="Rectangle-403" fill="#1F3340" x="16" y="22" width="2" height="2"></rect>
                                    <rect id="Rectangle-404" fill="#1F3340" x="14" y="24" width="2" height="2"></rect>
                                    <rect id="Rectangle-405" fill="#1F3340" x="16" y="26" width="2" height="2"></rect>
                                </g>
                            </g>
                        </g>
                    </g>
                </g>
            </g>
        </g>
    </g>
</svg>