<?xml version="1.0" encoding="UTF-8" standalone="no"?>
<svg width="18px" height="18px" viewBox="0 0 18 18" version="1.1" xmlns="http://www.w3.org/2000/svg" xmlns:xlink="http://www.w3.org/1999/xlink" xmlns:sketch="http://www.bohemiancoding.com/sketch/ns">
    <!-- Generator: Sketch 3.1 (8751) - http://www.bohemiancoding.com/sketch -->
    <title>icon-arrow</title>
    <desc>Created with Sketch.</desc>
    <defs></defs>
    <g id="design" stroke="none" stroke-width="1" fill="none" fill-rule="evenodd" sketch:type="MSPage">
        <g id="Desktop-HD" sketch:type="MSArtboardGroup" transform="translate(-1390.000000, -2762.000000)" fill="#FFFFFF">
            <g id="fonts" sketch:type="MSLayerGroup" transform="translate(15.000000, 2752.000000)">
                <g id="brand-pdf-+-Rectangle-489" transform="translate(1369.000000, 10.000000)" sketch:type="MSShapeGroup">
                    <path d="M15.2290909,9 L12.5454545,11.5854545 L14.1,13.0909091 L18.2727273,9.06545455 L18.1990909,9 L18.2727273,8.93454545 L14.1,4.90909091 L12.5454545,6.41454545 L15.2290909,9 L15.2290909,9 L15.2290909,9 L15.2290909,9 Z M15,1.8 C18.9681818,1.8 22.2,5.03181818 22.2,9 C22.2,12.9681818 18.9681818,16.2 15,16.2 C11.0318182,16.2 7.8,12.9681818 7.8,9 C7.8,5.03181818 11.0318182,1.8 15,1.8 C15,1.8 11.0318182,1.8 15,1.8 L15,1.8 L15,1.8 Z M15,18 C19.9581818,18 24,13.9581818 24,9 C24,4.04181818 19.9581818,0 15,0 C10.0418182,0 6,4.04181818 6,9 C6,13.9581818 10.0418182,18 15,18 C15,18 10.0418182,18 15,18 L15,18 L15,18 Z" id="icon-arrow"></path>
                </g>
            </g>
        </g>
    </g>
</svg>