<?xml version="1.0" encoding="UTF-8" standalone="no"?>
<svg width="384px" height="384px" viewBox="0 0 384 384" version="1.1" xmlns="http://www.w3.org/2000/svg" xmlns:xlink="http://www.w3.org/1999/xlink" xmlns:sketch="http://www.bohemiancoding.com/sketch/ns">
    <!-- Generator: Sketch 3.1 (8751) - http://www.bohemiancoding.com/sketch -->
    <title>img-iconography1</title>
    <desc>Created with Sketch.</desc>
    <defs></defs>
    <g id="design" stroke="none" stroke-width="1" fill="none" fill-rule="evenodd" sketch:type="MSPage">
        <g id="Desktop-HD" sketch:type="MSArtboardGroup" transform="translate(-56.000000, -4739.000000)">
            <g id="symbology-2" sketch:type="MSLayerGroup" transform="translate(15.000000, 4658.000000)">
                <g id="img-iconography" transform="translate(41.000000, 80.000000)" sketch:type="MSShapeGroup">
                    <g id="img-iconography1" transform="translate(0.000000, 1.000000)">
                        <rect id="BG" fill="#F3F3F3" x="0" y="0" width="384" height="384"></rect>
                        <path d="M276.625,136.3125 C276.625,94.1662679 242.458732,60 200.3125,60 C158.166268,60 124,94.1662679 124,136.3125 C124,178.458732 158.166268,212.625 200.3125,212.625 C242.458732,212.625 276.625,178.458732 276.625,136.3125 Z M136,136.3125 C136,100.793685 164.793685,72 200.3125,72 C235.831315,72 264.625,100.793685 264.625,136.3125 C264.625,171.831315 235.831315,200.625 200.3125,200.625 C164.793685,200.625 136,171.831315 136,136.3125 Z" id="Oval-22-copy" opacity="1.1" fill="#5B7183"></path>
                        <path d="M256.625,136.3125 C256.625,94.1662679 222.458732,60 180.3125,60 C138.166268,60 104,94.1662679 104,136.3125 C104,178.458732 138.166268,212.625 180.3125,212.625 C222.458732,212.625 256.625,178.458732 256.625,136.3125 Z M116,136.3125 C116,100.793685 144.793685,72 180.3125,72 C215.831315,72 244.625,100.793685 244.625,136.3125 C244.625,171.831315 215.831315,200.625 180.3125,200.625 C144.793685,200.625 116,171.831315 116,136.3125 Z" id="Oval-22" fill="#8394A1"></path>
                        <path d="M64.9448775,136 L65.2977809,236.641881 L56,326.125 L323.75,326.125 L314.805122,237.493979 L314.805122,136 L64.9448775,136 Z" id="Rectangle-15" fill="#265B80"></path>
                        <path d="M65.2735585,236.875 L56,326.125 L323.75,326.125 L314.805122,237.493979 L314.805122,236.875 L65.2735585,236.875 Z" id="Rectangle-15" fill-opacity="0.150000006" fill="#000000"></path>
                        <path d="M170.70359,195.58493 C162.165499,195.58493 154.848797,198.576213 148.974498,204.407467 C143.11183,210.279459 140.139784,217.612175 140.139784,226.190288 C140.139784,232.155394 141.442599,237.561817 144.048229,242.182591 C146.659675,246.867382 150.387819,250.53374 155.127972,253.175845 C159.84486,255.794672 165.20734,257.150642 171.011846,257.150642 C175.955563,257.150642 180.532864,256.207865 184.633242,254.380505 C188.634745,252.547327 193.089907,249.201048 197.835876,244.527896 C198.318615,245.022564 208.258395,255.422217 208.79348,255.922704 C202.401544,262.120594 196.271334,266.479486 190.577335,268.894626 C184.790277,271.350504 178.101718,272.625 170.726855,272.625 C157.088011,272.625 145.758173,268.202092 137.086311,259.565783 C128.385368,250.906195 124,239.691796 124,226.143731 C124,217.38521 125.989119,209.51127 129.938277,202.70814 C133.904884,195.939927 139.651228,190.370555 147.014459,186.20953 C154.412587,182.083422 162.473755,180 170.965317,180 C178.200593,180 185.273017,181.542198 191.973208,184.603316 C198.574525,187.617877 204.303421,191.95931 209.125,197.482125 L197.847508,208.225135 C189.832869,199.856528 180.707348,195.58493 170.70359,195.58493 Z" id="Fill-25" fill="#FFFFFF"></path>
                        <path d="M220,180 L220,272.625 L260.5,272.625 L260.5,256.851686 L236.032334,256.851686 L236.032334,180 L220,180" id="Fill-34" fill="#FFFFFF"></path>
                    </g>
                </g>
            </g>
        </g>
    </g>
</svg>