<?xml version="1.0" encoding="UTF-8" standalone="no"?>
<svg width="388px" height="386px" viewBox="0 0 388 386" version="1.1" xmlns="http://www.w3.org/2000/svg" xmlns:xlink="http://www.w3.org/1999/xlink" xmlns:sketch="http://www.bohemiancoding.com/sketch/ns">
    <!-- Generator: Sketch 3.1 (8751) - http://www.bohemiancoding.com/sketch -->
    <title>img-iconography2</title>
    <desc>Created with Sketch.</desc>
    <defs>
        <rect id="path-1" x="0" y="0" width="96" height="96"></rect>
        <filter x="-50%" y="-50%" width="200%" height="200%" filterUnits="objectBoundingBox" id="filter-3">
            <feOffset dx="0" dy="2" in="SourceAlpha" result="shadowOffsetOuter1"></feOffset>
            <feGaussianBlur stdDeviation="0" in="shadowOffsetOuter1" result="shadowBlurOuter1"></feGaussianBlur>
            <feColorMatrix values="0 0 0 0 0.356862754   0 0 0 0 0.443137258   0 0 0 0 0.513725519  0 0 0 0.7 0" in="shadowBlurOuter1" type="matrix" result="shadowMatrixOuter1"></feColorMatrix>
            <feMerge>
                <feMergeNode in="shadowMatrixOuter1"></feMergeNode>
                <feMergeNode in="SourceGraphic"></feMergeNode>
            </feMerge>
        </filter>
        <filter x="-50%" y="-50%" width="200%" height="200%" filterUnits="objectBoundingBox" id="filter-4">
            <feOffset dx="0" dy="2" in="SourceAlpha" result="shadowOffsetOuter1"></feOffset>
            <feGaussianBlur stdDeviation="0" in="shadowOffsetOuter1" result="shadowBlurOuter1"></feGaussianBlur>
            <feColorMatrix values="0 0 0 0 0.498039216   0 0 0 0 0.152941182   0 0 0 0 0.145098045  0 0 0 0.7 0" in="shadowBlurOuter1" type="matrix" result="shadowMatrixOuter1"></feColorMatrix>
            <feMerge>
                <feMergeNode in="shadowMatrixOuter1"></feMergeNode>
                <feMergeNode in="SourceGraphic"></feMergeNode>
            </feMerge>
        </filter>
        <rect id="path-5" x="0" y="0" width="96" height="96"></rect>
        <rect id="path-7" x="0" y="0" width="96" height="96"></rect>
    </defs>
    <g id="design" stroke="none" stroke-width="1" fill="none" fill-rule="evenodd" sketch:type="MSPage">
        <g id="Desktop-HD" sketch:type="MSArtboardGroup" transform="translate(-470.000000, -4738.000000)">
            <g id="symbology-2" sketch:type="MSLayerGroup" transform="translate(15.000000, 4658.000000)">
                <g id="img-iconography" transform="translate(41.000000, 80.000000)">
                    <g id="img-iconography2" transform="translate(414.000000, 0.000000)">
                        <g id="Group" transform="translate(146.000000, 145.000000)" sketch:type="MSShapeGroup">
                            <rect id="BG" fill="#E0832E" x="0" y="0" width="96" height="96"></rect>
                            <rect id="Rectangle-97" fill="#1F3340" x="46" y="64" width="4" height="23" rx="1.99173626"></rect>
                            <rect id="Rectangle-97-copy" fill="#1F3340" transform="translate(41.000000, 75.500000) rotate(45.000000) translate(-41.000000, -75.500000) " x="39" y="64" width="4" height="23" rx="1.99173626"></rect>
                            <rect id="Rectangle-97-copy-2" fill="#1F3340" transform="translate(55.000000, 75.500000) rotate(-45.000000) translate(-55.000000, -75.500000) " x="53" y="64" width="4" height="23" rx="1.99173626"></rect>
                            <rect id="Rectangle-14" fill="#FFFFFF" x="14" y="18" width="68" height="50" rx="4.00125"></rect>
                            <rect id="Rectangle-84" fill="#1F3340" x="13" y="15" width="70" height="9" rx="1.5"></rect>
                            <rect id="Rectangle-9-copy" fill="#8394A1" transform="translate(47.500000, 45.000000) scale(-1, 1) rotate(45.000000) translate(-47.500000, -45.000000) " x="45" y="34" width="5" height="22"></rect>
                            <path d="M35.8974782,29.1010774 C36.2548657,29.0347 36.6233805,29 37,29 C40.3137087,29 43,31.6862913 43,35 C43,38.3137087 40.3137087,41 37,41 C33.6862913,41 31,38.3137087 31,35 C31,34.6233805 31.0347,34.2548657 31.1010774,33.8974782 C31.5084459,35.6744853 33.0994276,37 35,37 C37.2091391,37 39,35.2091391 39,33 C39,31.0994276 37.6744853,29.5084459 35.8974782,29.1010774 Z" id="Oval-87" fill="#8394A1"></path>
                            <path d="M58,62 C61.3137087,62 64,59.3137087 64,56 C64,52.6862913 61.3137087,50 58,50 C54.6862913,50 52,52.6862913 52,56 C52,59.3137087 54.6862913,62 58,62 Z M58,59.3333333 C59.8409493,59.3333333 61.3333333,57.8409493 61.3333333,56 C61.3333333,54.1590507 59.8409493,52.6666667 58,52.6666667 C56.1590507,52.6666667 54.6666667,54.1590507 54.6666667,56 C54.6666667,57.8409493 56.1590507,59.3333333 58,59.3333333 Z" id="Oval-86-copy-3" fill="#8394A1"></path>
                            <rect id="Rectangle-9-copy-2" fill="#8394A1" transform="translate(53.000000, 40.000000) scale(-1, 1) rotate(-45.000000) translate(-53.000000, -40.000000) " x="51" y="29" width="4" height="22"></rect>
                            <path d="M40.103367,40 C39.4326292,40 38.8565516,40.5402073 38.8158695,41.2198184 L37.7048296,59.7801816 C37.6645021,60.4538687 38.1783098,61 38.8465663,61 L45.1534337,61 C45.824325,61 46.3358525,60.4597927 46.2951704,59.7801816 L45.1841305,41.2198184 C45.143803,40.5461313 44.5589304,40 43.896633,40 L40.103367,40 Z" id="Rectangle-9" fill="#7F2725" transform="translate(42.000000, 50.500000) rotate(45.000000) translate(-42.000000, -50.500000) "></path>
                            <path d="M57.2236318,29.0379133 L56,35.9375 L58.1604746,38.0038063 L61.3986922,37.9398456 L63,35.9375 L62.2718586,29.0228942 L57.2236318,29.0379133 Z" id="Rectangle-20" fill="#8394A1" transform="translate(59.500000, 33.500000) rotate(-315.000000) translate(-59.500000, -33.500000) "></path>
                        </g>
                        <g id="BG-+-icon:-money" transform="translate(292.000000, 145.000000)" sketch:type="MSShapeGroup">
                            <rect id="BG" fill="#30AA83" x="0" y="0" width="96" height="96"></rect>
                            <path d="M78.9501263,54.5593427 C58.8398628,51.499705 46.4235659,68.18339 26.2691783,65.0118287 C24.6419534,64.7563026 22.839934,63.186885 22.2143402,61.6631532 C19.8686905,55.9437918 17.5223861,50.2245614 15.1763437,44.5054619 C15.1187335,44.4969531 15.0623018,44.4900151 15.0052153,44.48059 C13.3775976,44.2250638 12.5887314,45.1260815 13.2140634,46.650206 C16.19277,53.9121494 19.1721314,61.1738311 22.1504453,68.4353818 C22.7760391,69.9595063 24.5780585,71.5285311 26.2051524,71.7845809 C46.4168884,74.9649129 58.8460166,58.1755877 79.0573598,61.3565742 C80.6847156,61.6131476 81.4734509,60.7112135 80.8487736,59.1873508 C80.2155857,57.6447687 79.5829215,56.1021866 78.9501263,54.5593427 L78.9501263,54.5593427 Z M47.4921712,44.7468649 C48.1779289,44.6675555 49.6349349,44.5018578 49.9750645,45.3042592 C50.2832496,46.0295797 49.3859255,46.6395411 48.7541068,46.8745853 C47.7800638,47.2369178 46.7725053,47.4635723 45.6270883,47.4433844 C45.3826611,47.4389273 45.2166548,47.6197003 45.2561926,47.8614301 C45.3669507,48.5387717 45.4781016,49.2166377 45.5887288,49.8939793 C45.6285284,50.1357091 45.8582926,50.347026 46.1029816,50.3476815 C47.0802976,50.3505654 47.9634823,50.1378065 48.8325277,49.8724805 C49.0664813,49.8010365 49.3305465,49.9239989 49.4231068,50.150129 C49.56306,50.491356 49.6747345,50.7644163 49.814295,51.1053812 C49.9071171,51.3319045 50.1645054,51.436121 50.3885091,51.3381968 C50.8166167,51.1507383 51.2447243,50.9634108 51.6729628,50.7760833 C51.8968356,50.6778969 52.0035352,50.4149306 51.9105822,50.1884072 C51.7440523,49.7821596 51.6154891,49.4676749 51.4488282,49.0612961 C51.3560061,48.8346417 51.4473881,48.5428355 51.6403638,48.3926065 C53.0769464,47.2762448 53.9902426,45.483328 53.2196489,43.5375604 C52.4476151,41.5903508 50.4288324,41.1519862 48.5663678,41.2826828 C47.8772062,41.3311861 46.2177983,41.5296562 45.8183621,40.8195421 C45.619364,40.4646817 45.8192785,39.8548515 46.8976646,39.3782085 C47.6840996,39.030427 48.5649277,38.8437549 49.5013968,38.8222562 C49.7462167,38.8167504 49.9128776,38.6286364 49.8737326,38.3866444 C49.7712224,37.7486298 49.6692359,37.1111396 49.5665948,36.4733871 C49.5277116,36.2316573 49.2974238,36.030041 49.0531275,36.0428878 C48.2786062,36.0837879 47.5792328,36.2628567 46.8826088,36.4824323 C46.6494407,36.5562359 46.386292,36.4358954 46.2934699,36.2095031 C46.1800934,35.9325101 46.0858311,35.7027095 45.9728474,35.4259787 C45.8797634,35.1994553 45.6230298,35.0951078 45.3986333,35.1930319 C44.9706566,35.3802283 44.5426799,35.5675558 44.115096,35.7550144 C43.8908304,35.8534629 43.7841308,36.1164293 43.8769529,36.3432148 C44.0136332,36.6771008 44.1234748,36.9450486 44.2598932,37.2786725 C44.3529772,37.5053269 44.2646063,37.8017212 44.0754273,37.9568006 C42.7293103,39.0597911 41.8779391,40.7698591 42.6171121,42.6369727 C43.4011905,44.6172169 45.7250163,44.9530693 47.4921712,44.7468649 L47.4921712,44.7468649 Z M23.0877533,58.779732 C23.7133479,60.3037182 25.5155003,61.8723351 27.1425961,62.1284706 C47.3540936,65.3079792 59.7834981,48.5213569 79.9947337,51.7015199 C81.6222224,51.958048 82.4110896,51.0566659 81.7861496,49.5328105 C78.8074395,42.272542 75.8282056,35.0120118 72.8496264,27.7510889 C72.2244246,26.2281497 70.4221414,24.6588784 68.7947836,24.4028738 C48.5830243,21.2229726 36.1538816,38.0095949 15.942777,34.8289083 C14.3151574,34.5734273 13.5262902,35.4745476 14.151492,36.9981413 C17.1299402,44.2582789 20.109305,51.5192017 23.0877533,58.779732 L23.0877533,58.779732 Z M43.8377457,33.2980958 C48.9330688,31.0563102 55.4209318,33.9216883 57.6580627,39.3940895 C59.9584789,45.0220281 57.1412978,50.9765168 52.006274,53.2335151 C46.9106889,55.4742515 40.4238741,52.6104472 38.1862191,47.1379148 C35.8844926,41.5094516 38.703115,35.5565366 43.8377457,33.2980958 L43.8377457,33.2980958 Z" id="icon:-money" fill="#FFFFFF"></path>
                        </g>
                        <g id="Group-15" transform="translate(146.000000, 289.000000)" sketch:type="MSShapeGroup">
                            <rect id="BG" fill="#8394A1" x="0" y="0" width="96" height="96"></rect>
                            <rect id="Rectangle-53" fill="#FFFFFF" x="28" y="71" width="40.8500115" height="4.05"></rect>
                            <rect id="Rectangle-53-copy" fill="#5B7183" x="35" y="67" width="25.545324" height="4.05"></rect>
                            <rect id="Rectangle-52" stroke="#FFFFFF" stroke-width="4.5" fill="#265B80" x="17" y="21" width="61.21875" height="45.9" rx="5.625"></rect>
                            <circle id="Oval-37" stroke="#E0832E" stroke-width="2.8125" cx="48.046875" cy="43.046875" r="18.046875"></circle>
                            <circle id="Oval-37-copy" fill="#E0832E" cx="47.6875" cy="43.6875" r="4.6875"></circle>
                            <rect id="Rectangle-86" fill="#E0832E" x="47" y="18" width="2.8125" height="14.0625" rx="2.8125"></rect>
                            <rect id="Rectangle-86-copy" fill="#E0832E" x="47" y="55" width="2.8125" height="14.0625" rx="2.8125"></rect>
                            <rect id="Rectangle-86" fill="#E0832E" transform="translate(66.406250, 44.031250) rotate(-270.000000) translate(-66.406250, -44.031250) " x="65" y="37" width="2.8125" height="14.0625" rx="2.8125"></rect>
                            <rect id="Rectangle-86-copy" fill="#E0832E" transform="translate(30.406250, 44.031250) rotate(-270.000000) translate(-30.406250, -44.031250) " x="29" y="37" width="2.8125" height="14.0625" rx="2.8125"></rect>
                        </g>
                        <g id="Group" transform="translate(146.000000, 0.000000)">
                            <mask id="mask-2" sketch:name="BG" fill="white">
                                <use xlink:href="#path-1"></use>
                            </mask>
                            <use id="BG" fill="#E0DDCE" sketch:type="MSShapeGroup" xlink:href="#path-1"></use>
                            <path d="M47.3125,62 C28.3622286,62 13,67.8323479 13,75.0269144 C13,82.2214809 28.3622286,88.0538288 47.3125,88.0538288 C66.2627714,88.0538288 81.625,82.2214809 81.625,75.0269144 C81.625,67.8323479 66.2627714,62 47.3125,62 Z" id="Oval-32" fill-opacity="0.33" fill="#FFFFFF" sketch:type="MSShapeGroup" mask="url(#mask-2)"></path>
                            <path d="M47.3125,62 C28.3622286,62 13,67.8323479 13,75.0269144 C13,82.2214809 28.3622286,88.0538288 47.3125,88.0538288 C66.2627714,88.0538288 81.625,82.2214809 81.625,75.0269144 C81.625,67.8323479 66.2627714,62 47.3125,62 Z M47.3125,65.3813029 C33.2810149,65.3813029 21.90625,69.69979 21.90625,75.0269144 C21.90625,80.3540388 33.2810149,84.6725259 47.3125,84.6725259 C61.3439851,84.6725259 72.71875,80.3540388 72.71875,75.0269144 C72.71875,69.69979 61.3439851,65.3813029 47.3125,65.3813029 Z" id="Oval-32" fill="#8394A1" filter="url(#filter-3)" sketch:type="MSShapeGroup" mask="url(#mask-2)"></path>
                            <path d="M-12.627161,96.3635032 L-9.31259077,97.6218966 C-7.48201013,98.3168858 -4.51362852,98.3167248 -2.68399004,97.6220933 L27.1481208,86.2961813 C28.9784153,85.6013008 28.9775212,84.4743374 27.1476026,83.7795995 L23.8330324,82.5212061 C22.0024518,81.8262169 19.0340702,81.8263779 17.2044317,82.5210094 L-12.6276792,93.8469214 C-14.4579736,94.5418019 -14.4570796,95.6687653 -12.627161,96.3635032 Z" id="Rectangle-72" fill="#E0832E" filter="url(#filter-4)" sketch:type="MSShapeGroup" mask="url(#mask-2)"></path>
                            <path d="M47.78125,73.6875 C47.78125,73.6875 73.5625,46.0198419 73.5625,31.78125 C73.5625,17.5426581 62.0198419,6 47.78125,6 C33.5426581,6 22,17.5426581 22,31.78125 C22,46.0198419 47.78125,73.6875 47.78125,73.6875 Z" id="Oval-41" fill="#7F2725" sketch:type="MSShapeGroup" mask="url(#mask-2)"></path>
                            <path d="M60,43 L36,43 C36,42.9614286 35,41.8242857 35,41.8242857 C35,41.8242857 34,39.9342857 37.4872727,38.2371429 C39.1545455,37.4142857 41.6745455,35.2671429 45.3527273,34.5342857 C44.3854545,33.4285714 42.6854545,31.6414286 41.9472727,29.5714286 C41.5018182,28.35 41.5781818,27.3214286 41.5781818,25.8814286 C41.5781818,24.8014286 41.597168,21.4702148 41.597168,21.4702148 L41.6096191,18.0083008 C41.6096191,18.0083008 45.6647908,18 47.9618182,18 C50.38,18 53.4545455,17.8871429 54.2563636,21.1014286 C54.5236364,22.0657143 54.32,24.7628571 54.32,25.8814286 C54.32,27.3214286 54.3963636,28.35 53.9890909,29.5714286 C53.2509091,31.6414286 51.5127273,33.39 50.5836364,34.5342857 C54.3,35.2414286 56.7690909,37.3757143 58.4872727,38.2371429 C61.9605455,39.9342857 61,41.8242857 61,41.8242857 C61,41.8242857 60,42.9614286 60,43 Z" id="Shape" fill="#FFFFFF" sketch:type="MSShapeGroup" mask="url(#mask-2)"></path>
                        </g>
                        <g id="Group-10" transform="translate(0.000000, 1.000000)">
                            <mask id="mask-6" sketch:name="BG" fill="white">
                                <use xlink:href="#path-5"></use>
                            </mask>
                            <use id="BG" fill="#265B80" sketch:type="MSShapeGroup" xlink:href="#path-5"></use>
                            <path d="M86.2774658,40.2834069 L20.6387329,17 L-45,40.2834069 L20.6387329,63.5668138 L86.2774658,40.2834069 Z" id="Rectangle-137" fill="#A4CC44" sketch:type="MSShapeGroup" mask="url(#mask-6)"></path>
                            <path d="M20,126.329375 L85.625,103.079376 L85.625,40 L20,63.2499991 L20,126.329375 Z" id="Rectangle-137" fill="#67A14C" sketch:type="MSShapeGroup" mask="url(#mask-6)"></path>
                            <path d="M-45,114.141875 L20.625,90.8918757 L20.625,40 L-45,63.2499991 L-45,114.141875 Z" id="Rectangle-137-copy" fill="#67A14C" sketch:type="MSShapeGroup" mask="url(#mask-6)">
                                <g transform="translate(-12.187500, 77.070937) scale(-1, 1) translate(12.187500, -77.070937) "></g>
                            </path>
                            <path d="M-45,90.8918757 L-45,40 L20.625,63.2499991 L20.625,114.141875 L-45,90.8918757 Z" id="Rectangle-137-copy-2" opacity="0.5" fill="#A4CC44" sketch:type="MSShapeGroup" mask="url(#mask-6)"></path>
                            <path d="M31.0789357,65.4507671 L35.6711151,72.5899825 L37.4269483,75.8631168 L37.5349996,75.8251653 C37.4449564,74.9203426 37.3369062,73.9138085 37.2108458,72.8055327 C37.0847853,71.697257 37.021756,70.6208848 37.021756,69.5763838 L37.021756,63.3634354 L40.8035508,62.0351333 L40.8035508,79.6474916 L36.724615,81.0801603 L32.1324357,73.9139321 L30.4036153,70.6853355 L30.295564,70.723287 C30.3856072,71.664127 30.4936574,72.6706611 30.6197178,73.7429196 C30.7457783,74.8151781 30.8088076,75.873542 30.8088076,76.9180429 L30.8088076,83.1580042 L27,84.4957941 L27,66.8834358 L31.0789357,65.4507671 Z M49.0580888,76.7399684 C48.0766182,76.6614932 47.234727,76.3494132 46.5323902,75.8037191 C45.8300534,75.258025 45.2853003,74.4859142 44.8981146,73.4873637 C44.5109289,72.4888131 44.317339,71.2692106 44.317339,69.8285197 C44.317339,68.3878288 44.5109289,67.036737 44.8981146,65.7752037 C45.2853003,64.5136704 45.8300534,63.3768943 46.5323902,62.3648414 C47.234727,61.3527885 48.0766182,60.4718142 49.0580888,59.7218921 C50.0395595,58.9719701 51.1245636,58.3882836 52.3131336,57.9708151 C53.5017036,57.5533467 54.5867077,57.3748485 55.5681783,57.435315 C56.549649,57.4957816 57.3915401,57.7898532 58.093877,58.3175387 C58.7962138,58.8452242 59.3409669,59.6038287 59.7281525,60.5933749 C60.1153382,61.5829212 60.3089282,62.7890174 60.3089282,64.2116997 C60.3089282,65.6523906 60.1153382,67.0079845 59.7281525,68.2785221 C59.3409669,69.5490597 58.7962138,70.7038441 58.093877,71.74291 C57.3915401,72.7819759 56.549649,73.6854607 55.5681783,74.4533913 C54.5867077,75.221322 53.5017036,75.8140127 52.3131336,76.2314811 C51.1245636,76.6489496 50.0395595,76.8184436 49.0580888,76.7399684 Z M55.1764925,70.2419015 C55.8788293,68.959719 56.2299924,67.4272233 56.2299924,65.6443683 C56.2299924,63.8795219 55.8788293,62.625223 55.1764925,61.8814339 C54.4741556,61.1376448 53.5197122,60.9776495 52.3131336,61.4014432 C51.1245636,61.8189117 50.1746223,62.6477952 49.4632811,63.8881188 C48.75194,65.1284423 48.3962748,66.6310047 48.3962748,68.3958511 C48.3962748,69.2782743 48.4908187,70.0419373 48.6799094,70.686863 C48.869,71.3317887 49.1301214,71.8478558 49.4632811,72.23508 C49.7964409,72.6223041 50.2061312,72.8655861 50.6923644,72.9649331 C51.1785976,73.0642801 51.7188486,73.0095873 52.3131336,72.8008531 C53.5197122,72.3770593 54.4741556,71.524084 55.1764925,70.2419015 Z M65.2850647,54.0247985 L66.5006416,61.8367543 C66.626702,62.7109178 66.7482585,63.5911515 66.8653146,64.477482 C66.9823708,65.3638125 67.1039272,66.2530504 67.2299877,67.1452225 L67.338039,67.1072711 C67.5001167,66.1138945 67.6666941,65.1234535 67.8377761,64.1359186 C68.0088582,63.1483837 68.1844398,62.1637844 68.3645261,61.1820911 L70.2554235,52.2790301 L73.6320259,51.0930462 L75.5499361,58.6583172 C75.7300225,59.4954963 75.905604,60.3477503 76.0766861,61.2151049 C76.2477681,62.0824595 76.4233497,62.9617261 76.6034361,63.8529311 L76.7114874,63.8149796 C76.8195392,62.8225702 76.9320915,61.8466027 77.0491476,60.8870479 C77.1662037,59.9274932 77.2877602,58.9663715 77.4138207,58.0036541 L78.6293975,49.3377899 L82.4382051,48 L79.304718,66.7129514 L74.3073464,68.4682077 L72.578526,61.0796369 C72.4344569,60.445911 72.3038962,59.8029486 72.1868401,59.1507304 C72.0697839,58.4985122 71.9662358,57.8640704 71.8761927,57.2473858 L71.7681414,57.2853373 C71.6600896,57.9715999 71.5520394,58.6803627 71.4439875,59.4116468 C71.3359357,60.142931 71.2098772,60.8760273 71.0658081,61.6109577 L69.3910133,70.1950004 L64.4746801,71.921793 L61.206129,55.4574672 L65.2850647,54.0247985 Z" id="NOW" fill="#FFFFFF" sketch:type="MSShapeGroup" mask="url(#mask-6)"></path>
                        </g>
                        <g id="Group" transform="translate(0.000000, 289.000000)" sketch:type="MSShapeGroup">
                            <rect id="BG-copy" fill="#265B80" x="0" y="0" width="96" height="96"></rect>
                            <path d="M22.2517807,29.0191263 L18.0205577,75.0122689 C17.9274453,76.0261063 18.5991863,76.8479839 19.5225217,76.8479839 L70.8774251,76.8479839 C71.8000493,76.8479839 72.62492,76.0266 72.7199287,75.0122689 L77.7909382,20.8732149 C77.8859006,19.8593776 77.2142183,19.0375 76.289102,19.0375 L32.2413954,19.0375 L22.2517807,29.0191263 Z" id="Path-copy" fill="#FFFFFF"></path>
                            <path d="M62.3272291,19.0281394 L61.2312045,31.2325749 L61.2312045,31.2325749 L37.4313971,31.2325749 L36.5404699,41.5099942 L48.2482196,41.5099942 L47.0945095,54.3567684 L35.1370871,54.3567684 L35.1280937,54.4605132 L35.1280937,54.4605132 L35.069103,54.4552166 L35.0280642,54.9121913 L33.0589515,76.8386233 L33.980368,76.8386233 L35.0763926,64.6341878 L58.8437614,64.6341878 L59.8506588,54.3567684 L48.015926,54.3567684 L48.015926,54.3567684 L49.1696361,41.5099942 L61.1380713,41.5099942 L61.1395244,41.4951625 L61.2302532,41.5033087 L61.2712921,41.046334 L63.2486456,19.0281394 L62.3272291,19.0281394 Z" id="Rectangle-65-copy" fill="#8394A1"></path>
                            <path d="M21.6238411,28.59375 L29.5733068,28.59375 C30.6891668,28.59375 31.59375,27.6807176 31.59375,26.5733068 L31.59375,18.583927 L21.6286925,28.5410157 L21.6238411,28.59375 Z" id="Rectangle" fill="#8394A1"></path>
                        </g>
                        <g id="Group" transform="translate(292.000000, 1.000000)">
                            <mask id="mask-8" sketch:name="BG copy" fill="white">
                                <use xlink:href="#path-7"></use>
                            </mask>
                            <use id="BG-copy" fill="#1F3340" sketch:type="MSShapeGroup" xlink:href="#path-7"></use>
                            <path d="M-1.78125,56.0743662 L5.62517985,50.5629044 L14.9204712,49.0722046 L24.4613647,55.3307495 L33.8895665,60.0755038 L43.2954102,52.34375 L52.1829834,51.5368042 L61.7868652,29.6410522 L71.0551977,26.8268783 L80.9303589,19.9556885 L90.4528927,20.3522262 L98.21875,23.9994495 L98.21875,99.65625 L-1.78125,99.65625 L-1.78125,56.0743662 Z" id="Path-117-copy" stroke-opacity="0.5" stroke="#FFFFFF" stroke-width="1.875" fill="#265B80" sketch:type="MSShapeGroup" mask="url(#mask-8)"></path>
                            <path d="M-2.125,64.443476 L5.41322299,58.6544539 L14.3800659,54.0908813 L24.307312,69.6896362 L33.5341276,65.5447852 L42.8110352,65.2282715 L52.3157131,57.1344928 L61.4921875,47.0365601 L70.9195557,47.515564 L80.6242167,41.6896775 L89.6918306,31.159807 L97.875,28.7561532 L97.875,99.59375 L-2.125,99.59375 L-2.125,64.443476 Z" id="Path-116-copy" stroke-opacity="0.5" stroke="#FFFFFF" stroke-width="1.875" fill="#8394A1" sketch:type="MSShapeGroup" mask="url(#mask-8)"></path>
                            <path d="M-2.03125,67.6354735 L5.41558838,64.9540405 L14.9205933,71.5844727 L23.6931763,82.7685547 L33.2966627,81.4241983 L42.5805054,81.9683838 L52.1105236,76.2477555 L61.4788208,76.2014771 L71.1293945,62.4703979 L80.3597412,57.986145 L89.6636915,42.6088642 L96.3887939,37.9544067 L97.96875,40.3625143 L97.96875,99.75 L-2.03125,99.75 L-2.03125,67.6354735 Z" id="Path-115-copy" stroke-opacity="0.65" stroke="#FFFFFF" stroke-width="1.875" fill="#5B7183" sketch:type="MSShapeGroup" mask="url(#mask-8)"></path>
                            <path d="M5.9375,-2.953125 L5.9375,99.277977" id="Line-copy" stroke="#FFFFFF" stroke-width="1.875" stroke-linecap="square" opacity="0.05" sketch:type="MSShapeGroup" mask="url(#mask-8)"></path>
                            <path d="M14.9375,-2.953125 L14.9375,99.277977" id="Line-copy-2" stroke="#FFFFFF" stroke-width="1.875" stroke-linecap="square" opacity="0.05" sketch:type="MSShapeGroup" mask="url(#mask-8)"></path>
                            <path d="M24.9375,-2.953125 L24.9375,99.277977" id="Line-copy-3" stroke="#FFFFFF" stroke-width="1.875" stroke-linecap="square" opacity="0.05" sketch:type="MSShapeGroup" mask="url(#mask-8)"></path>
                            <path d="M33.9375,-2.953125 L33.9375,99.277977" id="Line-copy-4" stroke="#FFFFFF" stroke-width="1.875" stroke-linecap="square" opacity="0.05" sketch:type="MSShapeGroup" mask="url(#mask-8)"></path>
                            <path d="M42.9375,-2.953125 L42.9375,99.277977" id="Line-copy-5" stroke="#FFFFFF" stroke-width="1.875" stroke-linecap="square" opacity="0.05" sketch:type="MSShapeGroup" mask="url(#mask-8)"></path>
                            <path d="M52.9375,-2.953125 L52.9375,99.277977" id="Line-copy-6" stroke="#FFFFFF" stroke-width="1.875" stroke-linecap="square" opacity="0.05" sketch:type="MSShapeGroup" mask="url(#mask-8)"></path>
                            <path d="M61.9375,-2.953125 L61.9375,99.277977" id="Line-copy-7" stroke="#FFFFFF" stroke-width="1.875" stroke-linecap="square" opacity="0.05" sketch:type="MSShapeGroup" mask="url(#mask-8)"></path>
                            <path d="M71.9375,-2.953125 L71.9375,99.277977" id="Line-copy-8" stroke="#FFFFFF" stroke-width="1.875" stroke-linecap="square" opacity="0.05" sketch:type="MSShapeGroup" mask="url(#mask-8)"></path>
                            <path d="M80.9375,-2.953125 L80.9375,99.277977" id="Line-copy-9" stroke="#FFFFFF" stroke-width="1.875" stroke-linecap="square" opacity="0.05" sketch:type="MSShapeGroup" mask="url(#mask-8)"></path>
                            <path d="M89.9375,-2.953125 L89.9375,99.277977" id="Line-copy-10" stroke="#FFFFFF" stroke-width="1.875" stroke-linecap="square" opacity="0.05" sketch:type="MSShapeGroup" mask="url(#mask-8)"></path>
                            <path d="M47.9375,40.046875 L47.9375,142.277977" id="Line-copy" stroke="#FFFFFF" stroke-width="1.875" stroke-linecap="square" opacity="0.05" sketch:type="MSShapeGroup" mask="url(#mask-8)">
                                <g transform="translate(47.937500, 91.140625) rotate(-90.000000) translate(-47.937500, -91.140625) "></g>
                            </path>
                            <path d="M47.9375,30.046875 L47.9375,132.277977" id="Line-copy-2" stroke="#FFFFFF" stroke-width="1.875" stroke-linecap="square" opacity="0.05" sketch:type="MSShapeGroup" mask="url(#mask-8)">
                                <g transform="translate(47.937500, 81.140625) rotate(-90.000000) translate(-47.937500, -81.140625) "></g>
                            </path>
                            <path d="M47.9375,21.046875 L47.9375,123.277977" id="Line-copy-3" stroke="#FFFFFF" stroke-width="1.875" stroke-linecap="square" opacity="0.05" sketch:type="MSShapeGroup" mask="url(#mask-8)">
                                <g transform="translate(47.937500, 72.140625) rotate(-90.000000) translate(-47.937500, -72.140625) "></g>
                            </path>
                            <path d="M47.9375,12.046875 L47.9375,114.277977" id="Line-copy-4" stroke="#FFFFFF" stroke-width="1.875" stroke-linecap="square" opacity="0.05" sketch:type="MSShapeGroup" mask="url(#mask-8)">
                                <g transform="translate(47.937500, 63.140625) rotate(-90.000000) translate(-47.937500, -63.140625) "></g>
                            </path>
                            <path d="M47.9375,2.046875 L47.9375,104.277977" id="Line-copy-5" stroke="#FFFFFF" stroke-width="1.875" stroke-linecap="square" opacity="0.05" sketch:type="MSShapeGroup" mask="url(#mask-8)">
                                <g transform="translate(47.937500, 53.140625) rotate(-90.000000) translate(-47.937500, -53.140625) "></g>
                            </path>
                            <path d="M47.9375,-6.953125 L47.9375,95.277977" id="Line-copy-6" stroke="#FFFFFF" stroke-width="1.875" stroke-linecap="square" opacity="0.05" sketch:type="MSShapeGroup" mask="url(#mask-8)">
                                <g transform="translate(47.937500, 44.140625) rotate(-90.000000) translate(-47.937500, -44.140625) "></g>
                            </path>
                            <path d="M47.9375,-16.953125 L47.9375,85.277977" id="Line-copy-7" stroke="#FFFFFF" stroke-width="1.875" stroke-linecap="square" opacity="0.05" sketch:type="MSShapeGroup" mask="url(#mask-8)">
                                <g transform="translate(47.937500, 34.140625) rotate(-90.000000) translate(-47.937500, -34.140625) "></g>
                            </path>
                            <path d="M47.9375,-25.953125 L47.9375,76.277977" id="Line-copy-8" stroke="#FFFFFF" stroke-width="1.875" stroke-linecap="square" opacity="0.05" sketch:type="MSShapeGroup" mask="url(#mask-8)">
                                <g transform="translate(47.937500, 25.140625) rotate(-90.000000) translate(-47.937500, -25.140625) "></g>
                            </path>
                            <path d="M47.9375,-34.953125 L47.9375,67.277977" id="Line-copy-9" stroke="#FFFFFF" stroke-width="1.875" stroke-linecap="square" opacity="0.05" sketch:type="MSShapeGroup" mask="url(#mask-8)">
                                <g transform="translate(47.937500, 16.140625) rotate(-90.000000) translate(-47.937500, -16.140625) "></g>
                            </path>
                            <path d="M47.9375,-44.953125 L47.9375,57.277977" id="Line-copy-10" stroke="#FFFFFF" stroke-width="1.875" stroke-linecap="square" opacity="0.05" sketch:type="MSShapeGroup" mask="url(#mask-8)">
                                <g transform="translate(47.937500, 6.140625) rotate(-90.000000) translate(-47.937500, -6.140625) "></g>
                            </path>
                        </g>
                        <g id="Group" transform="translate(292.000000, 290.000000)" sketch:type="MSShapeGroup">
                            <rect id="BG" fill="#F1C44F" x="0" y="0" width="96" height="96"></rect>
                            <path d="M61.28125,42.0789992 C61.28125,43.1880424 60.3769218,44.09375 59.2666115,44.09375 L45.0146385,44.09375 C43.9076505,44.09375 43,43.1880424 43,42.0789992 L43,25.0140863 C43,23.9070366 43.9076505,23 45.0146385,23 L59.2666115,23 C60.3769218,23 61.28125,23.9070366 61.28125,25.0140863 L61.28125,42.0789992" id="Fill-1" fill="#265B80"></path>
                            <path d="M59.875,71.2657272 C59.875,72.372836 58.9668419,73.28125 57.8580518,73.28125 L45.0156195,73.28125 C43.9055008,73.28125 43,72.372836 43,71.2657272 L43,57.0122001 C43,55.9044268 43.9055008,55 45.0156195,55 L57.8580518,55 C58.9668419,55 59.875,55.9044268 59.875,57.0122001 L59.875,71.2657272" id="Fill-2" fill="#265B80"></path>
                            <path d="M79.59375,63.9546919 C79.59375,65.0643841 78.6829117,65.96875 77.5698873,65.96875 L71.0258645,65.96875 C69.9115056,65.96875 69,65.0643841 69,63.9546919 L69,30.0140581 C69,28.9056949 69.9115056,28 71.0258645,28 L77.5698873,28 C78.6829117,28 79.59375,28.9056949 79.59375,30.0140581 L79.59375,63.9546919" id="Fill-3" fill="#265B80"></path>
                            <path d="M32.125,64.5485259 C32.125,65.6581718 31.2207758,66.5625 30.1158337,66.5625 L18.0104911,66.5625 C16.9055491,66.5625 16,65.6581718 16,64.5485259 L16,32.0146385 C16,30.9076505 16.9055491,30 18.0104911,30 L30.1158337,30 C31.2207758,30 32.125,30.9076505 32.125,32.0146385 L32.125,64.5485259" id="Fill-4" fill="#265B80"></path>
                        </g>
                        <g id="Background-+-Rectangle-1" transform="translate(0.000000, 145.000000)" sketch:type="MSShapeGroup">
                            <rect id="Background" fill="#3BAECC" x="0" y="0" width="96" height="96"></rect>
                            <path d="M14,41.2539896 L14,24 L82,24 L82,71 L14,71 L14,63.0734127 L18.9224018,63.0734127 L18.9224018,53.3669782 C18.9224018,51.2679178 19.105777,49.7304125 19.4725329,48.7544163 C19.8392888,47.7784201 20.3927484,47.0196946 21.1329285,46.4782173 C21.8731085,45.9367399 22.6966298,45.6660053 23.6035171,45.6660053 C24.4170483,45.6660053 25.11054,45.8799191 25.6840128,46.307753 C26.2574856,46.735587 26.6875838,47.3873555 26.9743202,48.2630782 C27.2610566,49.1388008 27.4044227,50.5526372 27.4044227,52.5046296 L27.4044227,63.0734127 L32.9057334,63.0734127 L32.9057334,53.2265958 C32.9057334,51.1409053 33.0857745,49.6267968 33.4458621,48.6842251 C33.8059497,47.7416534 34.3560752,47.0029824 35.0962553,46.46819 C35.8364353,45.9333975 36.673293,45.6660053 37.6068534,45.6660053 C38.8338186,45.6660053 39.7540286,46.10386 40.3675112,46.9795827 C40.9809937,47.8553053 41.2877304,49.5298491 41.2877304,52.0032642 L41.2877304,63.0734127 L46.7890411,63.0734127 L46.7890411,50.2785672 C46.7890411,47.6580841 46.5323158,45.7662842 46.0188576,44.6031106 C45.5053994,43.439937 44.6618735,42.4973794 43.4882547,41.7754096 C42.3146359,41.0534398 40.9543254,40.6924603 39.4072824,40.6924603 C37.9135857,40.6924603 36.5366047,41.0267006 35.2762982,41.6951912 C34.0159916,42.3636817 32.9524155,43.3396633 32.085538,44.6231652 C31.4187091,43.3396633 30.5385082,42.3636817 29.4449088,41.6951912 C28.3513095,41.0267006 27.1243628,40.6924603 25.7640319,40.6924603 C24.4170375,40.6924603 23.1734203,40.9464829 22.033143,41.4545358 C20.8928656,41.9625886 19.8559622,42.7313412 18.9224018,43.7608167 L18.9224018,41.2539896 L14,41.2539896 L14,41.2539896 Z M49.490411,41.2519841 L55.0755775,41.2519841 L60.7408181,54.9248609 L66.9865958,41.2519841 L72.5917808,41.2519841 L58.9391515,71 L53.2939294,71 L57.7780774,61.4109693 L49.490411,41.2519841 Z" id="Rectangle-1" fill="#FFFFFF"></path>
                        </g>
                    </g>
                </g>
            </g>
        </g>
    </g>
</svg>