<?xml version="1.0" encoding="UTF-8" standalone="no"?>
<svg width="233px" height="59px" viewBox="0 0 233 59" version="1.1" xmlns="http://www.w3.org/2000/svg" xmlns:xlink="http://www.w3.org/1999/xlink" xmlns:sketch="http://www.bohemiancoding.com/sketch/ns">
    <!-- Generator: Sketch 3.1 (8751) - http://www.bohemiancoding.com/sketch -->
    <title>logo-two-color</title>
    <desc>Created with Sketch.</desc>
    <defs></defs>
    <g id="design" stroke="none" stroke-width="1" fill="none" fill-rule="evenodd" sketch:type="MSPage">
        <g id="Desktop-HD" sketch:type="MSArtboardGroup" transform="translate(-150.000000, -800.000000)">
            <g id="logo-usage" sketch:type="MSLayerGroup" transform="translate(15.000000, 665.000000)">
                <g id="logo-box" transform="translate(43.000000, 83.000000)" sketch:type="MSShapeGroup">
                    <g id="logo-two-color" transform="translate(92.888889, 52.312500)">
                        <path d="M23.7804323,37.4105068 C21.199464,34.7194764 18.2601152,33.3480405 15.0378344,33.3480405 C12.2886787,33.3480405 9.93405593,34.3094595 8.0415554,36.1851689 C6.15377041,38.0750169 5.19808908,40.4298649 5.19808908,43.1900169 C5.19808908,45.1081419 5.6177715,46.84875 6.45556451,48.3332939 C7.29650121,49.8398311 8.49739025,51.0196115 10.0236511,51.8694932 C11.5420526,52.7099493 13.2695095,53.1466723 15.1368605,53.1466723 C16.7291388,53.1466723 18.2035288,52.8450507 19.523878,52.2559459 C20.8127903,51.6684122 22.249456,50.5923142 23.7757168,49.0889189 C23.9329012,49.2491554 27.1331762,52.5921284 27.3045072,52.7523649 C25.2453912,54.7490372 23.2727266,56.14875 21.4383843,56.9247973 C19.5757488,57.7149831 17.4207503,58.125 15.0456936,58.125 C10.6555325,58.125 7.00728186,56.701723 4.21411455,53.9242905 C1.41151618,51.1390034 0,47.5321115 0,43.1743074 C0,40.3591723 0.641312472,37.8252365 1.91136266,35.6384797 C3.18927207,33.4595777 5.04090465,31.6686993 7.409674,30.3318243 C9.79258995,29.0028041 12.3892767,28.3335811 15.1242858,28.3335811 C17.453759,28.3335811 19.7313614,28.83 21.8879318,29.8134122 C24.0130653,30.7842568 25.8584105,32.1808277 27.4113926,33.9575676 L23.7804323,37.4105068" id="Fill-1" fill="#265B80"></path>
                        <path d="M31.9681692,38.7866554 C29.5821096,40.9686993 28.3717895,43.7162838 28.3717895,46.9681419 C28.3717895,50.0000676 29.4406436,52.6188345 31.5532023,54.7411824 C33.6689048,56.8541047 36.2467294,57.9459122 39.2269462,57.9459122 C41.2609127,57.9459122 43.1392666,57.4510642 44.8258556,56.4849324 C46.5124445,55.5266554 47.859515,54.1677872 48.8356303,52.4664527 C49.8070301,50.7478378 50.2990174,48.8925507 50.2990174,46.9304392 C50.2990174,44.9824662 49.8148893,43.1350338 48.8434896,41.4525507 C47.8736616,39.7637838 46.5124445,38.4111993 44.7771284,37.4325 C43.044956,36.4490878 41.1760331,35.9605236 39.2127996,35.9605236 C36.493509,35.9605236 34.0540066,36.9140878 31.9681692,38.7866554 M35.0678462,51.5097466 L35.0678462,51.5097466 C33.9738426,50.3409628 33.4126941,48.8155743 33.4126941,46.9524324 C33.4126941,45.1364189 33.9817018,43.6267399 35.089852,42.4626689 C36.2058615,41.2876014 37.6220932,40.6969257 39.2976792,40.6969257 C41.0047021,40.6969257 42.4382241,41.2813176 43.5385151,42.4391047 C44.6403779,43.5906081 45.1936671,45.1097128 45.1936671,46.9524324 C45.1936671,48.7857264 44.6309469,50.3111149 43.499219,51.4877534 C42.3894969,52.6675338 40.9669778,53.2550676 39.2756734,53.2550676 C37.5890844,53.2550676 36.1744246,52.6675338 35.0678462,51.5097466" id="Fill-4" fill="#265B80"></path>
                        <path d="M53.4489933,28.8519932 L58.5119038,28.8519932 L58.5119038,57.4055068 L53.4489933,57.4055068 L53.4489933,28.8519932 Z" id="Fill-5" fill="#265B80"></path>
                        <path d="M65.2692624,38.7866554 C62.881631,40.9686993 61.6760264,43.7162838 61.6760264,46.9681419 C61.6760264,50.0000676 62.7464523,52.6188345 64.8558674,54.7411824 C66.969998,56.8541047 69.5493944,57.9459122 72.5358986,57.9459122 C74.5651496,57.9459122 76.4435035,57.4510642 78.1316643,56.4849324 C79.8088221,55.5266554 81.1606082,54.1677872 82.1351517,52.4664527 C83.1096952,50.7478378 83.6032543,48.8925507 83.6032543,46.9304392 C83.6032543,44.9824662 83.1144107,43.1350338 82.1461546,41.4525507 C81.173183,39.7637838 79.8088221,38.4111993 78.0829371,37.4325 C76.347621,36.4490878 74.4786981,35.9605236 72.5154646,35.9605236 C69.8040332,35.9605236 67.362959,36.9140878 65.2692624,38.7866554 M68.3783704,51.5097466 L68.3783704,51.5097466 C67.2717921,50.3409628 66.716931,48.8155743 66.716931,46.9524324 C66.716931,45.1364189 67.2796513,43.6267399 68.3956607,42.4626689 C69.513242,41.2876014 70.92633,40.6969257 72.5987724,40.6969257 C74.3120827,40.6969257 75.7377454,41.2813176 76.8396083,42.4391047 C77.9383274,43.5906081 78.4994759,45.1097128 78.4994759,46.9524324 C78.4994759,48.7857264 77.9336119,50.3111149 76.8097432,51.4877534 C75.6921619,52.6675338 74.2649273,53.2550676 72.5783384,53.2550676 C70.8901776,53.2550676 69.4770896,52.6675338 68.3783704,51.5097466" id="Fill-6" fill="#265B80"></path>
                        <path d="M95.6341505,36.5480574 L95.6341505,36.5480574 C94.6737536,36.9266554 93.5876092,37.635152 92.3930076,38.6342736 L92.1902396,38.8102196 L92.1902396,36.4993581 L87.1226136,36.4993581 L87.1226136,57.4055068 L92.1902396,57.4055068 L92.1902396,49.0386486 C92.1902396,46.8047635 92.2704037,45.395625 92.42916,44.7154054 C92.7309541,43.4288007 93.2810996,42.4045439 94.0623062,41.675625 C94.8560876,40.9419932 95.8180563,40.5728209 96.9230628,40.5728209 C97.7718587,40.5728209 98.4980508,40.7958953 99.0859206,41.238902 C99.6596437,41.6960473 100.076182,42.3542736 100.310387,43.2025845 C100.54302,44.0524662 100.654621,45.7019595 100.654621,48.2688851 L100.654621,57.4055068 L105.645227,57.4055068 L105.645227,43.5466216 C105.645227,41.1587838 105.041639,39.320777 103.843893,38.1174324 C102.408799,36.6753041 100.648334,35.9589527 98.5955051,35.9589527 C97.5863811,35.9589527 96.5961192,36.1553209 95.6341505,36.5480574" id="Fill-7" fill="#265B80"></path>
                        <path d="M110.450355,36.4993581 L115.516409,36.4993581 L115.516409,57.4055068 L110.450355,57.4055068 L110.450355,36.4993581 Z" id="Fill-8" fill="#265B80"></path>
                        <path d="M122.459245,39.0348649 L122.459245,39.0348649 C120.562029,41.094375 119.60006,43.7649831 119.60006,46.994848 C119.60006,50.0848986 120.595038,52.7115203 122.544125,54.7945946 C124.518361,56.8823818 126.865125,57.9459122 129.549835,57.9459122 C130.736577,57.9459122 131.862018,57.7322635 132.88686,57.2955405 C133.906987,56.8776689 134.938117,56.1660304 135.967675,55.1998986 L136.170443,54.9925338 L136.170443,57.4055068 L141.238069,57.4055068 L141.238069,36.4993581 L136.170443,36.4993581 L136.170443,39.0160135 L135.961388,38.7882264 C135.027712,37.8535135 134.00287,37.1371622 132.908866,36.6627365 C131.818006,36.1914527 130.640695,35.9589527 129.39265,35.9589527 C126.679647,35.9589527 124.351746,36.997348 122.459245,39.0348649 M124.640965,46.9304392 C124.640965,45.0971453 125.194254,43.5686149 126.302404,42.3904054 C127.399552,41.2059122 128.804781,40.6199493 130.470936,40.6199493 C132.174815,40.6199493 133.603621,41.1902027 134.718059,42.3636993 C135.837212,43.5183446 136.392073,45.046875 136.392073,46.9100169 C136.392073,48.8155743 135.837212,50.3755236 134.718059,51.5521622 C133.603621,52.7335135 132.184246,53.3273311 130.492941,53.3273311 C128.84722,53.3273311 127.443563,52.7162331 126.32441,51.5207432 C125.206829,50.3268243 124.640965,48.7810135 124.640965,46.9304392" id="Fill-9" fill="#265B80"></path>
                        <path d="M146.304123,28.335152 L151.367034,28.335152 L151.367034,57.4055068 L146.304123,57.4055068 L146.304123,28.335152 Z" id="Fill-10" fill="#265B80"></path>
                        <path d="M165.27314,28.3194426 L165.27314,57.4055068 L178.394896,57.4055068 L178.394896,52.4523142 L170.471229,52.4523142 L170.471229,28.3194426 L165.27314,28.3194426" id="Fill-11" fill="#265B80"></path>
                        <path d="M195.966544,28.7813007 C195.166475,29.4379561 194.682347,30.3443919 194.547168,31.4707601 C194.478007,31.9703209 194.426136,33.6198142 194.413561,36.3689696 L194.413561,36.5009291 L192.522633,36.5009291 L192.522633,40.7346284 L194.413561,40.7346284 L194.413561,57.4055068 L199.485903,57.4055068 L199.485903,40.7346284 L202.838647,40.7346284 L202.838647,36.5009291 L199.485903,36.5009291 L199.50005,33.7250676 C199.50005,33.0715541 199.614794,32.6473986 199.845855,32.4290372 C200.169655,32.1415541 200.655355,31.9954561 201.299811,31.9954561 C201.765077,31.9954561 202.362378,32.1117061 203.063421,32.3017905 L203.063421,28.5158108 C201.735212,28.0429561 200.512317,27.7931757 199.454466,27.7931757 C197.956498,27.7931757 196.780759,28.1230743 195.966544,28.7813007" id="Fill-12" fill="#265B80"></path>
                        <path d="M207.213089,39.1134122 C205.160261,41.2059122 204.118128,43.884375 204.118128,47.0671115 C204.118128,50.1603041 205.160261,52.7790709 207.220949,54.841723 C209.270634,56.8980912 211.96949,57.9459122 215.253073,57.9459122 C217.362488,57.9459122 219.20469,57.5626014 220.73881,56.816402 C222.233634,56.0890541 223.522546,54.9532601 224.600831,53.4498649 C224.32733,53.3273311 220.481027,51.5254561 220.344277,51.4610473 C218.909183,52.8309122 217.191157,53.5299831 215.210633,53.5299831 C213.524044,53.5299831 212.110956,53.0759797 211.02324,52.1632601 C209.944955,51.2599662 209.256487,50.0204899 209.011279,48.4903885 L208.98613,48.3427196 L226.072077,48.3427196 C226.084652,48.1526351 226.095655,47.4551351 226.095655,47.4551351 C226.095655,44.0194764 225.056666,41.2059122 222.994406,39.1134122 C220.944721,37.0193412 218.245865,35.9605236 214.949707,35.9605236 C211.86732,35.9605236 209.256487,37.0193412 207.213089,39.1134122 M215.202774,40.192652 C216.590713,40.192652 217.830898,40.5728209 218.884033,41.3190203 C219.937169,42.0746453 220.649215,43.070625 221.007595,44.2598311 L221.057894,44.4263514 L209.160605,44.4263514 L209.245484,44.2472635 C209.845929,42.9308108 210.518678,41.9898142 211.226008,41.4525507 C212.364023,40.6199493 213.706378,40.192652 215.202774,40.192652" id="Fill-13" fill="#265B80"></path>
                        <path d="M181.816801,21.8125845 C181.816801,24.5146115 183.398077,26.7186486 185.329873,26.7186486 C187.263242,26.7186486 188.831942,24.5146115 188.831942,21.8125845 C188.831942,19.1027027 187.263242,16.9049493 185.329873,16.9049493 C183.398077,16.9049493 181.816801,19.1027027 181.816801,21.8125845" id="Fill-14" fill="#5B7183"></path>
                        <path d="M155.494697,14.2751858 C155.494697,18.7649493 156.771034,22.5619257 158.264286,22.5619257 C159.774829,22.5619257 161.040163,18.7649493 161.040163,14.2751858 C161.040163,9.78228041 159.774829,5.99001689 158.264286,5.99001689 C156.771034,5.99001689 155.494697,9.78228041 155.494697,14.2751858" id="Fill-15" fill="#5B7183"></path>
                        <path d="M108.880082,23.6474493 C108.880082,26.0761318 110.855891,28.0492399 113.28439,28.0492399 C115.719177,28.0492399 117.693413,26.0761318 117.693413,23.6474493 C117.693413,21.2093412 115.719177,19.2425169 113.28439,19.2425169 C110.855891,19.2425169 108.880082,21.2093412 108.880082,23.6474493" id="Fill-16" fill="#5B7183"></path>
                        <path d="M129.672439,23.5029223 C131.789713,23.5029223 133.521885,20.9815541 133.521885,17.8930743 C133.521885,14.7967399 131.789713,12.2738007 129.672439,12.2738007 C127.548877,12.2738007 125.819848,14.7967399 125.819848,17.8930743 C125.819848,20.9815541 127.548877,23.5029223 129.672439,23.5029223" id="Fill-17" fill="#5B7183"></path>
                        <path d="M168.941825,6.80533784 C168.941825,10.2378547 170.414643,13.0341385 172.222264,13.0341385 C174.025169,13.0341385 175.501131,10.2378547 175.501131,6.80533784 C175.501131,3.36182432 174.095902,0.557685811 172.292997,0.557685811 C170.48066,0.557685811 168.941825,3.36182432 168.941825,6.80533784" id="Fill-18" fill="#5B7183"></path>
                        <path d="M141.522573,9.87810811 C141.522573,13.5368412 142.805198,16.5137838 144.39276,16.5137838 C145.983467,16.5137838 147.275523,13.5368412 147.275523,9.87810811 C147.275523,6.22094595 145.983467,3.24871622 144.39276,3.24871622 C142.805198,3.24871622 141.522573,6.22094595 141.522573,9.87810811" id="Fill-19" fill="#5B7183"></path>
                        <path d="M182.79606,36.4993581 L187.86683,36.4993581 L187.86683,57.4055068 L182.79606,57.4055068 L182.79606,36.4993581 Z" id="Fill-20" fill="#265B80"></path>
                        <path d="M228.362254,54.8872804 L228.681339,54.8872804 C229.016142,54.8872804 229.332082,54.782027 229.332082,54.492973 C229.332082,54.2510473 229.165467,54.0688176 228.726922,54.0688176 C228.54616,54.0688176 228.439275,54.084527 228.362254,54.1002365 L228.362254,54.8872804 L228.362254,54.8872804 Z M228.362254,56.3105574 L227.892273,56.3105574 L227.892273,53.7813345 C228.150055,53.737348 228.423556,53.7059291 228.772506,53.7059291 C229.196904,53.7059291 229.409103,53.7813345 229.561572,53.9022973 C229.712469,54.0075507 229.81621,54.2054899 229.81621,54.4489865 C229.81621,54.7506081 229.589865,54.9485473 229.332082,55.0396622 L229.332082,55.0695101 C229.547425,55.160625 229.666885,55.3569932 229.743906,55.6900338 C229.81621,56.0686318 229.879084,56.2210135 229.940386,56.3105574 L229.454686,56.3105574 C229.377666,56.2210135 229.316364,55.9932264 229.242487,55.6601858 C229.181185,55.3727027 229.016142,55.2501689 228.66562,55.2501689 L228.362254,55.2501689 L228.362254,56.3105574 L228.362254,56.3105574 Z M226.864287,54.9783953 C226.864287,56.0984797 227.695792,56.9782095 228.819661,56.9782095 C229.893231,56.9939189 230.713734,56.0984797 230.713734,54.9925338 C230.713734,53.8865878 229.893231,52.9942905 228.788224,52.9942905 C227.695792,52.9942905 226.864287,53.8865878 226.864287,54.9783953 L226.864287,54.9783953 Z M231.245017,54.9783953 C231.245017,56.3561149 230.18245,57.4165034 228.803943,57.4165034 C227.422292,57.4165034 226.333003,56.3561149 226.333003,54.9783953 C226.333003,53.6289527 227.422292,52.5685642 228.819661,52.5685642 C230.18245,52.5685642 231.245017,53.6289527 231.245017,54.9783953 L231.245017,54.9783953 Z" id="Fill-21" fill="#5B7183"></path>
                    </g>
                </g>
            </g>
        </g>
    </g>
</svg>