<?xml version="1.0" encoding="UTF-8" standalone="no"?>
<svg width="379px" height="25px" viewBox="0 0 379 25" version="1.1" xmlns="http://www.w3.org/2000/svg" xmlns:xlink="http://www.w3.org/1999/xlink" xmlns:sketch="http://www.bohemiancoding.com/sketch/ns">
    <!-- Generator: Sketch 3.1 (8751) - http://www.bohemiancoding.com/sketch -->
    <title>logo-my-acct-admin</title>
    <desc>Created with Sketch.</desc>
    <defs></defs>
    <g id="design" stroke="none" stroke-width="1" fill="none" fill-rule="evenodd" sketch:type="MSPage">
        <g id="Desktop-HD" sketch:type="MSArtboardGroup" transform="translate(-78.000000, -1565.000000)" fill="#5B7183">
            <g id="sub-brands" sketch:type="MSLayerGroup" transform="translate(15.000000, 985.000000)">
                <g id="logo-box-4" transform="translate(43.000000, 502.000000)" sketch:type="MSShapeGroup">
                    <g id="logo-my-acct-admin" transform="translate(21.000000, 79.000000)">
                        <path d="M21.4030986,22.9158111 L32.3326489,22.9158111 L32.3326489,0.287474333 L-0.439425051,0.287474333 L-0.439425051,9.08162864 L-0.439425051,9.08162864 L1.91232532,9.08162864 L1.91232532,10.2841591 C2.36127226,9.79031744 2.85991656,9.42154513 3.40827319,9.17783108 C3.95662981,8.93411702 4.5546823,8.81226182 5.2024486,8.81226182 C5.85662843,8.81226182 6.44666413,8.97259761 6.97257341,9.293274 C7.49848268,9.61395039 7.92176917,10.0821309 8.24244555,10.6978296 C8.65932486,10.0821309 9.17079602,9.61395039 9.7768744,9.293274 C10.3829528,8.97259761 11.0451396,8.81226182 11.7634547,8.81226182 C12.5074239,8.81226182 13.1615939,8.98542447 13.7259844,9.33175497 C14.2903748,9.67808547 14.6960243,10.1302324 14.9429452,10.6882093 C15.189866,11.2461862 15.3133245,12.1536868 15.3133245,13.4107382 L15.3133245,19.5484536 L12.6677576,19.5484536 L12.6677576,14.2380792 C12.6677576,13.0515765 12.5202486,12.2482942 12.2252264,11.8282082 C11.9302041,11.4081221 11.4876773,11.1980822 10.8976328,11.1980822 C10.4486858,11.1980822 10.046243,11.3263508 9.6902922,11.582892 C9.33434141,11.8394331 9.06978736,12.1937752 8.89662211,12.6459289 C8.72345686,13.0980826 8.63687554,13.8244037 8.63687554,14.824914 L8.63687554,19.5484536 L5.99130857,19.5484536 L5.99130857,14.4785853 C5.99130857,13.5422102 5.92236418,12.8639898 5.78447333,12.4439038 C5.64658249,12.0238177 5.43974932,11.7111629 5.16396763,11.50593 C4.88818593,11.3006971 4.55468749,11.1980822 4.1634623,11.1980822 C3.72734242,11.1980822 3.33131302,11.3279542 2.97536223,11.5877021 C2.61941144,11.84745 2.35325403,12.2114122 2.17688202,12.6795997 C2.00051,13.1477872 1.91232532,13.8853319 1.91232532,14.8922557 L1.91232532,19.5484536 L-0.439425051,19.5484536 L-0.439425051,22.9158111 L18.6942007,22.9158111 L20.6333192,18.7692139 L16.6505384,9.08162864 L19.3345863,9.08162864 L22.0571152,15.652255 L25.0586312,9.08162864 L27.7522994,9.08162864 L21.4030986,22.9158111 Z" id="Rectangle-1"></path>
                        <path d="M44.2283647,0.512480503 L48.6233854,0.512480503 L57.382476,23.263049 L52.8791273,23.263049 L51.0994534,18.576834 L41.8141984,18.576834 L39.9571474,23.263049 L35.4537988,23.263049 L44.2283647,0.512480503 Z M46.4568259,6.54424237 L43.4236426,14.3546007 L49.4745338,14.3546007 L46.4568259,6.54424237 Z M74.6529289,9.83851232 L71.1400074,11.7717693 C70.4797193,11.0809487 69.8271787,10.6015058 69.1823661,10.3334261 C68.5375535,10.0653465 67.7818445,9.93130865 66.9152164,9.93130865 C65.3367151,9.93130865 64.0600053,10.4030186 63.0850487,11.3464528 C62.110092,12.2898869 61.622621,13.4988049 61.622621,14.9732429 C61.622621,16.406438 62.0920376,17.5766912 63.0308847,18.4840377 C63.9697318,19.3913842 65.202595,19.8450506 66.7295113,19.8450506 C68.6175226,19.8450506 70.0876732,19.200638 71.1400074,17.9117936 L74.4672238,20.1853038 C72.6617485,22.5258454 70.1134873,23.6960986 66.8223638,23.6960986 C63.8613844,23.6960986 61.542673,22.8196975 59.8661603,21.066869 C58.1896475,19.3140406 57.3514037,17.262231 57.3514037,14.9113787 C57.3514037,13.2822793 57.7589192,11.7820869 58.5739623,10.4107564 C59.3890054,9.0394259 60.5264378,7.9619681 61.9862935,7.17835067 C63.4461492,6.39473325 65.0787902,6.00293041 66.8842655,6.00293041 C68.5556198,6.00293041 70.056721,6.33544729 71.3876142,7.00049103 C72.7185074,7.66553476 73.8069347,8.6115324 74.6529289,9.83851232 Z M89.3235104,11.7717693 C88.6632223,11.0809487 88.0106817,10.6015058 87.3658691,10.3334261 C86.7210565,10.0653465 85.9653475,9.93130865 85.0987193,9.93130865 C83.5202181,9.93130865 82.2435083,10.4030186 81.2685517,11.3464528 C80.293595,12.2898869 79.806124,13.4988049 79.806124,14.9732429 C79.806124,16.406438 80.2755405,17.5766912 81.2143877,18.4840377 C82.1532348,19.3913842 83.386098,19.8450506 84.9130142,19.8450506 C86.8010255,19.8450506 88.2711762,19.200638 89.3235104,17.9117936 L92.6507267,20.1853038 C90.8452515,22.5258454 88.2969903,23.6960986 85.0058668,23.6960986 C82.0448873,23.6960986 79.726176,22.8196975 78.0496633,21.066869 C76.3731505,19.3140406 75.5349067,17.262231 75.5349067,14.9113787 C75.5349067,13.2822793 75.9424222,11.7820869 76.7574653,10.4107564 C77.5725084,9.0394259 78.7099408,7.9619681 80.1697965,7.17835067 C81.6296522,6.39473325 83.2622932,6.00293041 85.0677685,6.00293041 C86.7391227,6.00293041 88.240224,6.33544729 89.5711172,7.00049103 C90.9020104,7.66553476 91.9904377,8.6115324 92.8364318,9.83851232 L89.3235104,11.7717693 Z M102.857276,6.00293041 C104.446094,6.00293041 105.939458,6.39988855 107.337412,7.19381673 C108.735365,7.98774491 109.826372,9.06520271 110.610464,10.4262224 C111.394556,11.7872422 111.786596,13.2565028 111.786596,14.8340484 C111.786596,16.4219048 111.391977,17.9066313 110.602726,19.2882726 C109.813476,20.6699138 108.737945,21.7499493 107.3761,22.5284113 C106.014256,23.3068734 104.513155,23.6960986 102.872752,23.6960986 C100.458573,23.6960986 98.3977831,22.837741 96.6903194,21.1210002 C94.9828556,19.4042594 94.1291365,17.3189404 94.1291365,14.8649805 C94.1291365,12.2357379 95.0937617,10.0447352 97.023041,8.29190671 C98.7150293,6.76591488 100.659755,6.00293041 102.857276,6.00293041 Z M102.919178,9.97770682 C101.608919,9.97770682 100.517912,10.4339509 99.6461255,11.3464528 C98.7743389,12.2589547 98.3384521,13.4266302 98.3384521,14.8495145 C98.3384521,16.3136418 98.7691805,17.4993609 99.6306501,18.4067074 C100.49212,19.3140539 101.583126,19.7677203 102.903703,19.7677203 C104.224279,19.7677203 105.323023,19.3088986 106.199968,18.3912413 C107.076913,17.4735841 107.515379,16.2930203 107.515379,14.8495145 C107.515379,13.4060087 107.084651,12.2331778 106.223181,11.3309867 C105.361712,10.4287956 104.260388,9.97770682 102.919178,9.97770682 Z M114.144179,6.24265428 L118.415396,6.24265428 L118.415396,14.3468677 C118.415396,15.9244133 118.523723,17.0199146 118.74038,17.6334046 C118.957037,18.2468945 119.305231,18.7237598 119.784971,19.0640148 C120.264712,19.4042697 120.855351,19.5743946 121.556907,19.5743946 C122.258463,19.5743946 122.854261,19.4068474 123.344319,19.0717478 C123.834376,18.7366482 124.198045,18.244317 124.435336,17.5947394 C124.610725,17.1101339 124.698419,16.0739185 124.698419,14.4860622 L124.698419,6.24265428 L128.938685,6.24265428 L128.938685,13.3725061 C128.938685,16.3110715 128.706556,18.3216387 128.242291,19.404268 C127.674856,20.7240447 126.839191,21.7370613 125.735272,22.443348 C124.631353,23.1496348 123.228262,23.5027729 121.525956,23.5027729 C119.679213,23.5027729 118.18585,23.0903488 117.045821,22.2654884 C115.905792,21.4406279 115.103657,20.2909959 114.639392,18.8165579 C114.309248,17.7957931 114.144179,15.9398849 114.144179,13.2487777 L114.144179,6.24265428 Z M132.71708,6.43597998 L136.926395,6.43597998 L136.926395,8.15271221 C137.885876,7.34847327 138.755071,6.78912317 139.534004,6.47464512 C140.312938,6.16016708 141.109914,6.00293041 141.924958,6.00293041 C143.596312,6.00293041 145.014878,6.58547936 146.180699,7.75059475 C147.160815,8.74042729 147.650865,10.2045326 147.650865,12.1429547 L147.650865,23.263049 L143.4725,23.263049 L143.4725,15.8857402 C143.4725,13.8751429 143.382228,12.5399201 143.20168,11.8800317 C143.021133,11.2201434 142.706469,10.7175016 142.257679,10.3720913 C141.80889,10.0266809 141.254359,9.85397837 140.594071,9.85397837 C139.73776,9.85397837 139.002685,10.1400975 138.388823,10.7123445 C137.774961,11.2845914 137.349391,12.07593 137.1121,13.0863841 C136.988296,13.6122326 136.926395,14.751554 136.926395,16.5043825 L136.926395,23.263049 L132.71708,23.263049 L132.71708,6.43597998 Z M151.785194,0.234091494 L155.99451,0.234091494 L155.99451,6.43597998 L158.501529,6.43597998 L158.501529,10.0705032 L155.99451,10.0705032 L155.99451,23.263049 L151.785194,23.263049 L151.785194,10.0705032 L149.618635,10.0705032 L149.618635,6.43597998 L151.785194,6.43597998 L151.785194,0.234091494 Z M176.322708,0.512480503 L180.717729,0.512480503 L189.476819,23.263049 L184.97347,23.263049 L183.193797,18.576834 L173.908542,18.576834 L172.051491,23.263049 L167.548142,23.263049 L176.322708,0.512480503 Z M178.551169,6.54424237 L175.517986,14.3546007 L181.568877,14.3546007 L178.551169,6.54424237 Z M202.708186,-0.0597635715 L206.917502,-0.0597635715 L206.917502,23.263049 L202.708186,23.263049 L202.708186,21.4844525 C201.882826,22.26807 201.054899,22.8325754 200.22438,23.1779857 C199.393862,23.523396 198.493717,23.6960986 197.523919,23.6960986 C195.347031,23.6960986 193.464207,22.8532069 191.875389,21.1673984 C190.28657,19.4815899 189.492173,17.3859602 189.492173,14.8804466 C189.492173,12.2821362 190.260778,10.1529971 191.798011,8.49296544 C193.335245,6.83293379 195.202594,6.00293041 197.400115,6.00293041 C198.411181,6.00293041 199.360331,6.19367653 200.247594,6.57517449 C201.134856,6.95667244 201.955045,7.5289108 202.708186,8.29190671 L202.708186,-0.0597635715 Z M198.266739,9.90037654 C196.95648,9.90037654 195.868053,10.3617759 195.001424,11.2845886 C194.134796,12.2074012 193.701489,13.3905426 193.701489,14.8340484 C193.701489,16.287865 194.142534,17.4838947 195.024638,18.4221734 C195.906741,19.3604522 196.992589,19.8295845 198.282215,19.8295845 C199.613108,19.8295845 200.71701,19.3681852 201.593955,18.4453725 C202.470901,17.5225599 202.909367,16.3136419 202.909367,14.8185824 C202.909367,13.3544551 202.470901,12.168736 201.593955,11.2613895 C200.71701,10.354043 199.607949,9.90037654 198.266739,9.90037654 Z M210.695896,6.43597998 L214.936163,6.43597998 L214.936163,8.36923699 C215.658353,7.57530881 216.460488,6.98244925 217.342591,6.59064054 C218.224695,6.19883183 219.186741,6.00293041 220.228758,6.00293041 C221.281092,6.00293041 222.230242,6.26069543 223.076236,6.77623321 C223.92223,7.29177099 224.603142,8.04444486 225.118992,9.0342774 C225.789598,8.04444486 226.612366,7.29177099 227.587323,6.77623321 C228.562279,6.26069543 229.627494,6.00293041 230.782998,6.00293041 C231.97977,6.00293041 233.032089,6.28131664 233.939985,6.83809744 C234.847881,7.39487824 235.500421,8.12177561 235.897626,9.01881135 C236.294831,9.91584708 236.49343,11.3747971 236.49343,13.3957052 L236.49343,23.263049 L232.237688,23.263049 L232.237688,14.725786 C232.237688,12.8182963 232.0004,11.5268935 231.525818,10.851539 C231.051236,10.1761845 230.339374,9.83851232 229.39021,9.83851232 C228.66802,9.83851232 228.020638,10.0447243 227.448044,10.4571546 C226.87545,10.8695848 226.44988,11.4392455 226.171321,12.1661538 C225.892762,12.893062 225.753485,14.0607376 225.753485,15.6692155 L225.753485,23.263049 L221.497743,23.263049 L221.497743,15.1124374 C221.497743,13.6070671 221.386837,12.5167211 221.165021,11.8413666 C220.943206,11.1660121 220.610488,10.6633703 220.166856,10.3334261 C219.723225,10.0034819 219.186749,9.83851232 218.557412,9.83851232 C217.855856,9.83851232 217.218791,10.047302 216.646197,10.4648876 C216.073604,10.8824732 215.645455,11.4675998 215.361737,12.220285 C215.078019,12.9729701 214.936163,14.1586892 214.936163,15.7774779 L214.936163,23.263049 L210.695896,23.263049 L210.695896,6.43597998 Z M241.505676,-0.492813142 C242.2485,-0.492813142 242.885565,-0.224737517 243.416891,0.311421774 C243.948216,0.847581066 244.213875,1.49714893 244.213875,2.26014484 C244.213875,3.01283 243.950795,3.65466491 243.424628,4.18566882 C242.898461,4.71667274 242.269134,4.98217071 241.536626,4.98217071 C240.783485,4.98217071 240.141262,4.71151743 239.609936,4.17020277 C239.07861,3.6288881 238.812952,2.97158729 238.812952,2.19828062 C238.812952,1.45590621 239.076031,0.821804254 239.602198,0.295955718 C240.128365,-0.229892818 240.762852,-0.492813142 241.505676,-0.492813142 Z M239.385542,6.43597998 L243.625809,6.43597998 L243.625809,23.263049 L239.385542,23.263049 L239.385542,6.43597998 Z M246.986367,6.43597998 L251.195683,6.43597998 L251.195683,8.15271221 C252.155164,7.34847327 253.024358,6.78912317 253.803292,6.47464512 C254.582225,6.16016708 255.379202,6.00293041 256.194245,6.00293041 C257.865599,6.00293041 259.284166,6.58547936 260.449987,7.75059475 C261.430102,8.74042729 261.920152,10.2045326 261.920152,12.1429547 L261.920152,23.263049 L257.741787,23.263049 L257.741787,15.8857402 C257.741787,13.8751429 257.651515,12.5399201 257.470968,11.8800317 C257.29042,11.2201434 256.975756,10.7175016 256.526967,10.3720913 C256.078177,10.0266809 255.523646,9.85397837 254.863358,9.85397837 C254.007047,9.85397837 253.271972,10.1400975 252.65811,10.7123445 C252.044249,11.2845914 251.618679,12.07593 251.381388,13.0863841 C251.257584,13.6122326 251.195683,14.751554 251.195683,16.5043825 L251.195683,23.263049 L246.986367,23.263049 L246.986367,6.43597998 Z M267.199663,-0.492813142 C267.942487,-0.492813142 268.579553,-0.224737517 269.110878,0.311421774 C269.642204,0.847581066 269.907862,1.49714893 269.907862,2.26014484 C269.907862,3.01283 269.644783,3.65466491 269.118616,4.18566882 C268.592449,4.71667274 267.963121,4.98217071 267.230614,4.98217071 C266.477473,4.98217071 265.835249,4.71151743 265.303924,4.17020277 C264.772598,3.6288881 264.506939,2.97158729 264.506939,2.19828062 C264.506939,1.45590621 264.770019,0.821804254 265.296186,0.295955718 C265.822353,-0.229892818 266.456839,-0.492813142 267.199663,-0.492813142 Z M265.07953,6.43597998 L269.319796,6.43597998 L269.319796,23.263049 L265.07953,23.263049 L265.07953,6.43597998 Z M282.986988,8.7868205 L280.371641,11.400584 C279.30899,10.3488869 278.344364,9.82304626 277.477736,9.82304626 C277.003154,9.82304626 276.631748,9.92357462 276.363506,10.1246344 C276.095264,10.3256941 275.961145,10.5757262 275.961145,10.8747381 C275.961145,11.1015747 276.046259,11.3103644 276.216489,11.5011133 C276.38672,11.6918623 276.807131,11.952205 277.477736,12.2821492 L279.025279,13.055452 C280.655365,13.8596909 281.774743,14.6793837 282.383446,15.5145549 C282.992149,16.3497261 283.296496,17.3292332 283.296496,18.4531056 C283.296496,19.9481651 282.747124,21.1957478 281.648363,22.1958911 C280.549603,23.1960344 279.076873,23.6960986 277.23013,23.6960986 C274.774683,23.6960986 272.814482,22.7372127 271.349468,20.8194121 L273.949339,17.9891239 C274.444555,18.5665262 275.024878,19.0330809 275.690325,19.3888019 C276.355771,19.744523 276.946411,19.9223809 277.462261,19.9223809 C278.019379,19.9223809 278.468162,19.7883431 278.808623,19.5202634 C279.149084,19.2521838 279.319312,18.9428657 279.319312,18.5923001 C279.319312,17.9427225 278.70546,17.3086205 277.477736,16.6899752 L276.053997,15.9785366 C273.330309,14.6072061 271.968485,12.890491 271.968485,10.8283399 C271.968485,9.49825243 272.481748,8.36150868 273.50829,7.41807454 C274.534831,6.4746404 275.84765,6.00293041 277.446785,6.00293041 C278.540388,6.00293041 279.569493,6.24265188 280.534133,6.72210202 C281.498772,7.20155215 282.316383,7.88978477 282.986988,8.7868205 Z M287.083257,0.234091494 L291.292572,0.234091494 L291.292572,6.43597998 L293.799591,6.43597998 L293.799591,10.0705032 L291.292572,10.0705032 L291.292572,23.263049 L287.083257,23.263049 L287.083257,10.0705032 L284.916697,10.0705032 L284.916697,6.43597998 L287.083257,6.43597998 L287.083257,0.234091494 Z M296.265087,6.43597998 L299.886336,6.43597998 L299.886336,8.55482966 C300.278383,7.71965846 300.799383,7.0855565 301.449354,6.65250477 C302.099326,6.21945303 302.811188,6.00293041 303.584963,6.00293041 C304.131764,6.00293041 304.704349,6.14727882 305.302735,6.43597998 L303.987324,10.0705032 C303.492108,9.82304502 303.084593,9.69931781 302.764766,9.69931781 C302.114794,9.69931781 301.565422,10.1014312 301.116633,10.9056702 C300.667843,11.7099091 300.443452,13.2874311 300.443452,15.6382833 L300.458927,16.4579843 L300.458927,23.263049 L296.265087,23.263049 L296.265087,6.43597998 Z M317.934744,6.43597998 L322.144059,6.43597998 L322.144059,23.263049 L317.934744,23.263049 L317.934744,21.4844525 C317.109383,22.26807 316.281456,22.8325754 315.450938,23.1779857 C314.620419,23.523396 313.720274,23.6960986 312.750476,23.6960986 C310.573589,23.6960986 308.690764,22.8532069 307.101946,21.1673984 C305.513128,19.4815899 304.718731,17.3859602 304.718731,14.8804466 C304.718731,12.2821362 305.487336,10.1529971 307.024569,8.49296544 C308.561802,6.83293379 310.429151,6.00293041 312.626673,6.00293041 C313.637739,6.00293041 314.586889,6.19367653 315.474151,6.57517449 C316.361413,6.95667244 317.181602,7.5289108 317.934744,8.29190671 L317.934744,6.43597998 Z M313.493297,9.90037654 C312.183037,9.90037654 311.09461,10.3617759 310.227982,11.2845886 C309.361354,12.2074012 308.928046,13.3905426 308.928046,14.8340484 C308.928046,16.287865 309.369091,17.4838947 310.251195,18.4221734 C311.133299,19.3604522 312.219147,19.8295845 313.508772,19.8295845 C314.839665,19.8295845 315.943568,19.3681852 316.820513,18.4453725 C317.697458,17.5225599 318.135924,16.3136419 318.135924,14.8185824 C318.135924,13.3544551 317.697458,12.168736 316.820513,11.2613895 C315.943568,10.354043 314.834507,9.90037654 313.493297,9.90037654 Z M326.669457,0.234091494 L330.878773,0.234091494 L330.878773,6.43597998 L333.385792,6.43597998 L333.385792,10.0705032 L330.878773,10.0705032 L330.878773,23.263049 L326.669457,23.263049 L326.669457,10.0705032 L324.502898,10.0705032 L324.502898,6.43597998 L326.669457,6.43597998 L326.669457,0.234091494 Z M338.497585,-0.492813142 C339.240409,-0.492813142 339.877475,-0.224737517 340.4088,0.311421774 C340.940126,0.847581066 341.205785,1.49714893 341.205785,2.26014484 C341.205785,3.01283 340.942705,3.65466491 340.416538,4.18566882 C339.890371,4.71667274 339.261043,4.98217071 338.528536,4.98217071 C337.775395,4.98217071 337.133171,4.71151743 336.601846,4.17020277 C336.07052,3.6288881 335.804861,2.97158729 335.804861,2.19828062 C335.804861,1.45590621 336.067941,0.821804254 336.594108,0.295955718 C337.120275,-0.229892818 337.754761,-0.492813142 338.497585,-0.492813142 Z M336.377452,6.43597998 L340.617718,6.43597998 L340.617718,23.263049 L336.377452,23.263049 L336.377452,6.43597998 Z M351.886219,6.00293041 C353.475037,6.00293041 354.968401,6.39988855 356.366354,7.19381673 C357.764308,7.98774491 358.855315,9.06520271 359.639407,10.4262224 C360.423499,11.7872422 360.815539,13.2565028 360.815539,14.8340484 C360.815539,16.4219048 360.42092,17.9066313 359.631669,19.2882726 C358.842418,20.6699138 357.766887,21.7499493 356.405043,22.5284113 C355.043199,23.3068734 353.542098,23.6960986 351.901694,23.6960986 C349.487516,23.6960986 347.426726,22.837741 345.719262,21.1210002 C344.011798,19.4042594 343.158079,17.3189404 343.158079,14.8649805 C343.158079,12.2357379 344.122704,10.0447352 346.051984,8.29190671 C347.743972,6.76591488 349.688698,6.00293041 351.886219,6.00293041 Z M351.948121,9.97770682 C350.637861,9.97770682 349.546855,10.4339509 348.675068,11.3464528 C347.803282,12.2589547 347.367395,13.4266302 347.367395,14.8495145 C347.367395,16.3136418 347.798123,17.4993609 348.659593,18.4067074 C349.521062,19.3140539 350.612069,19.7677203 351.932645,19.7677203 C353.253221,19.7677203 354.351966,19.3088986 355.228911,18.3912413 C356.105856,17.4735841 356.544322,16.2930203 356.544322,14.8495145 C356.544322,13.4060087 356.113593,12.2331778 355.252124,11.3309867 C354.390654,10.4287956 353.289331,9.97770682 351.948121,9.97770682 Z M362.983233,6.43597998 L367.192549,6.43597998 L367.192549,8.15271221 C368.15203,7.34847327 369.021224,6.78912317 369.800158,6.47464512 C370.579092,6.16016708 371.376068,6.00293041 372.191111,6.00293041 C373.862466,6.00293041 375.281032,6.58547936 376.446853,7.75059475 C377.426968,8.74042729 377.917018,10.2045326 377.917018,12.1429547 L377.917018,23.263049 L373.738654,23.263049 L373.738654,15.8857402 C373.738654,13.8751429 373.648381,12.5399201 373.467834,11.8800317 C373.287286,11.2201434 372.972622,10.7175016 372.523833,10.3720913 C372.075043,10.0266809 371.520513,9.85397837 370.860225,9.85397837 C370.003914,9.85397837 369.268838,10.1400975 368.654977,10.7123445 C368.041115,11.2845914 367.615545,12.07593 367.378254,13.0863841 C367.25445,13.6122326 367.192549,14.751554 367.192549,16.5043825 L367.192549,23.263049 L362.983233,23.263049 L362.983233,6.43597998 Z" id="Account-Administrati-copy-3"></path>
                    </g>
                </g>
            </g>
        </g>
    </g>
</svg>