<?xml version="1.0" encoding="UTF-8" standalone="no"?>
<svg width="272px" height="81px" viewBox="0 0 272 81" version="1.1" xmlns="http://www.w3.org/2000/svg" xmlns:xlink="http://www.w3.org/1999/xlink" xmlns:sketch="http://www.bohemiancoding.com/sketch/ns">
    <!-- Generator: Sketch 3.1 (8751) - http://www.bohemiancoding.com/sketch -->
    <title>logo-my-empl</title>
    <desc>Created with Sketch.</desc>
    <defs></defs>
    <g id="design" stroke="none" stroke-width="1" fill="none" fill-rule="evenodd" sketch:type="MSPage">
        <g id="Desktop-HD" sketch:type="MSArtboardGroup" transform="translate(-131.000000, -1327.000000)" fill="#FFFFFF">
            <g id="sub-brands" sketch:type="MSLayerGroup" transform="translate(15.000000, 985.000000)">
                <g id="logo-box-hover" transform="translate(43.000000, 292.000000)" sketch:type="MSShapeGroup">
                    <g id="logo-my-empl" transform="translate(73.000000, 50.000000)">
                        <path d="M71.0318801,35.726839 C68.5380131,33.1064946 65.6984796,31.7689892 62.5856704,31.7689892 C59.9289239,31.7689892 57.6522297,32.7056074 55.8243591,34.5314663 C54.0001081,36.3700806 53.0753142,38.6660708 53.0753142,41.3520149 C53.0753142,43.2197847 53.4807033,44.9126219 54.2914816,46.3594602 C55.1040696,47.8263428 56.2641339,48.9743379 57.7390988,49.8016233 C59.2068245,50.6216198 60.8754351,51.0461957 62.6815883,51.0461957 C64.2198952,51.0461957 65.6441864,50.750997 66.9200762,50.1788217 C68.1651999,49.6048241 69.5514859,48.5570508 71.0282605,47.0938126 C71.1784717,47.2487008 74.2713734,50.504998 74.4378725,50.6617085 C72.4489322,52.6023669 70.5414316,53.9672055 68.7696641,54.7234245 C66.9689401,55.492399 64.8877014,55.8914639 62.5929095,55.8914639 C58.3489922,55.8914639 54.8235548,54.506581 52.1251835,51.8024147 C49.4177634,49.0909596 48.0531947,45.5795524 48.0531947,41.3374372 C48.0531947,38.5950045 48.672137,36.1295483 49.9009727,33.9993797 C51.1352378,31.8801443 52.9232933,30.1362851 55.2144657,28.8334017 C57.5164967,27.5414517 60.0248418,26.8890989 62.6671101,26.8890989 C64.9184675,26.8890989 67.1191513,27.3719858 69.2040095,28.3304705 C71.2581017,29.2743776 73.0407279,30.6337496 74.5410296,32.3630311 L71.0318801,35.726839 M81.919356,49.6380181 L81.919356,49.6380181 C80.8502721,48.5574531 80.2992545,47.1501252 80.2992545,45.4264079 C80.2992545,43.7528288 80.855764,42.3576032 81.9394928,41.280496 C83.0323748,40.1964732 84.4144953,39.6501395 86.052903,39.6501395 C87.7206006,39.6501395 89.1228579,40.1912865 90.1974337,41.2597492 C91.2756707,42.3230251 91.8157045,43.7251663 91.8157045,45.4264079 C91.8157045,47.1207338 91.2646869,48.5297906 90.1608212,49.6190001 C89.0734311,50.7064808 87.6821575,51.2510855 86.0309355,51.2510855 C84.3815441,51.2510855 82.9994236,50.7064808 81.919356,49.6380181 C81.919356,49.6380181 82.9994236,50.7064808 81.919356,49.6380181 L81.919356,49.6380181 L81.919356,49.6380181 L81.919356,49.6380181 L81.919356,49.6380181 Z M79.0924227,37.6941959 C76.8365481,39.7688551 75.6926746,42.3768458 75.6926746,45.4666125 C75.6926746,48.3466021 76.7037455,50.8319265 78.7010975,52.8479193 C80.7002202,54.8550232 83.138477,55.8914639 85.9556641,55.8914639 C87.8786467,55.8914639 89.6564316,55.42391 91.2500635,54.5030245 C92.8436955,53.5910277 94.118601,52.305699 95.0411368,50.6879271 C95.9583605,49.0559329 96.4222845,47.2923837 96.4222845,45.431057 C96.4222845,43.580397 95.967214,41.8275144 95.0482196,40.2257424 C94.1309959,38.6239704 92.8436955,37.3386417 91.2040253,36.4088672 C89.5678965,35.4755372 87.7989651,35.0097611 85.9414985,35.0097611 C83.370439,35.0097611 81.0649848,35.9164245 79.0924227,37.6941959 L79.0924227,37.6941959 L79.0924227,37.6941959 L79.0924227,37.6941959 L79.0924227,37.6941959 Z M98.7255745,28.0491935 L98.7255745,55.8914639 L103.332154,55.8914639 L103.332154,28.0491935 L98.7255745,28.0491935 M113.017432,49.6380181 L113.017432,49.6380181 C111.937364,48.5574531 111.393669,47.1501252 111.393669,45.4264079 C111.393669,43.7528288 111.944687,42.3576032 113.033908,41.280496 C114.12679,40.1964732 115.50708,39.6501395 117.141826,39.6501395 C118.818677,39.6501395 120.20995,40.1912865 121.288187,41.2597492 C122.360932,42.3230251 122.910119,43.7251663 122.910119,45.4264079 C122.910119,47.1207338 122.357271,48.5297906 121.258897,49.6190001 C120.166015,50.7064808 118.771081,51.2510855 117.12352,51.2510855 C115.474128,51.2510855 114.092008,50.7064808 113.017432,49.6380181 C113.017432,49.6380181 114.092008,50.7064808 113.017432,49.6380181 L113.017432,49.6380181 L113.017432,49.6380181 L113.017432,49.6380181 L113.017432,49.6380181 Z M110.186257,37.6941959 C107.927227,39.7688551 106.787089,42.3768458 106.787089,45.4666125 C106.787089,48.3466021 107.799758,50.8319265 109.793228,52.8479193 C111.792009,54.8550232 114.228079,55.8914639 117.051867,55.8914639 C118.97098,55.8914639 120.746691,55.42391 122.341821,54.5030245 C123.928099,53.5910277 125.204557,52.305699 126.126936,50.6879271 C127.047543,49.0559329 127.516699,47.2923837 127.516699,45.431057 C127.516699,43.580397 127.052855,41.8275144 126.135788,40.2257424 C125.21695,38.6239704 123.928099,37.3386417 122.295791,36.4088672 C120.658171,35.4755372 118.889542,35.0097611 117.034163,35.0097611 C114.468854,35.0097611 112.162023,35.9164245 110.186257,37.6941959 L110.186257,37.6941959 L110.186257,37.6941959 L110.186257,37.6941959 L110.186257,37.6941959 Z M138.90775,35.5820623 L138.90775,35.5820623 C138.015287,35.9502306 137.000567,36.6410018 135.886298,37.6161009 L135.699422,37.7856041 L135.699422,35.5364969 L130.971634,35.5364969 L130.971634,55.8914639 L135.699422,55.8914639 L135.699422,47.7461964 C135.699422,45.5699938 135.771028,44.1993872 135.919481,43.5341326 C136.202415,42.2838185 136.715887,41.286848 137.44418,40.5760281 C138.182951,39.8615629 139.078908,39.5006851 140.109345,39.5006851 C140.902258,39.5006851 141.579902,39.7175763 142.128304,40.1513587 C142.662735,40.5960768 143.053952,41.2376374 143.272265,42.0632821 C143.487085,42.892572 143.591875,44.4964734 143.591875,46.9952789 L143.591875,55.8914639 L148.246309,55.8914639 L148.246309,42.3968207 C148.246309,40.0711636 147.682188,38.2831781 146.564426,37.1112365 C145.226603,35.7060001 143.584889,35.0097611 141.67072,35.0097611 C140.731101,35.0097611 139.805454,35.2011357 138.90775,35.5820623 M152.852889,35.0097611 L152.852889,55.8914639 L157.459469,55.8914639 L157.459469,35.0097611 L152.852889,35.0097611 M166.672629,45.4113047 C166.672629,43.736448 167.214126,42.3401644 168.29712,41.2651799 C169.374608,40.1833592 170.751295,39.6501395 172.384965,39.6501395 C174.05351,39.6501395 175.455896,40.1679779 176.548068,41.2395443 C177.643911,42.2957295 178.189079,43.690304 178.189079,45.3925053 C178.189079,47.1323053 177.643911,48.5559335 176.548068,49.6309181 C175.455896,50.7076116 174.064523,51.2510855 172.406992,51.2510855 C170.793514,51.2510855 169.418662,50.6922303 168.320983,49.6018644 C167.22514,48.5114985 166.672629,47.0981246 166.672629,45.4113047 C166.672629,45.4113047 166.672629,47.0981246 166.672629,45.4113047 L166.672629,45.4113047 L166.672629,45.4113047 L166.672629,45.4113047 L166.672629,45.4113047 Z M164.804159,37.9306395 L164.804159,37.9306395 C162.984734,39.8879658 162.066049,42.4230678 162.066049,45.4915013 C162.066049,48.4266018 163.017031,50.9208151 164.884903,52.8994747 C166.776101,54.8816898 169.02616,55.8914639 171.597399,55.8914639 C172.734989,55.8914639 173.813366,55.6905758 174.794851,55.2745772 C175.770954,54.8763565 176.759616,54.2008033 177.746484,53.2834733 L177.942063,53.0861407 L177.942063,55.377688 L182.795659,55.377688 L182.795659,35.5235371 L177.942063,35.5235371 L177.942063,37.9128618 L177.741101,37.6941959 C176.847537,36.8088658 175.864257,36.1297571 174.816383,35.6764254 C173.770303,35.2302048 172.641685,35.0097611 171.446678,35.0097611 C168.848523,35.0097611 166.616408,35.9964243 164.804159,37.9306395 L164.804159,37.9306395 L164.804159,37.9306395 L164.804159,37.9306395 L164.804159,37.9306395 Z M187.402239,28.0491935 L187.402239,55.8914639 L192.008819,55.8914639 L192.008819,28.0491935 L187.402239,28.0491935 M204.676914,26.8890989 L204.676914,55.8914639 L217.345009,55.8914639 L217.345009,50.9525878 L209.691707,50.9525878 L209.691707,26.8890989 L204.676914,26.8890989 M234.551543,27.8570666 C233.763317,28.4987119 233.288171,29.3878488 233.153731,30.4933119 C233.08559,30.9809623 233.034023,32.5942418 233.026657,35.2891518 L233.026657,35.4174808 L231.164749,35.4174808 L231.164749,39.5643424 L233.026657,39.5643424 L233.026657,55.8914639 L238.012003,55.8914639 L238.012003,39.5643424 L241.308556,39.5643424 L241.308556,35.4174808 L238.012003,35.4174808 L238.024894,32.6987383 C238.024894,32.0589263 238.137235,31.6427735 238.363758,31.430114 C238.682363,31.1477901 239.159351,31.0047948 239.79472,31.0047948 C240.249607,31.0047948 240.840777,31.120291 241.529554,31.3072847 L241.529554,27.5985752 C240.223824,27.1329241 239.019385,26.8890989 237.978853,26.8890989 C236.507375,26.8890989 235.350819,27.2135881 234.551543,27.8570666 M253.136656,38.4900449 C254.480121,38.4900449 255.682169,38.8022401 256.701099,39.4174029 C257.721842,40.0371795 258.408985,40.856884 258.75709,41.833455 L258.804229,41.9703287 L247.287779,41.9703287 L247.369366,41.8211517 C247.953166,40.740003 248.602235,39.9695116 249.285752,39.5250564 C250.389896,38.8437636 251.689848,38.4900449 253.136656,38.4900449 C253.136656,38.4900449 251.689848,38.4900449 253.136656,38.4900449 L253.136656,38.4900449 L253.136656,38.4900449 L253.136656,38.4900449 L253.136656,38.4900449 Z M245.600937,38.0053059 C243.665043,39.9928543 242.681199,42.5368452 242.681199,45.5590566 C242.681199,48.4977127 243.665043,50.9848149 245.608002,52.9421412 C247.54213,54.8959119 250.087407,55.8914639 253.185544,55.8914639 C255.174427,55.8914639 256.912493,55.5287986 258.357348,54.8212455 C259.768643,54.1279147 260.98211,53.0505852 262.00128,51.621257 C261.74163,51.5057019 258.115361,49.793708 257.984653,49.731486 C256.633413,51.0328147 255.011925,51.6959234 253.144918,51.6959234 C251.553458,51.6959234 250.219881,51.2674805 249.197178,50.3999281 C248.178007,49.5412645 247.527999,48.3626021 247.298377,46.9119406 L247.271882,46.7732744 L263.387847,46.7732744 C263.400211,46.590164 263.410809,45.928833 263.410809,45.928833 C263.410809,42.6648448 262.430497,39.9928543 260.484005,38.0053059 C258.55341,36.0159797 256.006367,35.0097611 252.895866,35.0097611 C249.992025,35.0097611 247.527999,36.0159797 245.600937,38.0053059 L245.600937,38.0053059 L245.600937,38.0053059 L245.600937,38.0053059 L245.600937,38.0053059 Z M221.951589,35.0097611 L221.951589,55.8914639 L226.558169,55.8914639 L226.558169,35.0097611 L221.951589,35.0097611 M267.513239,52.2512018 L267.883794,52.2512018 C268.312857,52.2512018 268.661959,52.1043034 268.661959,51.7441006 C268.661959,51.4261562 268.437676,51.2168763 267.944253,51.2168763 C267.739473,51.2168763 267.595151,51.2349871 267.513239,51.2571224 L267.513239,52.2512018 L267.513239,52.2512018 L267.513239,52.2512018 L267.513239,52.2512018 Z M267.495687,54.1991143 L266.713621,54.1991143 L266.713621,50.7278859 C267.019816,50.6876398 267.45083,50.6232459 268.004712,50.6232459 C268.640506,50.6232459 268.929148,50.7278859 269.155382,50.8969196 C269.360162,51.0458303 269.502533,51.2993809 269.502533,51.6374483 C269.502533,52.062045 269.196338,52.3357186 268.80628,52.4645062 L268.80628,52.5047524 C269.133929,52.6114046 269.295802,52.8870906 269.401118,53.3519333 C269.502533,53.8811699 269.584445,54.0703267 269.644904,54.1991143 L268.825783,54.1991143 C268.724368,54.0703267 268.661959,53.7745177 268.558594,53.3519333 C268.500085,52.9917305 268.293354,52.8206845 267.862341,52.8206845 L267.495687,52.8206845 L267.495687,54.1991143 L267.495687,54.1991143 L267.495687,54.1991143 L267.495687,54.1991143 Z M265.422531,52.4001124 C265.422531,53.9455637 266.549797,55.1710583 268.045668,55.1710583 C269.502533,55.1931936 270.608346,53.9455637 270.608346,52.4202355 C270.608346,50.8767965 269.502533,49.6291666 268.004712,49.6291666 C266.549797,49.6291666 265.422531,50.8767965 265.422531,52.4001124 C265.422531,52.4001124 265.422531,50.8767965 265.422531,52.4001124 L265.422531,52.4001124 L265.422531,52.4001124 L265.422531,52.4001124 L265.422531,52.4001124 Z M271.472324,52.4001124 C271.472324,54.3460127 269.955,55.8914639 268.026165,55.8914639 C266.099281,55.8914639 264.562454,54.3460127 264.562454,52.4001124 C264.562454,50.4542122 266.099281,48.9308963 268.045668,48.9308963 C269.955,48.9308963 271.472324,50.4542122 271.472324,52.4001124 L271.472324,52.4001124 L271.472324,52.4001124 L271.472324,52.4001124 L271.472324,52.4001124 Z" id="logo"></path>
                        <path d="M151.701244,22.8304934 C151.701244,25.0685935 153.50849,26.8890989 155.730289,26.8890989 C157.957227,26.8890989 159.762759,25.0685935 159.762759,22.8304934 C159.762759,20.5820398 157.957227,18.7684367 155.730289,18.7684367 C153.50849,18.7684367 151.701244,20.5820398 151.701244,22.8304934 Z M171.28173,22.2487205 C173.182743,22.2487205 174.734144,19.9026182 174.734144,17.0309055 C174.734144,14.152231 173.182743,11.8078691 171.28173,11.8078691 C169.373994,11.8078691 167.824274,14.152231 167.824274,17.0309055 C167.824274,19.9026182 169.373994,22.2487205 171.28173,22.2487205 Z M208.131849,6.01522873 C208.131849,9.20744703 209.422968,11.8078691 211.011784,11.8078691 C212.597311,11.8078691 213.890074,9.20744703 213.890074,6.01522873 C213.890074,2.81256697 212.656521,0.206923134 211.072639,0.206923134 C209.480534,0.206923134 208.131849,2.81256697 208.131849,6.01522873 Z M182.795659,8.90133044 C182.795659,12.4215554 184.081513,15.2881529 185.671023,15.2881529 C187.262407,15.2881529 188.553884,12.4215554 188.553884,8.90133044 C188.553884,5.38650735 187.262407,2.52711233 185.671023,2.52711233 C184.081513,2.52711233 182.795659,5.38650735 182.795659,8.90133044 Z M220.799944,21.089511 C220.799944,23.643799 222.357202,25.7290043 224.259492,25.7290043 C226.163627,25.7290043 227.709814,23.643799 227.709814,21.089511 C227.709814,18.5246022 226.163627,16.4482475 224.259492,16.4482475 C222.357202,16.4482475 220.799944,18.5246022 220.799944,21.089511 Z M195.463754,12.9688808 C195.463754,17.3671525 196.791977,21.0886259 198.343839,21.0886259 C199.909314,21.0886259 201.221979,17.3671525 201.221979,12.9688808 C201.221979,8.56327254 199.909314,4.84730153 198.343839,4.84730153 C196.791977,4.84730153 195.463754,8.56327254 195.463754,12.9688808 Z" id="logo-dots"></path>
                        <path d="M0,37.6388241 L0,27 L42,27 L42,56 L0,56 L0,51.0528866 L3.01395376,51.0528866 L3.01395376,45.0856014 C3.01395376,43.795149 3.1269694,42.8499273 3.35300406,42.2499081 C3.57903872,41.6498888 3.92014045,41.1834424 4.37631949,40.850555 C4.83249852,40.5176676 5.34004146,40.3512264 5.89896353,40.3512264 C6.4003495,40.3512264 6.82775408,40.4827355 7.18119009,40.7457577 C7.5346261,41.0087798 7.79969914,41.4094716 7.97641714,41.9478451 C8.15313515,42.4862185 8.24149283,43.3554115 8.24149283,44.5554501 L8.24149283,51.0528866 L11.6319958,51.0528866 L11.6319958,44.9992977 C11.6319958,43.7170647 11.7429566,42.7862269 11.9648815,42.2067562 C12.1868064,41.6272855 12.5258533,41.1731682 12.9820324,40.8443905 C13.4382114,40.5156128 13.9539737,40.3512264 14.5293346,40.3512264 C15.2855233,40.3512264 15.8526563,40.6204091 16.2307506,41.1587826 C16.608845,41.697156 16.7978893,42.7266257 16.7978893,44.2472225 L16.7978893,51.0528866 L20.1883922,51.0528866 L20.1883922,43.1869198 C20.1883922,41.5759091 20.0301704,40.4128755 19.7137218,39.697784 C19.3972733,38.9826926 18.8774014,38.4032306 18.1540905,37.9593807 C17.4307796,37.5155308 16.5924091,37.2936092 15.6389538,37.2936092 C14.7183762,37.2936092 13.8697316,37.4990922 13.0929943,37.9100643 C12.316257,38.3210364 11.6607663,38.9210467 11.1265026,39.7101131 C10.7155305,38.9210467 10.1730554,38.3210364 9.49906119,37.9100643 C8.82506693,37.4990922 8.0688896,37.2936092 7.2305065,37.2936092 C6.40034284,37.2936092 5.63389136,37.4497763 4.93112906,37.7621151 C4.22836675,38.0744539 3.58931471,38.5470647 3.01395376,39.1799618 L3.01395376,37.6388241 L2.77555756e-17,37.6388241 L0,37.6388241 Z M21.9021374,37.6388241 L25.3419567,37.6388241 L28.8310924,46.0596004 L32.6777721,37.6388241 L36.1299206,37.6388241 L27.7214733,55.959869 L24.2446667,55.959869 L27.0063854,50.0542293 L21.9021374,37.6388241 Z" id="Rectangle-1"></path>
                        <path d="M146.164062,63.3530273 L145.987793,64.5776367 C145.523923,64.132322 145.087893,63.909668 144.679688,63.909668 C144.419921,63.909668 144.197267,64.0364571 144.011719,64.2900391 C143.826171,64.5436211 143.680827,65.0569623 143.575684,65.8300781 L143.417969,66.90625 L145.496094,66.90625 L145.356934,68.0473633 L143.278809,68.0473633 L142.01709,77 L140.746094,77 L142.01709,68.0473633 L140.746094,68.0473633 L140.885254,66.90625 L142.165527,66.90625 L142.286133,66.015625 C142.434571,64.9703724 142.592284,64.2714861 142.759277,63.9189453 C142.92627,63.5664045 143.173664,63.2834483 143.501465,63.0700684 C143.829266,62.8566884 144.191079,62.75 144.586914,62.75 C145.106448,62.75 145.632159,62.9510071 146.164062,63.3530273 L146.164062,63.3530273 Z M152.259277,66.6464844 C153.118982,66.6464844 153.907548,66.8521301 154.625,67.2634277 C155.342452,67.6747254 155.902179,68.2468225 156.304199,68.9797363 C156.706219,69.7126501 156.907227,70.5429641 156.907227,71.4707031 C156.907227,72.5283256 156.650556,73.510168 156.137207,74.4162598 C155.623858,75.3223515 154.934249,76.022784 154.068359,76.5175781 C153.20247,77.0123723 152.222173,77.2597656 151.127441,77.2597656 C149.772942,77.2597656 148.658126,76.8160038 147.782959,75.9284668 C146.907792,75.0409298 146.470215,73.9106514 146.470215,72.5375977 C146.470215,71.4614204 146.726885,70.4687545 147.240234,69.5595703 C147.753583,68.6503861 148.457108,67.937584 149.35083,67.4211426 C150.244552,66.9047012 151.214025,66.6464844 152.259277,66.6464844 L152.259277,66.6464844 Z M152.231445,67.8803711 C151.427405,67.8803711 150.671309,68.0813782 149.963135,68.4833984 C149.254961,68.8854187 148.710695,69.4374151 148.330322,70.1394043 C147.949949,70.8413935 147.759766,71.6160439 147.759766,72.4633789 C147.759766,73.5271863 148.087562,74.3915169 148.743164,75.0563965 C149.398766,75.7212761 150.246089,76.0537109 151.285156,76.0537109 C152.095382,76.0537109 152.829831,75.8604349 153.488525,75.473877 C154.14722,75.087319 154.671385,74.5291378 155.061035,73.7993164 C155.450686,73.069495 155.645508,72.2871135 155.645508,71.4521484 C155.645508,70.7532517 155.500164,70.1332221 155.209473,69.592041 C154.918781,69.0508599 154.50749,68.6302912 153.975586,68.3303223 C153.443682,68.0303533 152.862308,67.8803711 152.231445,67.8803711 L152.231445,67.8803711 Z M159.625488,66.90625 L160.915039,66.90625 L160.748047,68.1772461 C161.094403,67.6948218 161.511879,67.3190931 162.000488,67.0500488 C162.489097,66.7810045 162.990069,66.6464844 163.503418,66.6464844 C163.868329,66.6464844 164.248696,66.7330721 164.644531,66.90625 L164.032227,68.09375 C163.71061,67.9638665 163.44157,67.8989258 163.225098,67.8989258 C162.773598,67.8989258 162.326744,68.056639 161.884521,68.3720703 C161.442299,68.6875016 161.083579,69.1467255 160.80835,69.7497559 C160.53312,70.3527862 160.299643,71.3439059 160.10791,72.7231445 L159.51416,77 L158.252441,77 L159.625488,66.90625 Z M180.184082,72.2128906 L171.185059,72.2128906 C171.166504,73.4127664 171.478838,74.3559536 172.12207,75.0424805 C172.765303,75.7290073 173.621902,76.0722656 174.691895,76.0722656 C175.403161,76.0722656 176.061846,75.926922 176.667969,75.6362305 C177.274092,75.3455389 177.775063,74.9373399 178.170898,74.4116211 L179.135742,75.2001953 C178.647133,75.8248729 178.008549,76.3242983 177.219971,76.6984863 C176.431393,77.0726744 175.579432,77.2597656 174.664062,77.2597656 C173.080721,77.2597656 171.891687,76.7696175 171.096924,75.7893066 C170.302161,74.8089957 169.904785,73.7065491 169.904785,72.4819336 C169.904785,71.4799755 170.172279,70.5151414 170.707275,69.5874023 C171.242272,68.6596633 171.958166,67.937584 172.85498,67.4211426 C173.751795,66.9047012 174.722814,66.6464844 175.768066,66.6464844 C177.060716,66.6464844 178.130692,67.0840614 178.978027,67.9592285 C179.825362,68.8343957 180.249023,69.949212 180.249023,71.3037109 C180.249023,71.551108 180.227377,71.8541649 180.184082,72.2128906 L180.184082,72.2128906 Z M178.996582,71.090332 C178.959472,70.1378533 178.634769,69.3662953 178.022461,68.7756348 C177.410153,68.1849743 176.640141,67.8896484 175.712402,67.8896484 C174.704259,67.8896484 173.815189,68.1741508 173.045166,68.7431641 C172.275143,69.3121773 171.729331,70.0945588 171.407715,71.090332 L178.996582,71.090332 Z M183.486816,66.90625 L184.757812,66.90625 L184.553711,68.3349609 C184.943361,67.8092422 185.44124,67.3964045 186.047363,67.0964355 C186.653486,66.7964666 187.262692,66.6464844 187.875,66.6464844 C188.635746,66.6464844 189.309893,66.8722308 189.897461,67.3237305 C190.348961,67.6762713 190.686034,68.2019822 190.908691,68.9008789 C191.366376,68.1834274 191.930742,67.6283386 192.601807,67.2355957 C193.272871,66.8428529 193.954749,66.6464844 194.647461,66.6464844 C195.581385,66.6464844 196.348304,66.9464488 196.948242,67.5463867 C197.54818,68.1463246 197.848145,68.9225213 197.848145,69.875 C197.848145,70.3079449 197.807943,70.8367482 197.727539,71.4614258 L196.976074,77 L195.714355,77 L196.391602,72.1572266 C196.533855,71.1428986 196.60498,70.4007185 196.60498,69.9306641 C196.60498,69.343096 196.411704,68.8575866 196.025146,68.4741211 C195.638589,68.0906556 195.129886,67.8989258 194.499023,67.8989258 C193.831051,67.8989258 193.209476,68.1076639 192.634277,68.5251465 C192.059079,68.942629 191.65088,69.4358696 191.409668,70.0048828 C191.168456,70.5738961 190.986003,71.2913368 190.862305,72.1572266 L190.175781,77 L188.88623,77 L189.646973,71.4614258 C189.733562,70.8738577 189.776855,70.3914407 189.776855,70.0141602 C189.776855,69.3647428 189.585126,68.8452168 189.20166,68.4555664 C188.818195,68.065916 188.317223,67.8710938 187.69873,67.8710938 C187.179197,67.8710938 186.681317,67.9932442 186.205078,68.2375488 C185.728839,68.4818534 185.339194,68.8019186 185.036133,69.1977539 C184.733071,69.5935892 184.502686,70.0837373 184.344971,70.6682129 C184.187255,71.2526885 184.074382,71.7799456 184.006348,72.25 L183.338379,77 L182.048828,77 L183.486816,66.90625 Z M201.429199,66.90625 L202.746582,66.90625 L202.551758,68.418457 C203.720709,67.237136 205.056633,66.6464844 206.55957,66.6464844 C207.938809,66.6464844 209.069087,67.0887 209.950439,67.9731445 C210.831792,68.8575891 211.272461,69.9955985 211.272461,71.387207 C211.272461,72.995288 210.700364,74.3760522 209.556152,75.529541 C208.411941,76.6830299 207.063647,77.2597656 205.51123,77.2597656 C204.67008,77.2597656 203.930993,77.0819516 203.293945,76.7263184 C202.656898,76.3706851 202.115725,75.8186886 201.67041,75.0703125 L200.9375,80.6923828 L199.592285,80.6923828 L201.429199,66.90625 Z M206.42041,67.8339844 C205.59163,67.8339844 204.832442,68.0303529 204.142822,68.4230957 C203.453203,68.8158386 202.907391,69.3802047 202.505371,70.1162109 C202.103351,70.8522172 201.902344,71.6531532 201.902344,72.519043 C201.902344,73.5642956 202.234779,74.4147103 202.899658,75.0703125 C203.564538,75.7259147 204.422684,76.0537109 205.474121,76.0537109 C206.717291,76.0537109 207.781083,75.6053105 208.665527,74.7084961 C209.549972,73.8116817 209.992188,72.7107813 209.992188,71.4057617 C209.992188,70.3357694 209.662845,69.472985 209.00415,68.8173828 C208.345456,68.1617806 207.484218,67.8339844 206.42041,67.8339844 L206.42041,67.8339844 Z M214.584473,63.0097656 L215.855469,63.0097656 L213.907227,77 L212.626953,77 L214.584473,63.0097656 Z M222.609375,66.6464844 C223.46908,66.6464844 224.257646,66.8521301 224.975098,67.2634277 C225.692549,67.6747254 226.252277,68.2468225 226.654297,68.9797363 C227.056317,69.7126501 227.257324,70.5429641 227.257324,71.4707031 C227.257324,72.5283256 227.000654,73.510168 226.487305,74.4162598 C225.973956,75.3223515 225.284347,76.022784 224.418457,76.5175781 C223.552567,77.0123723 222.572271,77.2597656 221.477539,77.2597656 C220.12304,77.2597656 219.008224,76.8160038 218.133057,75.9284668 C217.25789,75.0409298 216.820312,73.9106514 216.820312,72.5375977 C216.820312,71.4614204 217.076983,70.4687545 217.590332,69.5595703 C218.103681,68.6503861 218.807206,67.937584 219.700928,67.4211426 C220.59465,66.9047012 221.564122,66.6464844 222.609375,66.6464844 L222.609375,66.6464844 Z M222.581543,67.8803711 C221.777502,67.8803711 221.021407,68.0813782 220.313232,68.4833984 C219.605058,68.8854187 219.060793,69.4374151 218.68042,70.1394043 C218.300047,70.8413935 218.109863,71.6160439 218.109863,72.4633789 C218.109863,73.5271863 218.437659,74.3915169 219.093262,75.0563965 C219.748864,75.7212761 220.596186,76.0537109 221.635254,76.0537109 C222.445479,76.0537109 223.179928,75.8604349 223.838623,75.473877 C224.497318,75.087319 225.021482,74.5291378 225.411133,73.7993164 C225.800783,73.069495 225.995605,72.2871135 225.995605,71.4521484 C225.995605,70.7532517 225.850262,70.1332221 225.55957,69.592041 C225.268879,69.0508599 224.857587,68.6302912 224.325684,68.3303223 C223.79378,68.0303533 223.212405,67.8803711 222.581543,67.8803711 L222.581543,67.8803711 Z M229.177734,66.90625 L230.513672,66.90625 L233.129883,74.355957 L237.453125,66.90625 L238.891113,66.90625 L230.894043,80.6923828 L229.4375,80.6923828 L232.294922,75.7661133 L229.177734,66.90625 Z M249.745605,72.2128906 L240.746582,72.2128906 C240.728027,73.4127664 241.040361,74.3559536 241.683594,75.0424805 C242.326826,75.7290073 243.183426,76.0722656 244.253418,76.0722656 C244.964685,76.0722656 245.623369,75.926922 246.229492,75.6362305 C246.835615,75.3455389 247.336587,74.9373399 247.732422,74.4116211 L248.697266,75.2001953 C248.208656,75.8248729 247.570072,76.3242983 246.781494,76.6984863 C245.992916,77.0726744 245.140955,77.2597656 244.225586,77.2597656 C242.642245,77.2597656 241.45321,76.7696175 240.658447,75.7893066 C239.863684,74.8089957 239.466309,73.7065491 239.466309,72.4819336 C239.466309,71.4799755 239.733803,70.5151414 240.268799,69.5874023 C240.803795,68.6596633 241.51969,67.937584 242.416504,67.4211426 C243.313318,66.9047012 244.284337,66.6464844 245.32959,66.6464844 C246.62224,66.6464844 247.692216,67.0840614 248.539551,67.9592285 C249.386886,68.8343957 249.810547,69.949212 249.810547,71.3037109 C249.810547,71.551108 249.7889,71.8541649 249.745605,72.2128906 L249.745605,72.2128906 Z M248.558105,71.090332 C248.520996,70.1378533 248.196292,69.3662953 247.583984,68.7756348 C246.971677,68.1849743 246.201665,67.8896484 245.273926,67.8896484 C244.265783,67.8896484 243.376713,68.1741508 242.606689,68.7431641 C241.836666,69.3121773 241.290854,70.0945588 240.969238,71.090332 L248.558105,71.090332 Z M262.09375,72.2128906 L253.094727,72.2128906 C253.076172,73.4127664 253.388506,74.3559536 254.031738,75.0424805 C254.674971,75.7290073 255.53157,76.0722656 256.601562,76.0722656 C257.312829,76.0722656 257.971514,75.926922 258.577637,75.6362305 C259.18376,75.3455389 259.684731,74.9373399 260.080566,74.4116211 L261.04541,75.2001953 C260.556801,75.8248729 259.918217,76.3242983 259.129639,76.6984863 C258.341061,77.0726744 257.4891,77.2597656 256.57373,77.2597656 C254.990389,77.2597656 253.801355,76.7696175 253.006592,75.7893066 C252.211829,74.8089957 251.814453,73.7065491 251.814453,72.4819336 C251.814453,71.4799755 252.081947,70.5151414 252.616943,69.5874023 C253.15194,68.6596633 253.867834,67.937584 254.764648,67.4211426 C255.661463,66.9047012 256.632482,66.6464844 257.677734,66.6464844 C258.970384,66.6464844 260.04036,67.0840614 260.887695,67.9592285 C261.73503,68.8343957 262.158691,69.949212 262.158691,71.3037109 C262.158691,71.551108 262.137044,71.8541649 262.09375,72.2128906 L262.09375,72.2128906 Z M260.90625,71.090332 C260.86914,70.1378533 260.544437,69.3662953 259.932129,68.7756348 C259.319821,68.1849743 258.549809,67.8896484 257.62207,67.8896484 C256.613927,67.8896484 255.724857,68.1741508 254.954834,68.7431641 C254.184811,69.3121773 253.638999,70.0945588 253.317383,71.090332 L260.90625,71.090332 Z M270.062988,68.0380859 L269.35791,69.0864258 C268.788897,68.2762004 268.11475,67.8710938 267.335449,67.8710938 C266.890134,67.8710938 266.509767,68.0164373 266.194336,68.3071289 C265.878905,68.5978205 265.721191,68.9194318 265.721191,69.2719727 C265.721191,69.5441094 265.817056,69.8038725 266.008789,70.0512695 C266.194337,70.2986666 266.617998,70.6357401 267.279785,71.0625 C268.244634,71.6871776 268.881672,72.231443 269.190918,72.6953125 C269.493979,73.1653669 269.645508,73.7065399 269.645508,74.3188477 C269.645508,75.1661826 269.350182,75.8681613 268.759521,76.4248047 C268.168861,76.9814481 267.400395,77.2597656 266.454102,77.2597656 C265.204746,77.2597656 264.153325,76.706223 263.299805,75.5991211 L264.088379,74.6806641 C264.836755,75.5898483 265.650061,76.0444336 266.52832,76.0444336 C267.029299,76.0444336 267.46533,75.8681658 267.836426,75.515625 C268.207521,75.1630842 268.393066,74.7548851 268.393066,74.2910156 C268.393066,73.9137351 268.253908,73.5519223 267.975586,73.2055664 C267.796223,72.982909 267.313806,72.6056342 266.52832,72.0737305 C265.680985,71.4923474 265.12435,71.0099303 264.858398,70.6264648 C264.592447,70.2491843 264.459473,69.8224308 264.459473,69.3461914 C264.459473,68.5978153 264.740883,67.9607774 265.303711,67.4350586 C265.866539,66.9093398 266.577795,66.6464844 267.4375,66.6464844 C267.944664,66.6464844 268.403888,66.7485341 268.815186,66.9526367 C269.226483,67.1567393 269.642413,67.5185521 270.062988,68.0380859 L270.062988,68.0380859 Z" id="for-employees"></path>
                    </g>
                </g>
            </g>
        </g>
    </g>
</svg>