<?xml version="1.0" encoding="UTF-8" standalone="no"?>
<svg width="272px" height="56px" viewBox="0 0 272 56" version="1.1" xmlns="http://www.w3.org/2000/svg" xmlns:xlink="http://www.w3.org/1999/xlink" xmlns:sketch="http://www.bohemiancoding.com/sketch/ns">
    <!-- Generator: Sketch 3.1 (8751) - http://www.bohemiancoding.com/sketch -->
    <title>logo-my-standard</title>
    <desc>Created with Sketch.</desc>
    <defs></defs>
    <g id="design" stroke="none" stroke-width="1" fill="none" fill-rule="evenodd" sketch:type="MSPage">
        <g id="Desktop-HD" sketch:type="MSArtboardGroup" transform="translate(-132.000000, -1118.000000)">
            <g id="sub-brands" sketch:type="MSLayerGroup" transform="translate(15.000000, 985.000000)">
                <g id="logo-box" transform="translate(43.000000, 83.000000)" sketch:type="MSShapeGroup">
                    <g id="logo-my-standard" transform="translate(74.000000, 50.000000)">
                        <path d="M0,37.6388241 L0,27 L42,27 L42,56 L0,56 L0,51.0528866 L3.01395376,51.0528866 L3.01395376,45.0856014 C3.01395376,43.795149 3.1269694,42.8499273 3.35300406,42.2499081 C3.57903872,41.6498888 3.92014045,41.1834424 4.37631949,40.850555 C4.83249852,40.5176676 5.34004146,40.3512264 5.89896353,40.3512264 C6.4003495,40.3512264 6.82775408,40.4827355 7.18119009,40.7457577 C7.5346261,41.0087798 7.79969914,41.4094716 7.97641714,41.9478451 C8.15313515,42.4862185 8.24149283,43.3554115 8.24149283,44.5554501 L8.24149283,51.0528866 L11.6319958,51.0528866 L11.6319958,44.9992977 C11.6319958,43.7170647 11.7429566,42.7862269 11.9648815,42.2067562 C12.1868064,41.6272855 12.5258533,41.1731682 12.9820324,40.8443905 C13.4382114,40.5156128 13.9539737,40.3512264 14.5293346,40.3512264 C15.2855233,40.3512264 15.8526563,40.6204091 16.2307506,41.1587826 C16.608845,41.697156 16.7978893,42.7266257 16.7978893,44.2472225 L16.7978893,51.0528866 L20.1883922,51.0528866 L20.1883922,43.1869198 C20.1883922,41.5759091 20.0301704,40.4128755 19.7137218,39.697784 C19.3972733,38.9826926 18.8774014,38.4032306 18.1540905,37.9593807 C17.4307796,37.5155308 16.5924091,37.2936092 15.6389538,37.2936092 C14.7183762,37.2936092 13.8697316,37.4990922 13.0929943,37.9100643 C12.316257,38.3210364 11.6607663,38.9210467 11.1265026,39.7101131 C10.7155305,38.9210467 10.1730554,38.3210364 9.49906119,37.9100643 C8.82506693,37.4990922 8.0688896,37.2936092 7.2305065,37.2936092 C6.40034284,37.2936092 5.63389136,37.4497763 4.93112906,37.7621151 C4.22836675,38.0744539 3.58931471,38.5470647 3.01395376,39.1799618 L3.01395376,37.6388241 L6.9388939e-17,37.6388241 L0,37.6388241 Z M21.9021374,37.6388241 L25.3419567,37.6388241 L28.8310924,46.0596004 L32.6777721,37.6388241 L36.1299206,37.6388241 L27.7214733,55.959869 L24.2446667,55.959869 L27.0063854,50.0542293 L21.9021374,37.6388241 Z" id="Rectangle-1" fill="#265B80"></path>
                        <path d="M71.0318801,35.726839 C68.5380131,33.1064946 65.6984796,31.7689892 62.5856704,31.7689892 C59.9289239,31.7689892 57.6522297,32.7056074 55.8243591,34.5314663 C54.0001081,36.3700806 53.0753142,38.6660708 53.0753142,41.3520149 C53.0753142,43.2197847 53.4807033,44.9126219 54.2914816,46.3594602 C55.1040696,47.8263428 56.2641339,48.9743379 57.7390988,49.8016233 C59.2068245,50.6216198 60.8754351,51.0461957 62.6815883,51.0461957 C64.2198952,51.0461957 65.6441864,50.750997 66.9200762,50.1788217 C68.1651999,49.6048241 69.5514859,48.5570508 71.0282605,47.0938126 C71.1784717,47.2487008 74.2713734,50.504998 74.4378725,50.6617085 C72.4489322,52.6023669 70.5414316,53.9672055 68.7696641,54.7234245 C66.9689401,55.492399 64.8877014,55.8914639 62.5929095,55.8914639 C58.3489922,55.8914639 54.8235548,54.506581 52.1251835,51.8024147 C49.4177634,49.0909596 48.0531947,45.5795524 48.0531947,41.3374372 C48.0531947,38.5950045 48.672137,36.1295483 49.9009727,33.9993797 C51.1352378,31.8801443 52.9232933,30.1362851 55.2144657,28.8334017 C57.5164967,27.5414517 60.0248418,26.8890989 62.6671101,26.8890989 C64.9184675,26.8890989 67.1191513,27.3719858 69.2040095,28.3304705 C71.2581017,29.2743776 73.0407279,30.6337496 74.5410296,32.3630311 L71.0318801,35.726839 M81.919356,49.6380181 L81.919356,49.6380181 C80.8502721,48.5574531 80.2992545,47.1501252 80.2992545,45.4264079 C80.2992545,43.7528288 80.855764,42.3576032 81.9394928,41.280496 C83.0323748,40.1964732 84.4144953,39.6501395 86.052903,39.6501395 C87.7206006,39.6501395 89.1228579,40.1912865 90.1974337,41.2597492 C91.2756707,42.3230251 91.8157045,43.7251663 91.8157045,45.4264079 C91.8157045,47.1207338 91.2646869,48.5297906 90.1608212,49.6190001 C89.0734311,50.7064808 87.6821575,51.2510855 86.0309355,51.2510855 C84.3815441,51.2510855 82.9994236,50.7064808 81.919356,49.6380181 C81.919356,49.6380181 82.9994236,50.7064808 81.919356,49.6380181 L81.919356,49.6380181 L81.919356,49.6380181 L81.919356,49.6380181 L81.919356,49.6380181 Z M79.0924227,37.6941959 C76.8365481,39.7688551 75.6926746,42.3768458 75.6926746,45.4666125 C75.6926746,48.3466021 76.7037455,50.8319265 78.7010975,52.8479193 C80.7002202,54.8550232 83.138477,55.8914639 85.9556641,55.8914639 C87.8786467,55.8914639 89.6564316,55.42391 91.2500635,54.5030245 C92.8436955,53.5910277 94.118601,52.305699 95.0411368,50.6879271 C95.9583605,49.0559329 96.4222845,47.2923837 96.4222845,45.431057 C96.4222845,43.580397 95.967214,41.8275144 95.0482196,40.2257424 C94.1309959,38.6239704 92.8436955,37.3386417 91.2040253,36.4088672 C89.5678965,35.4755372 87.7989651,35.0097611 85.9414985,35.0097611 C83.370439,35.0097611 81.0649848,35.9164245 79.0924227,37.6941959 L79.0924227,37.6941959 L79.0924227,37.6941959 L79.0924227,37.6941959 L79.0924227,37.6941959 Z M98.7255745,28.0491935 L98.7255745,55.8914639 L103.332154,55.8914639 L103.332154,28.0491935 L98.7255745,28.0491935 M113.017432,49.6380181 L113.017432,49.6380181 C111.937364,48.5574531 111.393669,47.1501252 111.393669,45.4264079 C111.393669,43.7528288 111.944687,42.3576032 113.033908,41.280496 C114.12679,40.1964732 115.50708,39.6501395 117.141826,39.6501395 C118.818677,39.6501395 120.20995,40.1912865 121.288187,41.2597492 C122.360932,42.3230251 122.910119,43.7251663 122.910119,45.4264079 C122.910119,47.1207338 122.357271,48.5297906 121.258897,49.6190001 C120.166015,50.7064808 118.771081,51.2510855 117.12352,51.2510855 C115.474128,51.2510855 114.092008,50.7064808 113.017432,49.6380181 C113.017432,49.6380181 114.092008,50.7064808 113.017432,49.6380181 L113.017432,49.6380181 L113.017432,49.6380181 L113.017432,49.6380181 L113.017432,49.6380181 Z M110.186257,37.6941959 C107.927227,39.7688551 106.787089,42.3768458 106.787089,45.4666125 C106.787089,48.3466021 107.799758,50.8319265 109.793228,52.8479193 C111.792009,54.8550232 114.228079,55.8914639 117.051867,55.8914639 C118.97098,55.8914639 120.746691,55.42391 122.341821,54.5030245 C123.928099,53.5910277 125.204557,52.305699 126.126936,50.6879271 C127.047543,49.0559329 127.516699,47.2923837 127.516699,45.431057 C127.516699,43.580397 127.052855,41.8275144 126.135788,40.2257424 C125.21695,38.6239704 123.928099,37.3386417 122.295791,36.4088672 C120.658171,35.4755372 118.889542,35.0097611 117.034163,35.0097611 C114.468854,35.0097611 112.162023,35.9164245 110.186257,37.6941959 L110.186257,37.6941959 L110.186257,37.6941959 L110.186257,37.6941959 L110.186257,37.6941959 Z M138.90775,35.5820623 L138.90775,35.5820623 C138.015287,35.9502306 137.000567,36.6410018 135.886298,37.6161009 L135.699422,37.7856041 L135.699422,35.5364969 L130.971634,35.5364969 L130.971634,55.8914639 L135.699422,55.8914639 L135.699422,47.7461964 C135.699422,45.5699938 135.771028,44.1993872 135.919481,43.5341326 C136.202415,42.2838185 136.715887,41.286848 137.44418,40.5760281 C138.182951,39.8615629 139.078908,39.5006851 140.109345,39.5006851 C140.902258,39.5006851 141.579902,39.7175763 142.128304,40.1513587 C142.662735,40.5960768 143.053952,41.2376374 143.272265,42.0632821 C143.487085,42.892572 143.591875,44.4964734 143.591875,46.9952789 L143.591875,55.8914639 L148.246309,55.8914639 L148.246309,42.3968207 C148.246309,40.0711636 147.682188,38.2831781 146.564426,37.1112365 C145.226603,35.7060001 143.584889,35.0097611 141.67072,35.0097611 C140.731101,35.0097611 139.805454,35.2011357 138.90775,35.5820623 M152.852889,35.0097611 L152.852889,55.8914639 L157.459469,55.8914639 L157.459469,35.0097611 L152.852889,35.0097611 M166.672629,45.4113047 C166.672629,43.736448 167.214126,42.3401644 168.29712,41.2651799 C169.374608,40.1833592 170.751295,39.6501395 172.384965,39.6501395 C174.05351,39.6501395 175.455896,40.1679779 176.548068,41.2395443 C177.643911,42.2957295 178.189079,43.690304 178.189079,45.3925053 C178.189079,47.1323053 177.643911,48.5559335 176.548068,49.6309181 C175.455896,50.7076116 174.064523,51.2510855 172.406992,51.2510855 C170.793514,51.2510855 169.418662,50.6922303 168.320983,49.6018644 C167.22514,48.5114985 166.672629,47.0981246 166.672629,45.4113047 C166.672629,45.4113047 166.672629,47.0981246 166.672629,45.4113047 L166.672629,45.4113047 L166.672629,45.4113047 L166.672629,45.4113047 L166.672629,45.4113047 Z M164.804159,37.9306395 L164.804159,37.9306395 C162.984734,39.8879658 162.066049,42.4230678 162.066049,45.4915013 C162.066049,48.4266018 163.017031,50.9208151 164.884903,52.8994747 C166.776101,54.8816898 169.02616,55.8914639 171.597399,55.8914639 C172.734989,55.8914639 173.813366,55.6905758 174.794851,55.2745772 C175.770954,54.8763565 176.759616,54.2008033 177.746484,53.2834733 L177.942063,53.0861407 L177.942063,55.377688 L182.795659,55.377688 L182.795659,35.5235371 L177.942063,35.5235371 L177.942063,37.9128618 L177.741101,37.6941959 C176.847537,36.8088658 175.864257,36.1297571 174.816383,35.6764254 C173.770303,35.2302048 172.641685,35.0097611 171.446678,35.0097611 C168.848523,35.0097611 166.616408,35.9964243 164.804159,37.9306395 L164.804159,37.9306395 L164.804159,37.9306395 L164.804159,37.9306395 L164.804159,37.9306395 Z M187.402239,28.0491935 L187.402239,55.8914639 L192.008819,55.8914639 L192.008819,28.0491935 L187.402239,28.0491935 M204.676914,26.8890989 L204.676914,55.8914639 L217.345009,55.8914639 L217.345009,50.9525878 L209.691707,50.9525878 L209.691707,26.8890989 L204.676914,26.8890989 M234.551543,27.8570666 C233.763317,28.4987119 233.288171,29.3878488 233.153731,30.4933119 C233.08559,30.9809623 233.034023,32.5942418 233.026657,35.2891518 L233.026657,35.4174808 L231.164749,35.4174808 L231.164749,39.5643424 L233.026657,39.5643424 L233.026657,55.8914639 L238.012003,55.8914639 L238.012003,39.5643424 L241.308556,39.5643424 L241.308556,35.4174808 L238.012003,35.4174808 L238.024894,32.6987383 C238.024894,32.0589263 238.137235,31.6427735 238.363758,31.430114 C238.682363,31.1477901 239.159351,31.0047948 239.79472,31.0047948 C240.249607,31.0047948 240.840777,31.120291 241.529554,31.3072847 L241.529554,27.5985752 C240.223824,27.1329241 239.019385,26.8890989 237.978853,26.8890989 C236.507375,26.8890989 235.350819,27.2135881 234.551543,27.8570666 M253.136656,38.4900449 C254.480121,38.4900449 255.682169,38.8022401 256.701099,39.4174029 C257.721842,40.0371795 258.408985,40.856884 258.75709,41.833455 L258.804229,41.9703287 L247.287779,41.9703287 L247.369366,41.8211517 C247.953166,40.740003 248.602235,39.9695116 249.285752,39.5250564 C250.389896,38.8437636 251.689848,38.4900449 253.136656,38.4900449 C253.136656,38.4900449 251.689848,38.4900449 253.136656,38.4900449 L253.136656,38.4900449 L253.136656,38.4900449 L253.136656,38.4900449 L253.136656,38.4900449 Z M245.600937,38.0053059 C243.665043,39.9928543 242.681199,42.5368452 242.681199,45.5590566 C242.681199,48.4977127 243.665043,50.9848149 245.608002,52.9421412 C247.54213,54.8959119 250.087407,55.8914639 253.185544,55.8914639 C255.174427,55.8914639 256.912493,55.5287986 258.357348,54.8212455 C259.768643,54.1279147 260.98211,53.0505852 262.00128,51.621257 C261.74163,51.5057019 258.115361,49.793708 257.984653,49.731486 C256.633413,51.0328147 255.011925,51.6959234 253.144918,51.6959234 C251.553458,51.6959234 250.219881,51.2674805 249.197178,50.3999281 C248.178007,49.5412645 247.527999,48.3626021 247.298377,46.9119406 L247.271882,46.7732744 L263.387847,46.7732744 C263.400211,46.590164 263.410809,45.928833 263.410809,45.928833 C263.410809,42.6648448 262.430497,39.9928543 260.484005,38.0053059 C258.55341,36.0159797 256.006367,35.0097611 252.895866,35.0097611 C249.992025,35.0097611 247.527999,36.0159797 245.600937,38.0053059 L245.600937,38.0053059 L245.600937,38.0053059 L245.600937,38.0053059 L245.600937,38.0053059 Z M221.951589,35.0097611 L221.951589,55.8914639 L226.558169,55.8914639 L226.558169,35.0097611 L221.951589,35.0097611 M267.513239,52.2512018 L267.883794,52.2512018 C268.312857,52.2512018 268.661959,52.1043034 268.661959,51.7441006 C268.661959,51.4261562 268.437676,51.2168763 267.944253,51.2168763 C267.739473,51.2168763 267.595151,51.2349871 267.513239,51.2571224 L267.513239,52.2512018 L267.513239,52.2512018 L267.513239,52.2512018 L267.513239,52.2512018 Z M267.495687,54.1991143 L266.713621,54.1991143 L266.713621,50.7278859 C267.019816,50.6876398 267.45083,50.6232459 268.004712,50.6232459 C268.640506,50.6232459 268.929148,50.7278859 269.155382,50.8969196 C269.360162,51.0458303 269.502533,51.2993809 269.502533,51.6374483 C269.502533,52.062045 269.196338,52.3357186 268.80628,52.4645062 L268.80628,52.5047524 C269.133929,52.6114046 269.295802,52.8870906 269.401118,53.3519333 C269.502533,53.8811699 269.584445,54.0703267 269.644904,54.1991143 L268.825783,54.1991143 C268.724368,54.0703267 268.661959,53.7745177 268.558594,53.3519333 C268.500085,52.9917305 268.293354,52.8206845 267.862341,52.8206845 L267.495687,52.8206845 L267.495687,54.1991143 L267.495687,54.1991143 L267.495687,54.1991143 L267.495687,54.1991143 Z M265.422531,52.4001124 C265.422531,53.9455637 266.549797,55.1710583 268.045668,55.1710583 C269.502533,55.1931936 270.608346,53.9455637 270.608346,52.4202355 C270.608346,50.8767965 269.502533,49.6291666 268.004712,49.6291666 C266.549797,49.6291666 265.422531,50.8767965 265.422531,52.4001124 C265.422531,52.4001124 265.422531,50.8767965 265.422531,52.4001124 L265.422531,52.4001124 L265.422531,52.4001124 L265.422531,52.4001124 L265.422531,52.4001124 Z M271.472324,52.4001124 C271.472324,54.3460127 269.955,55.8914639 268.026165,55.8914639 C266.099281,55.8914639 264.562454,54.3460127 264.562454,52.4001124 C264.562454,50.4542122 266.099281,48.9308963 268.045668,48.9308963 C269.955,48.9308963 271.472324,50.4542122 271.472324,52.4001124 L271.472324,52.4001124 L271.472324,52.4001124 L271.472324,52.4001124 L271.472324,52.4001124 Z" id="logo" fill="#265B80"></path>
                        <path d="M151.701244,22.8304934 C151.701244,25.0685935 153.50849,26.8890989 155.730289,26.8890989 C157.957227,26.8890989 159.762759,25.0685935 159.762759,22.8304934 C159.762759,20.5820398 157.957227,18.7684367 155.730289,18.7684367 C153.50849,18.7684367 151.701244,20.5820398 151.701244,22.8304934 Z M171.28173,22.2487205 C173.182743,22.2487205 174.734144,19.9026182 174.734144,17.0309055 C174.734144,14.152231 173.182743,11.8078691 171.28173,11.8078691 C169.373994,11.8078691 167.824274,14.152231 167.824274,17.0309055 C167.824274,19.9026182 169.373994,22.2487205 171.28173,22.2487205 Z M208.131849,6.01522873 C208.131849,9.20744703 209.422968,11.8078691 211.011784,11.8078691 C212.597311,11.8078691 213.890074,9.20744703 213.890074,6.01522873 C213.890074,2.81256697 212.656521,0.206923134 211.072639,0.206923134 C209.480534,0.206923134 208.131849,2.81256697 208.131849,6.01522873 Z M182.795659,8.90133044 C182.795659,12.4215554 184.081513,15.2881529 185.671023,15.2881529 C187.262407,15.2881529 188.553884,12.4215554 188.553884,8.90133044 C188.553884,5.38650735 187.262407,2.52711233 185.671023,2.52711233 C184.081513,2.52711233 182.795659,5.38650735 182.795659,8.90133044 Z M220.799944,21.089511 C220.799944,23.643799 222.357202,25.7290043 224.259492,25.7290043 C226.163627,25.7290043 227.709814,23.643799 227.709814,21.089511 C227.709814,18.5246022 226.163627,16.4482475 224.259492,16.4482475 C222.357202,16.4482475 220.799944,18.5246022 220.799944,21.089511 Z M195.463754,12.9688808 C195.463754,17.3671525 196.791977,21.0886259 198.343839,21.0886259 C199.909314,21.0886259 201.221979,17.3671525 201.221979,12.9688808 C201.221979,8.56327254 199.909314,4.84730153 198.343839,4.84730153 C196.791977,4.84730153 195.463754,8.56327254 195.463754,12.9688808 Z" id="logo-dots" fill="#5B7183"></path>
                    </g>
                </g>
            </g>
        </g>
    </g>
</svg>