<?xml version="1.0" encoding="UTF-8" standalone="no"?>
<svg width="272px" height="81px" viewBox="0 0 272 81" version="1.1" xmlns="http://www.w3.org/2000/svg" xmlns:xlink="http://www.w3.org/1999/xlink" xmlns:sketch="http://www.bohemiancoding.com/sketch/ns">
    <!-- Generator: Sketch 3.1 (8751) - http://www.bohemiancoding.com/sketch -->
    <title>logo-my-ph</title>
    <desc>Created with Sketch.</desc>
    <defs></defs>
    <g id="design" stroke="none" stroke-width="1" fill="none" fill-rule="evenodd" sketch:type="MSPage">
        <g id="Desktop-HD" sketch:type="MSArtboardGroup" transform="translate(-1025.000000, -1118.000000)" fill="#FFFFFF">
            <g id="sub-brands" sketch:type="MSLayerGroup" transform="translate(15.000000, 985.000000)">
                <g id="logo-box-2" transform="translate(936.000000, 83.000000)" sketch:type="MSShapeGroup">
                    <g id="logo-my-ph" transform="translate(74.000000, 50.000000)">
                        <path d="M0,37.6388241 L0,27 L42,27 L42,56 L0,56 L0,51.0528866 L3.01395376,51.0528866 L3.01395376,45.0856014 C3.01395376,43.795149 3.1269694,42.8499273 3.35300406,42.2499081 C3.57903872,41.6498888 3.92014045,41.1834424 4.37631949,40.850555 C4.83249852,40.5176676 5.34004146,40.3512264 5.89896353,40.3512264 C6.4003495,40.3512264 6.82775408,40.4827355 7.18119009,40.7457577 C7.5346261,41.0087798 7.79969914,41.4094716 7.97641714,41.9478451 C8.15313515,42.4862185 8.24149283,43.3554115 8.24149283,44.5554501 L8.24149283,51.0528866 L11.6319958,51.0528866 L11.6319958,44.9992977 C11.6319958,43.7170647 11.7429566,42.7862269 11.9648815,42.2067562 C12.1868064,41.6272855 12.5258533,41.1731682 12.9820324,40.8443905 C13.4382114,40.5156128 13.9539737,40.3512264 14.5293346,40.3512264 C15.2855233,40.3512264 15.8526563,40.6204091 16.2307506,41.1587826 C16.608845,41.697156 16.7978893,42.7266257 16.7978893,44.2472225 L16.7978893,51.0528866 L20.1883922,51.0528866 L20.1883922,43.1869198 C20.1883922,41.5759091 20.0301704,40.4128755 19.7137218,39.697784 C19.3972733,38.9826926 18.8774014,38.4032306 18.1540905,37.9593807 C17.4307796,37.5155308 16.5924091,37.2936092 15.6389538,37.2936092 C14.7183762,37.2936092 13.8697316,37.4990922 13.0929943,37.9100643 C12.316257,38.3210364 11.6607663,38.9210467 11.1265026,39.7101131 C10.7155305,38.9210467 10.1730554,38.3210364 9.49906119,37.9100643 C8.82506693,37.4990922 8.0688896,37.2936092 7.2305065,37.2936092 C6.40034284,37.2936092 5.63389136,37.4497763 4.93112906,37.7621151 C4.22836675,38.0744539 3.58931471,38.5470647 3.01395376,39.1799618 L3.01395376,37.6388241 L6.9388939e-17,37.6388241 L0,37.6388241 Z M21.9021374,37.6388241 L25.3419567,37.6388241 L28.8310924,46.0596004 L32.6777721,37.6388241 L36.1299206,37.6388241 L27.7214733,55.959869 L24.2446667,55.959869 L27.0063854,50.0542293 L21.9021374,37.6388241 Z" id="Rectangle-1"></path>
                        <path d="M71.0318801,35.726839 C68.5380131,33.1064946 65.6984796,31.7689892 62.5856704,31.7689892 C59.9289239,31.7689892 57.6522297,32.7056074 55.8243591,34.5314663 C54.0001081,36.3700806 53.0753142,38.6660708 53.0753142,41.3520149 C53.0753142,43.2197847 53.4807033,44.9126219 54.2914816,46.3594602 C55.1040696,47.8263428 56.2641339,48.9743379 57.7390988,49.8016233 C59.2068245,50.6216198 60.8754351,51.0461957 62.6815883,51.0461957 C64.2198952,51.0461957 65.6441864,50.750997 66.9200762,50.1788217 C68.1651999,49.6048241 69.5514859,48.5570508 71.0282605,47.0938126 C71.1784717,47.2487008 74.2713734,50.504998 74.4378725,50.6617085 C72.4489322,52.6023669 70.5414316,53.9672055 68.7696641,54.7234245 C66.9689401,55.492399 64.8877014,55.8914639 62.5929095,55.8914639 C58.3489922,55.8914639 54.8235548,54.506581 52.1251835,51.8024147 C49.4177634,49.0909596 48.0531947,45.5795524 48.0531947,41.3374372 C48.0531947,38.5950045 48.672137,36.1295483 49.9009727,33.9993797 C51.1352378,31.8801443 52.9232933,30.1362851 55.2144657,28.8334017 C57.5164967,27.5414517 60.0248418,26.8890989 62.6671101,26.8890989 C64.9184675,26.8890989 67.1191513,27.3719858 69.2040095,28.3304705 C71.2581017,29.2743776 73.0407279,30.6337496 74.5410296,32.3630311 L71.0318801,35.726839 M81.919356,49.6380181 L81.919356,49.6380181 C80.8502721,48.5574531 80.2992545,47.1501252 80.2992545,45.4264079 C80.2992545,43.7528288 80.855764,42.3576032 81.9394928,41.280496 C83.0323748,40.1964732 84.4144953,39.6501395 86.052903,39.6501395 C87.7206006,39.6501395 89.1228579,40.1912865 90.1974337,41.2597492 C91.2756707,42.3230251 91.8157045,43.7251663 91.8157045,45.4264079 C91.8157045,47.1207338 91.2646869,48.5297906 90.1608212,49.6190001 C89.0734311,50.7064808 87.6821575,51.2510855 86.0309355,51.2510855 C84.3815441,51.2510855 82.9994236,50.7064808 81.919356,49.6380181 C81.919356,49.6380181 82.9994236,50.7064808 81.919356,49.6380181 L81.919356,49.6380181 L81.919356,49.6380181 L81.919356,49.6380181 L81.919356,49.6380181 Z M79.0924227,37.6941959 C76.8365481,39.7688551 75.6926746,42.3768458 75.6926746,45.4666125 C75.6926746,48.3466021 76.7037455,50.8319265 78.7010975,52.8479193 C80.7002202,54.8550232 83.138477,55.8914639 85.9556641,55.8914639 C87.8786467,55.8914639 89.6564316,55.42391 91.2500635,54.5030245 C92.8436955,53.5910277 94.118601,52.305699 95.0411368,50.6879271 C95.9583605,49.0559329 96.4222845,47.2923837 96.4222845,45.431057 C96.4222845,43.580397 95.967214,41.8275144 95.0482196,40.2257424 C94.1309959,38.6239704 92.8436955,37.3386417 91.2040253,36.4088672 C89.5678965,35.4755372 87.7989651,35.0097611 85.9414985,35.0097611 C83.370439,35.0097611 81.0649848,35.9164245 79.0924227,37.6941959 L79.0924227,37.6941959 L79.0924227,37.6941959 L79.0924227,37.6941959 L79.0924227,37.6941959 Z M98.7255745,28.0491935 L98.7255745,55.8914639 L103.332154,55.8914639 L103.332154,28.0491935 L98.7255745,28.0491935 M113.017432,49.6380181 L113.017432,49.6380181 C111.937364,48.5574531 111.393669,47.1501252 111.393669,45.4264079 C111.393669,43.7528288 111.944687,42.3576032 113.033908,41.280496 C114.12679,40.1964732 115.50708,39.6501395 117.141826,39.6501395 C118.818677,39.6501395 120.20995,40.1912865 121.288187,41.2597492 C122.360932,42.3230251 122.910119,43.7251663 122.910119,45.4264079 C122.910119,47.1207338 122.357271,48.5297906 121.258897,49.6190001 C120.166015,50.7064808 118.771081,51.2510855 117.12352,51.2510855 C115.474128,51.2510855 114.092008,50.7064808 113.017432,49.6380181 C113.017432,49.6380181 114.092008,50.7064808 113.017432,49.6380181 L113.017432,49.6380181 L113.017432,49.6380181 L113.017432,49.6380181 L113.017432,49.6380181 Z M110.186257,37.6941959 C107.927227,39.7688551 106.787089,42.3768458 106.787089,45.4666125 C106.787089,48.3466021 107.799758,50.8319265 109.793228,52.8479193 C111.792009,54.8550232 114.228079,55.8914639 117.051867,55.8914639 C118.97098,55.8914639 120.746691,55.42391 122.341821,54.5030245 C123.928099,53.5910277 125.204557,52.305699 126.126936,50.6879271 C127.047543,49.0559329 127.516699,47.2923837 127.516699,45.431057 C127.516699,43.580397 127.052855,41.8275144 126.135788,40.2257424 C125.21695,38.6239704 123.928099,37.3386417 122.295791,36.4088672 C120.658171,35.4755372 118.889542,35.0097611 117.034163,35.0097611 C114.468854,35.0097611 112.162023,35.9164245 110.186257,37.6941959 L110.186257,37.6941959 L110.186257,37.6941959 L110.186257,37.6941959 L110.186257,37.6941959 Z M138.90775,35.5820623 L138.90775,35.5820623 C138.015287,35.9502306 137.000567,36.6410018 135.886298,37.6161009 L135.699422,37.7856041 L135.699422,35.5364969 L130.971634,35.5364969 L130.971634,55.8914639 L135.699422,55.8914639 L135.699422,47.7461964 C135.699422,45.5699938 135.771028,44.1993872 135.919481,43.5341326 C136.202415,42.2838185 136.715887,41.286848 137.44418,40.5760281 C138.182951,39.8615629 139.078908,39.5006851 140.109345,39.5006851 C140.902258,39.5006851 141.579902,39.7175763 142.128304,40.1513587 C142.662735,40.5960768 143.053952,41.2376374 143.272265,42.0632821 C143.487085,42.892572 143.591875,44.4964734 143.591875,46.9952789 L143.591875,55.8914639 L148.246309,55.8914639 L148.246309,42.3968207 C148.246309,40.0711636 147.682188,38.2831781 146.564426,37.1112365 C145.226603,35.7060001 143.584889,35.0097611 141.67072,35.0097611 C140.731101,35.0097611 139.805454,35.2011357 138.90775,35.5820623 M152.852889,35.0097611 L152.852889,55.8914639 L157.459469,55.8914639 L157.459469,35.0097611 L152.852889,35.0097611 M166.672629,45.4113047 C166.672629,43.736448 167.214126,42.3401644 168.29712,41.2651799 C169.374608,40.1833592 170.751295,39.6501395 172.384965,39.6501395 C174.05351,39.6501395 175.455896,40.1679779 176.548068,41.2395443 C177.643911,42.2957295 178.189079,43.690304 178.189079,45.3925053 C178.189079,47.1323053 177.643911,48.5559335 176.548068,49.6309181 C175.455896,50.7076116 174.064523,51.2510855 172.406992,51.2510855 C170.793514,51.2510855 169.418662,50.6922303 168.320983,49.6018644 C167.22514,48.5114985 166.672629,47.0981246 166.672629,45.4113047 C166.672629,45.4113047 166.672629,47.0981246 166.672629,45.4113047 L166.672629,45.4113047 L166.672629,45.4113047 L166.672629,45.4113047 L166.672629,45.4113047 Z M164.804159,37.9306395 L164.804159,37.9306395 C162.984734,39.8879658 162.066049,42.4230678 162.066049,45.4915013 C162.066049,48.4266018 163.017031,50.9208151 164.884903,52.8994747 C166.776101,54.8816898 169.02616,55.8914639 171.597399,55.8914639 C172.734989,55.8914639 173.813366,55.6905758 174.794851,55.2745772 C175.770954,54.8763565 176.759616,54.2008033 177.746484,53.2834733 L177.942063,53.0861407 L177.942063,55.377688 L182.795659,55.377688 L182.795659,35.5235371 L177.942063,35.5235371 L177.942063,37.9128618 L177.741101,37.6941959 C176.847537,36.8088658 175.864257,36.1297571 174.816383,35.6764254 C173.770303,35.2302048 172.641685,35.0097611 171.446678,35.0097611 C168.848523,35.0097611 166.616408,35.9964243 164.804159,37.9306395 L164.804159,37.9306395 L164.804159,37.9306395 L164.804159,37.9306395 L164.804159,37.9306395 Z M187.402239,28.0491935 L187.402239,55.8914639 L192.008819,55.8914639 L192.008819,28.0491935 L187.402239,28.0491935 M204.676914,26.8890989 L204.676914,55.8914639 L217.345009,55.8914639 L217.345009,50.9525878 L209.691707,50.9525878 L209.691707,26.8890989 L204.676914,26.8890989 M234.551543,27.8570666 C233.763317,28.4987119 233.288171,29.3878488 233.153731,30.4933119 C233.08559,30.9809623 233.034023,32.5942418 233.026657,35.2891518 L233.026657,35.4174808 L231.164749,35.4174808 L231.164749,39.5643424 L233.026657,39.5643424 L233.026657,55.8914639 L238.012003,55.8914639 L238.012003,39.5643424 L241.308556,39.5643424 L241.308556,35.4174808 L238.012003,35.4174808 L238.024894,32.6987383 C238.024894,32.0589263 238.137235,31.6427735 238.363758,31.430114 C238.682363,31.1477901 239.159351,31.0047948 239.79472,31.0047948 C240.249607,31.0047948 240.840777,31.120291 241.529554,31.3072847 L241.529554,27.5985752 C240.223824,27.1329241 239.019385,26.8890989 237.978853,26.8890989 C236.507375,26.8890989 235.350819,27.2135881 234.551543,27.8570666 M253.136656,38.4900449 C254.480121,38.4900449 255.682169,38.8022401 256.701099,39.4174029 C257.721842,40.0371795 258.408985,40.856884 258.75709,41.833455 L258.804229,41.9703287 L247.287779,41.9703287 L247.369366,41.8211517 C247.953166,40.740003 248.602235,39.9695116 249.285752,39.5250564 C250.389896,38.8437636 251.689848,38.4900449 253.136656,38.4900449 C253.136656,38.4900449 251.689848,38.4900449 253.136656,38.4900449 L253.136656,38.4900449 L253.136656,38.4900449 L253.136656,38.4900449 L253.136656,38.4900449 Z M245.600937,38.0053059 C243.665043,39.9928543 242.681199,42.5368452 242.681199,45.5590566 C242.681199,48.4977127 243.665043,50.9848149 245.608002,52.9421412 C247.54213,54.8959119 250.087407,55.8914639 253.185544,55.8914639 C255.174427,55.8914639 256.912493,55.5287986 258.357348,54.8212455 C259.768643,54.1279147 260.98211,53.0505852 262.00128,51.621257 C261.74163,51.5057019 258.115361,49.793708 257.984653,49.731486 C256.633413,51.0328147 255.011925,51.6959234 253.144918,51.6959234 C251.553458,51.6959234 250.219881,51.2674805 249.197178,50.3999281 C248.178007,49.5412645 247.527999,48.3626021 247.298377,46.9119406 L247.271882,46.7732744 L263.387847,46.7732744 C263.400211,46.590164 263.410809,45.928833 263.410809,45.928833 C263.410809,42.6648448 262.430497,39.9928543 260.484005,38.0053059 C258.55341,36.0159797 256.006367,35.0097611 252.895866,35.0097611 C249.992025,35.0097611 247.527999,36.0159797 245.600937,38.0053059 L245.600937,38.0053059 L245.600937,38.0053059 L245.600937,38.0053059 L245.600937,38.0053059 Z M221.951589,35.0097611 L221.951589,55.8914639 L226.558169,55.8914639 L226.558169,35.0097611 L221.951589,35.0097611 M267.513239,52.2512018 L267.883794,52.2512018 C268.312857,52.2512018 268.661959,52.1043034 268.661959,51.7441006 C268.661959,51.4261562 268.437676,51.2168763 267.944253,51.2168763 C267.739473,51.2168763 267.595151,51.2349871 267.513239,51.2571224 L267.513239,52.2512018 L267.513239,52.2512018 L267.513239,52.2512018 L267.513239,52.2512018 Z M267.495687,54.1991143 L266.713621,54.1991143 L266.713621,50.7278859 C267.019816,50.6876398 267.45083,50.6232459 268.004712,50.6232459 C268.640506,50.6232459 268.929148,50.7278859 269.155382,50.8969196 C269.360162,51.0458303 269.502533,51.2993809 269.502533,51.6374483 C269.502533,52.062045 269.196338,52.3357186 268.80628,52.4645062 L268.80628,52.5047524 C269.133929,52.6114046 269.295802,52.8870906 269.401118,53.3519333 C269.502533,53.8811699 269.584445,54.0703267 269.644904,54.1991143 L268.825783,54.1991143 C268.724368,54.0703267 268.661959,53.7745177 268.558594,53.3519333 C268.500085,52.9917305 268.293354,52.8206845 267.862341,52.8206845 L267.495687,52.8206845 L267.495687,54.1991143 L267.495687,54.1991143 L267.495687,54.1991143 L267.495687,54.1991143 Z M265.422531,52.4001124 C265.422531,53.9455637 266.549797,55.1710583 268.045668,55.1710583 C269.502533,55.1931936 270.608346,53.9455637 270.608346,52.4202355 C270.608346,50.8767965 269.502533,49.6291666 268.004712,49.6291666 C266.549797,49.6291666 265.422531,50.8767965 265.422531,52.4001124 C265.422531,52.4001124 265.422531,50.8767965 265.422531,52.4001124 L265.422531,52.4001124 L265.422531,52.4001124 L265.422531,52.4001124 L265.422531,52.4001124 Z M271.472324,52.4001124 C271.472324,54.3460127 269.955,55.8914639 268.026165,55.8914639 C266.099281,55.8914639 264.562454,54.3460127 264.562454,52.4001124 C264.562454,50.4542122 266.099281,48.9308963 268.045668,48.9308963 C269.955,48.9308963 271.472324,50.4542122 271.472324,52.4001124 L271.472324,52.4001124 L271.472324,52.4001124 L271.472324,52.4001124 L271.472324,52.4001124 Z" id="logo"></path>
                        <path d="M151.701244,22.8304934 C151.701244,25.0685935 153.50849,26.8890989 155.730289,26.8890989 C157.957227,26.8890989 159.762759,25.0685935 159.762759,22.8304934 C159.762759,20.5820398 157.957227,18.7684367 155.730289,18.7684367 C153.50849,18.7684367 151.701244,20.5820398 151.701244,22.8304934 Z M171.28173,22.2487205 C173.182743,22.2487205 174.734144,19.9026182 174.734144,17.0309055 C174.734144,14.152231 173.182743,11.8078691 171.28173,11.8078691 C169.373994,11.8078691 167.824274,14.152231 167.824274,17.0309055 C167.824274,19.9026182 169.373994,22.2487205 171.28173,22.2487205 Z M208.131849,6.01522873 C208.131849,9.20744703 209.422968,11.8078691 211.011784,11.8078691 C212.597311,11.8078691 213.890074,9.20744703 213.890074,6.01522873 C213.890074,2.81256697 212.656521,0.206923134 211.072639,0.206923134 C209.480534,0.206923134 208.131849,2.81256697 208.131849,6.01522873 Z M182.795659,8.90133044 C182.795659,12.4215554 184.081513,15.2881529 185.671023,15.2881529 C187.262407,15.2881529 188.553884,12.4215554 188.553884,8.90133044 C188.553884,5.38650735 187.262407,2.52711233 185.671023,2.52711233 C184.081513,2.52711233 182.795659,5.38650735 182.795659,8.90133044 Z M220.799944,21.089511 C220.799944,23.643799 222.357202,25.7290043 224.259492,25.7290043 C226.163627,25.7290043 227.709814,23.643799 227.709814,21.089511 C227.709814,18.5246022 226.163627,16.4482475 224.259492,16.4482475 C222.357202,16.4482475 220.799944,18.5246022 220.799944,21.089511 Z M195.463754,12.9688808 C195.463754,17.3671525 196.791977,21.0886259 198.343839,21.0886259 C199.909314,21.0886259 201.221979,17.3671525 201.221979,12.9688808 C201.221979,8.56327254 199.909314,4.84730153 198.343839,4.84730153 C196.791977,4.84730153 195.463754,8.56327254 195.463754,12.9688808 Z" id="logo-dots"></path>
                        <path d="M126.022949,63.3530273 L125.84668,64.5776367 C125.38281,64.132322 124.946779,63.909668 124.538574,63.909668 C124.278807,63.909668 124.056153,64.0364571 123.870605,64.2900391 C123.685058,64.5436211 123.539714,65.0569623 123.43457,65.8300781 L123.276855,66.90625 L125.35498,66.90625 L125.21582,68.0473633 L123.137695,68.0473633 L121.875977,77 L120.60498,77 L121.875977,68.0473633 L120.60498,68.0473633 L120.744141,66.90625 L122.024414,66.90625 L122.14502,66.015625 C122.293458,64.9703724 122.451171,64.2714861 122.618164,63.9189453 C122.785157,63.5664045 123.03255,63.2834483 123.360352,63.0700684 C123.688153,62.8566884 124.049965,62.75 124.445801,62.75 C124.965335,62.75 125.491046,62.9510071 126.022949,63.3530273 L126.022949,63.3530273 Z M132.118164,66.6464844 C132.977869,66.6464844 133.766435,66.8521301 134.483887,67.2634277 C135.201338,67.6747254 135.761066,68.2468225 136.163086,68.9797363 C136.565106,69.7126501 136.766113,70.5429641 136.766113,71.4707031 C136.766113,72.5283256 136.509443,73.510168 135.996094,74.4162598 C135.482745,75.3223515 134.793136,76.022784 133.927246,76.5175781 C133.061356,77.0123723 132.08106,77.2597656 130.986328,77.2597656 C129.631829,77.2597656 128.517013,76.8160038 127.641846,75.9284668 C126.766679,75.0409298 126.329102,73.9106514 126.329102,72.5375977 C126.329102,71.4614204 126.585772,70.4687545 127.099121,69.5595703 C127.61247,68.6503861 128.315995,67.937584 129.209717,67.4211426 C130.103439,66.9047012 131.072911,66.6464844 132.118164,66.6464844 L132.118164,66.6464844 Z M132.090332,67.8803711 C131.286292,67.8803711 130.530196,68.0813782 129.822021,68.4833984 C129.113847,68.8854187 128.569582,69.4374151 128.189209,70.1394043 C127.808836,70.8413935 127.618652,71.6160439 127.618652,72.4633789 C127.618652,73.5271863 127.946449,74.3915169 128.602051,75.0563965 C129.257653,75.7212761 130.104975,76.0537109 131.144043,76.0537109 C131.954268,76.0537109 132.688717,75.8604349 133.347412,75.473877 C134.006107,75.087319 134.530271,74.5291378 134.919922,73.7993164 C135.309572,73.069495 135.504395,72.2871135 135.504395,71.4521484 C135.504395,70.7532517 135.359051,70.1332221 135.068359,69.592041 C134.777668,69.0508599 134.366376,68.6302912 133.834473,68.3303223 C133.302569,68.0303533 132.721195,67.8803711 132.090332,67.8803711 L132.090332,67.8803711 Z M139.484375,66.90625 L140.773926,66.90625 L140.606934,68.1772461 C140.953289,67.6948218 141.370766,67.3190931 141.859375,67.0500488 C142.347984,66.7810045 142.848956,66.6464844 143.362305,66.6464844 C143.727215,66.6464844 144.107583,66.7330721 144.503418,66.90625 L143.891113,68.09375 C143.569497,67.9638665 143.300457,67.8989258 143.083984,67.8989258 C142.632485,67.8989258 142.18563,68.056639 141.743408,68.3720703 C141.301186,68.6875016 140.942466,69.1467255 140.667236,69.7497559 C140.392007,70.3527862 140.15853,71.3439059 139.966797,72.7231445 L139.373047,77 L138.111328,77 L139.484375,66.90625 Z M151.118164,66.90625 L152.435547,66.90625 L152.240723,68.418457 C153.409674,67.237136 154.745598,66.6464844 156.248535,66.6464844 C157.627774,66.6464844 158.758052,67.0887 159.639404,67.9731445 C160.520756,68.8575891 160.961426,69.9955985 160.961426,71.387207 C160.961426,72.995288 160.389329,74.3760522 159.245117,75.529541 C158.100906,76.6830299 156.752612,77.2597656 155.200195,77.2597656 C154.359045,77.2597656 153.619958,77.0819516 152.98291,76.7263184 C152.345863,76.3706851 151.80469,75.8186886 151.359375,75.0703125 L150.626465,80.6923828 L149.28125,80.6923828 L151.118164,66.90625 Z M156.109375,67.8339844 C155.280595,67.8339844 154.521406,68.0303529 153.831787,68.4230957 C153.142168,68.8158386 152.596356,69.3802047 152.194336,70.1162109 C151.792316,70.8522172 151.591309,71.6531532 151.591309,72.519043 C151.591309,73.5642956 151.923743,74.4147103 152.588623,75.0703125 C153.253503,75.7259147 154.111648,76.0537109 155.163086,76.0537109 C156.406256,76.0537109 157.470048,75.6053105 158.354492,74.7084961 C159.238937,73.8116817 159.681152,72.7107813 159.681152,71.4057617 C159.681152,70.3357694 159.35181,69.472985 158.693115,68.8173828 C158.034421,68.1617806 157.173182,67.8339844 156.109375,67.8339844 L156.109375,67.8339844 Z M168.494629,66.6464844 C169.354334,66.6464844 170.1429,66.8521301 170.860352,67.2634277 C171.577803,67.6747254 172.137531,68.2468225 172.539551,68.9797363 C172.941571,69.7126501 173.142578,70.5429641 173.142578,71.4707031 C173.142578,72.5283256 172.885908,73.510168 172.372559,74.4162598 C171.85921,75.3223515 171.169601,76.022784 170.303711,76.5175781 C169.437821,77.0123723 168.457525,77.2597656 167.362793,77.2597656 C166.008294,77.2597656 164.893478,76.8160038 164.018311,75.9284668 C163.143143,75.0409298 162.705566,73.9106514 162.705566,72.5375977 C162.705566,71.4614204 162.962237,70.4687545 163.475586,69.5595703 C163.988935,68.6503861 164.69246,67.937584 165.586182,67.4211426 C166.479904,66.9047012 167.449376,66.6464844 168.494629,66.6464844 L168.494629,66.6464844 Z M168.466797,67.8803711 C167.662756,67.8803711 166.90666,68.0813782 166.198486,68.4833984 C165.490312,68.8854187 164.946047,69.4374151 164.565674,70.1394043 C164.185301,70.8413935 163.995117,71.6160439 163.995117,72.4633789 C163.995117,73.5271863 164.322913,74.3915169 164.978516,75.0563965 C165.634118,75.7212761 166.48144,76.0537109 167.520508,76.0537109 C168.330733,76.0537109 169.065182,75.8604349 169.723877,75.473877 C170.382572,75.087319 170.906736,74.5291378 171.296387,73.7993164 C171.686037,73.069495 171.880859,72.2871135 171.880859,71.4521484 C171.880859,70.7532517 171.735516,70.1332221 171.444824,69.592041 C171.154133,69.0508599 170.742841,68.6302912 170.210938,68.3303223 C169.679034,68.0303533 169.097659,67.8803711 168.466797,67.8803711 L168.466797,67.8803711 Z M176.714355,63.0097656 L177.985352,63.0097656 L176.037109,77 L174.756836,77 L176.714355,63.0097656 Z M180.972656,62.75 C181.257163,62.75 181.501464,62.8520498 181.705566,63.0561523 C181.909669,63.2602549 182.011719,63.5045559 182.011719,63.7890625 C182.011719,64.0797541 181.909669,64.3256012 181.705566,64.5266113 C181.501464,64.7276214 181.257163,64.828125 180.972656,64.828125 C180.681965,64.828125 180.436118,64.7276214 180.235107,64.5266113 C180.034097,64.3256012 179.933594,64.0797541 179.933594,63.7890625 C179.933594,63.5045559 180.034097,63.2602549 180.235107,63.0561523 C180.436118,62.8520498 180.681965,62.75 180.972656,62.75 L180.972656,62.75 Z M179.952148,66.90625 L181.186035,66.90625 L179.84082,77 L178.560547,77 L179.952148,66.90625 Z M193.348633,69.0864258 L192.281738,69.7080078 C191.533362,68.4957622 190.389168,67.8896484 188.849121,67.8896484 C187.958492,67.8896484 187.145186,68.0875631 186.40918,68.4833984 C185.673173,68.8792337 185.097984,69.429684 184.683594,70.1347656 C184.269204,70.8398473 184.062012,71.594397 184.062012,72.3984375 C184.062012,73.1097041 184.216633,73.746742 184.525879,74.3095703 C184.835125,74.8723986 185.26961,75.305337 185.829346,75.6083984 C186.389082,75.9114598 187.049313,76.0629883 187.810059,76.0629883 C188.589359,76.0629883 189.333086,75.9083674 190.04126,75.5991211 C190.749434,75.2898748 191.30143,74.890953 191.697266,74.4023438 L192.76416,75.1538086 C192.096188,75.88363 191.371016,76.4170719 190.588623,76.7541504 C189.80623,77.0912289 188.898605,77.2597656 187.865723,77.2597656 C186.270012,77.2597656 185.025314,76.825281 184.131592,75.9562988 C183.23787,75.0873166 182.791016,73.9292065 182.791016,72.4819336 C182.791016,70.8738526 183.377029,69.4992733 184.549072,68.3581543 C185.721116,67.2170353 187.157544,66.6464844 188.858398,66.6464844 C189.878911,66.6464844 190.778805,66.8614074 191.558105,67.2912598 C192.337406,67.7211122 192.934243,68.3194949 193.348633,69.0864258 L193.348633,69.0864258 Z M194.962891,66.90625 L196.298828,66.90625 L198.915039,74.355957 L203.238281,66.90625 L204.67627,66.90625 L196.679199,80.6923828 L195.222656,80.6923828 L198.080078,75.7661133 L194.962891,66.90625 Z M207.01416,63.0097656 L208.275879,63.0097656 L207.533691,68.4370117 C208.572759,67.2433209 209.760247,66.6464844 211.096191,66.6464844 C212.116704,66.6464844 212.950111,66.9650033 213.596436,67.6020508 C214.24276,68.2390982 214.565918,69.067866 214.565918,70.0883789 C214.565918,70.6512072 214.497885,71.4088494 214.361816,72.3613281 L213.730957,77 L212.450684,77 L213.081543,72.3613281 C213.211426,71.4274042 213.276367,70.6852241 213.276367,70.1347656 C213.276367,69.4420538 213.059898,68.8823264 212.626953,68.4555664 C212.194008,68.0288065 211.625004,67.8154297 210.919922,67.8154297 C210.26432,67.8154297 209.64429,67.9916975 209.059814,68.3442383 C208.475339,68.6967791 208.023846,69.1730113 207.705322,69.7729492 C207.386799,70.3728871 207.137859,71.3253515 206.958496,72.6303711 L206.355469,77 L205.09375,77 L207.01416,63.0097656 Z M222.609375,66.6464844 C223.46908,66.6464844 224.257646,66.8521301 224.975098,67.2634277 C225.692549,67.6747254 226.252277,68.2468225 226.654297,68.9797363 C227.056317,69.7126501 227.257324,70.5429641 227.257324,71.4707031 C227.257324,72.5283256 227.000654,73.510168 226.487305,74.4162598 C225.973956,75.3223515 225.284347,76.022784 224.418457,76.5175781 C223.552567,77.0123723 222.572271,77.2597656 221.477539,77.2597656 C220.12304,77.2597656 219.008224,76.8160038 218.133057,75.9284668 C217.25789,75.0409298 216.820312,73.9106514 216.820312,72.5375977 C216.820312,71.4614204 217.076983,70.4687545 217.590332,69.5595703 C218.103681,68.6503861 218.807206,67.937584 219.700928,67.4211426 C220.59465,66.9047012 221.564122,66.6464844 222.609375,66.6464844 L222.609375,66.6464844 Z M222.581543,67.8803711 C221.777502,67.8803711 221.021407,68.0813782 220.313232,68.4833984 C219.605058,68.8854187 219.060793,69.4374151 218.68042,70.1394043 C218.300047,70.8413935 218.109863,71.6160439 218.109863,72.4633789 C218.109863,73.5271863 218.437659,74.3915169 219.093262,75.0563965 C219.748864,75.7212761 220.596186,76.0537109 221.635254,76.0537109 C222.445479,76.0537109 223.179928,75.8604349 223.838623,75.473877 C224.497318,75.087319 225.021482,74.5291378 225.411133,73.7993164 C225.800783,73.069495 225.995605,72.2871135 225.995605,71.4521484 C225.995605,70.7532517 225.850262,70.1332221 225.55957,69.592041 C225.268879,69.0508599 224.857587,68.6302912 224.325684,68.3303223 C223.79378,68.0303533 223.212405,67.8803711 222.581543,67.8803711 L222.581543,67.8803711 Z M230.829102,63.0097656 L232.100098,63.0097656 L230.151855,77 L228.871582,77 L230.829102,63.0097656 Z M242.963867,77 L241.655762,77 L241.850586,75.4785156 C240.681635,76.6660216 239.342618,77.2597656 237.833496,77.2597656 C236.460442,77.2597656 235.33171,76.81755 234.447266,75.9331055 C233.562821,75.0486609 233.120605,73.9106515 233.120605,72.519043 C233.120605,70.910962 233.694249,69.5301978 234.841553,68.376709 C235.988857,67.2232201 237.338697,66.6464844 238.891113,66.6464844 C239.732263,66.6464844 240.469805,66.8227521 241.10376,67.175293 C241.737715,67.5278338 242.280434,68.078284 242.731934,68.8266602 L243.483398,63.0097656 L244.828613,63.0097656 L242.963867,77 Z M237.972656,76.0722656 C238.807621,76.0722656 239.568356,75.8758971 240.254883,75.4831543 C240.94141,75.0904114 241.485675,74.5260453 241.887695,73.7900391 C242.289716,73.0540328 242.490723,72.2530968 242.490723,71.387207 C242.490723,70.3419544 242.159834,69.4915397 241.498047,68.8359375 C240.83626,68.1803353 239.976568,67.8525391 238.918945,67.8525391 C237.675775,67.8525391 236.611984,68.3009395 235.727539,69.1977539 C234.843095,70.0945683 234.400879,71.1954687 234.400879,72.5004883 C234.400879,73.5704806 234.731768,74.433265 235.393555,75.0888672 C236.055342,75.7444694 236.915034,76.0722656 237.972656,76.0722656 L237.972656,76.0722656 Z M256.378906,72.2128906 L247.379883,72.2128906 C247.361328,73.4127664 247.673662,74.3559536 248.316895,75.0424805 C248.960127,75.7290073 249.816726,76.0722656 250.886719,76.0722656 C251.597985,76.0722656 252.25667,75.926922 252.862793,75.6362305 C253.468916,75.3455389 253.969887,74.9373399 254.365723,74.4116211 L255.330566,75.2001953 C254.841957,75.8248729 254.203373,76.3242983 253.414795,76.6984863 C252.626217,77.0726744 251.774256,77.2597656 250.858887,77.2597656 C249.275545,77.2597656 248.086511,76.7696175 247.291748,75.7893066 C246.496985,74.8089957 246.099609,73.7065491 246.099609,72.4819336 C246.099609,71.4799755 246.367103,70.5151414 246.9021,69.5874023 C247.437096,68.6596633 248.15299,67.937584 249.049805,67.4211426 C249.946619,66.9047012 250.917638,66.6464844 251.962891,66.6464844 C253.25554,66.6464844 254.325517,67.0840614 255.172852,67.9592285 C256.020187,68.8343957 256.443848,69.949212 256.443848,71.3037109 C256.443848,71.551108 256.422201,71.8541649 256.378906,72.2128906 L256.378906,72.2128906 Z M255.191406,71.090332 C255.154297,70.1378533 254.829593,69.3662953 254.217285,68.7756348 C253.604977,68.1849743 252.834966,67.8896484 251.907227,67.8896484 C250.899084,67.8896484 250.010014,68.1741508 249.23999,68.7431641 C248.469967,69.3121773 247.924155,70.0945588 247.602539,71.090332 L255.191406,71.090332 Z M259.143555,66.90625 L260.433105,66.90625 L260.266113,68.1772461 C260.612469,67.6948218 261.029945,67.3190931 261.518555,67.0500488 C262.007164,66.7810045 262.508135,66.6464844 263.021484,66.6464844 C263.386395,66.6464844 263.766762,66.7330721 264.162598,66.90625 L263.550293,68.09375 C263.228677,67.9638665 262.959636,67.8989258 262.743164,67.8989258 C262.291664,67.8989258 261.84481,68.056639 261.402588,68.3720703 C260.960366,68.6875016 260.601645,69.1467255 260.326416,69.7497559 C260.051187,70.3527862 259.817709,71.3439059 259.625977,72.7231445 L259.032227,77 L257.770508,77 L259.143555,66.90625 Z M270.062988,68.0380859 L269.35791,69.0864258 C268.788897,68.2762004 268.11475,67.8710938 267.335449,67.8710938 C266.890134,67.8710938 266.509767,68.0164373 266.194336,68.3071289 C265.878905,68.5978205 265.721191,68.9194318 265.721191,69.2719727 C265.721191,69.5441094 265.817056,69.8038725 266.008789,70.0512695 C266.194337,70.2986666 266.617998,70.6357401 267.279785,71.0625 C268.244634,71.6871776 268.881672,72.231443 269.190918,72.6953125 C269.493979,73.1653669 269.645508,73.7065399 269.645508,74.3188477 C269.645508,75.1661826 269.350182,75.8681613 268.759521,76.4248047 C268.168861,76.9814481 267.400395,77.2597656 266.454102,77.2597656 C265.204746,77.2597656 264.153325,76.706223 263.299805,75.5991211 L264.088379,74.6806641 C264.836755,75.5898483 265.650061,76.0444336 266.52832,76.0444336 C267.029299,76.0444336 267.46533,75.8681658 267.836426,75.515625 C268.207521,75.1630842 268.393066,74.7548851 268.393066,74.2910156 C268.393066,73.9137351 268.253908,73.5519223 267.975586,73.2055664 C267.796223,72.982909 267.313806,72.6056342 266.52832,72.0737305 C265.680985,71.4923474 265.12435,71.0099303 264.858398,70.6264648 C264.592447,70.2491843 264.459473,69.8224308 264.459473,69.3461914 C264.459473,68.5978153 264.740883,67.9607774 265.303711,67.4350586 C265.866539,66.9093398 266.577795,66.6464844 267.4375,66.6464844 C267.944664,66.6464844 268.403888,66.7485341 268.815186,66.9526367 C269.226483,67.1567393 269.642413,67.5185521 270.062988,68.0380859 L270.062988,68.0380859 Z" id="for-policyholders"></path>
                    </g>
                </g>
            </g>
        </g>
    </g>
</svg>