<?xml version="1.0" encoding="UTF-8" standalone="no"?>
<svg width="272px" height="78px" viewBox="0 0 272 78" version="1.1" xmlns="http://www.w3.org/2000/svg" xmlns:xlink="http://www.w3.org/1999/xlink" xmlns:sketch="http://www.bohemiancoding.com/sketch/ns">
    <!-- Generator: Sketch 3.1 (8751) - http://www.bohemiancoding.com/sketch -->
    <title>logo-my-brokers</title>
    <desc>Created with Sketch.</desc>
    <defs></defs>
    <g id="design" stroke="none" stroke-width="1" fill="none" fill-rule="evenodd" sketch:type="MSPage">
        <g id="Desktop-HD" sketch:type="MSArtboardGroup" transform="translate(-1024.000000, -1327.000000)" fill="#FFFFFF">
            <g id="sub-brands" sketch:type="MSLayerGroup" transform="translate(15.000000, 985.000000)">
                <g id="logo-box-5" transform="translate(936.000000, 292.000000)" sketch:type="MSShapeGroup">
                    <g id="logo-my-brokers" transform="translate(73.000000, 50.000000)">
                        <path d="M71.0318801,35.726839 C68.5380131,33.1064946 65.6984796,31.7689892 62.5856704,31.7689892 C59.9289239,31.7689892 57.6522297,32.7056074 55.8243591,34.5314663 C54.0001081,36.3700806 53.0753142,38.6660708 53.0753142,41.3520149 C53.0753142,43.2197847 53.4807033,44.9126219 54.2914816,46.3594602 C55.1040696,47.8263428 56.2641339,48.9743379 57.7390988,49.8016233 C59.2068245,50.6216198 60.8754351,51.0461957 62.6815883,51.0461957 C64.2198952,51.0461957 65.6441864,50.750997 66.9200762,50.1788217 C68.1651999,49.6048241 69.5514859,48.5570508 71.0282605,47.0938126 C71.1784717,47.2487008 74.2713734,50.504998 74.4378725,50.6617085 C72.4489322,52.6023669 70.5414316,53.9672055 68.7696641,54.7234245 C66.9689401,55.492399 64.8877014,55.8914639 62.5929095,55.8914639 C58.3489922,55.8914639 54.8235548,54.506581 52.1251835,51.8024147 C49.4177634,49.0909596 48.0531947,45.5795524 48.0531947,41.3374372 C48.0531947,38.5950045 48.672137,36.1295483 49.9009727,33.9993797 C51.1352378,31.8801443 52.9232933,30.1362851 55.2144657,28.8334017 C57.5164967,27.5414517 60.0248418,26.8890989 62.6671101,26.8890989 C64.9184675,26.8890989 67.1191513,27.3719858 69.2040095,28.3304705 C71.2581017,29.2743776 73.0407279,30.6337496 74.5410296,32.3630311 L71.0318801,35.726839 M81.919356,49.6380181 L81.919356,49.6380181 C80.8502721,48.5574531 80.2992545,47.1501252 80.2992545,45.4264079 C80.2992545,43.7528288 80.855764,42.3576032 81.9394928,41.280496 C83.0323748,40.1964732 84.4144953,39.6501395 86.052903,39.6501395 C87.7206006,39.6501395 89.1228579,40.1912865 90.1974337,41.2597492 C91.2756707,42.3230251 91.8157045,43.7251663 91.8157045,45.4264079 C91.8157045,47.1207338 91.2646869,48.5297906 90.1608212,49.6190001 C89.0734311,50.7064808 87.6821575,51.2510855 86.0309355,51.2510855 C84.3815441,51.2510855 82.9994236,50.7064808 81.919356,49.6380181 C81.919356,49.6380181 82.9994236,50.7064808 81.919356,49.6380181 L81.919356,49.6380181 L81.919356,49.6380181 L81.919356,49.6380181 L81.919356,49.6380181 Z M79.0924227,37.6941959 C76.8365481,39.7688551 75.6926746,42.3768458 75.6926746,45.4666125 C75.6926746,48.3466021 76.7037455,50.8319265 78.7010975,52.8479193 C80.7002202,54.8550232 83.138477,55.8914639 85.9556641,55.8914639 C87.8786467,55.8914639 89.6564316,55.42391 91.2500635,54.5030245 C92.8436955,53.5910277 94.118601,52.305699 95.0411368,50.6879271 C95.9583605,49.0559329 96.4222845,47.2923837 96.4222845,45.431057 C96.4222845,43.580397 95.967214,41.8275144 95.0482196,40.2257424 C94.1309959,38.6239704 92.8436955,37.3386417 91.2040253,36.4088672 C89.5678965,35.4755372 87.7989651,35.0097611 85.9414985,35.0097611 C83.370439,35.0097611 81.0649848,35.9164245 79.0924227,37.6941959 L79.0924227,37.6941959 L79.0924227,37.6941959 L79.0924227,37.6941959 L79.0924227,37.6941959 Z M98.7255745,28.0491935 L98.7255745,55.8914639 L103.332154,55.8914639 L103.332154,28.0491935 L98.7255745,28.0491935 M113.017432,49.6380181 L113.017432,49.6380181 C111.937364,48.5574531 111.393669,47.1501252 111.393669,45.4264079 C111.393669,43.7528288 111.944687,42.3576032 113.033908,41.280496 C114.12679,40.1964732 115.50708,39.6501395 117.141826,39.6501395 C118.818677,39.6501395 120.20995,40.1912865 121.288187,41.2597492 C122.360932,42.3230251 122.910119,43.7251663 122.910119,45.4264079 C122.910119,47.1207338 122.357271,48.5297906 121.258897,49.6190001 C120.166015,50.7064808 118.771081,51.2510855 117.12352,51.2510855 C115.474128,51.2510855 114.092008,50.7064808 113.017432,49.6380181 C113.017432,49.6380181 114.092008,50.7064808 113.017432,49.6380181 L113.017432,49.6380181 L113.017432,49.6380181 L113.017432,49.6380181 L113.017432,49.6380181 Z M110.186257,37.6941959 C107.927227,39.7688551 106.787089,42.3768458 106.787089,45.4666125 C106.787089,48.3466021 107.799758,50.8319265 109.793228,52.8479193 C111.792009,54.8550232 114.228079,55.8914639 117.051867,55.8914639 C118.97098,55.8914639 120.746691,55.42391 122.341821,54.5030245 C123.928099,53.5910277 125.204557,52.305699 126.126936,50.6879271 C127.047543,49.0559329 127.516699,47.2923837 127.516699,45.431057 C127.516699,43.580397 127.052855,41.8275144 126.135788,40.2257424 C125.21695,38.6239704 123.928099,37.3386417 122.295791,36.4088672 C120.658171,35.4755372 118.889542,35.0097611 117.034163,35.0097611 C114.468854,35.0097611 112.162023,35.9164245 110.186257,37.6941959 L110.186257,37.6941959 L110.186257,37.6941959 L110.186257,37.6941959 L110.186257,37.6941959 Z M138.90775,35.5820623 L138.90775,35.5820623 C138.015287,35.9502306 137.000567,36.6410018 135.886298,37.6161009 L135.699422,37.7856041 L135.699422,35.5364969 L130.971634,35.5364969 L130.971634,55.8914639 L135.699422,55.8914639 L135.699422,47.7461964 C135.699422,45.5699938 135.771028,44.1993872 135.919481,43.5341326 C136.202415,42.2838185 136.715887,41.286848 137.44418,40.5760281 C138.182951,39.8615629 139.078908,39.5006851 140.109345,39.5006851 C140.902258,39.5006851 141.579902,39.7175763 142.128304,40.1513587 C142.662735,40.5960768 143.053952,41.2376374 143.272265,42.0632821 C143.487085,42.892572 143.591875,44.4964734 143.591875,46.9952789 L143.591875,55.8914639 L148.246309,55.8914639 L148.246309,42.3968207 C148.246309,40.0711636 147.682188,38.2831781 146.564426,37.1112365 C145.226603,35.7060001 143.584889,35.0097611 141.67072,35.0097611 C140.731101,35.0097611 139.805454,35.2011357 138.90775,35.5820623 M152.852889,35.0097611 L152.852889,55.8914639 L157.459469,55.8914639 L157.459469,35.0097611 L152.852889,35.0097611 M166.672629,45.4113047 C166.672629,43.736448 167.214126,42.3401644 168.29712,41.2651799 C169.374608,40.1833592 170.751295,39.6501395 172.384965,39.6501395 C174.05351,39.6501395 175.455896,40.1679779 176.548068,41.2395443 C177.643911,42.2957295 178.189079,43.690304 178.189079,45.3925053 C178.189079,47.1323053 177.643911,48.5559335 176.548068,49.6309181 C175.455896,50.7076116 174.064523,51.2510855 172.406992,51.2510855 C170.793514,51.2510855 169.418662,50.6922303 168.320983,49.6018644 C167.22514,48.5114985 166.672629,47.0981246 166.672629,45.4113047 C166.672629,45.4113047 166.672629,47.0981246 166.672629,45.4113047 L166.672629,45.4113047 L166.672629,45.4113047 L166.672629,45.4113047 L166.672629,45.4113047 Z M164.804159,37.9306395 L164.804159,37.9306395 C162.984734,39.8879658 162.066049,42.4230678 162.066049,45.4915013 C162.066049,48.4266018 163.017031,50.9208151 164.884903,52.8994747 C166.776101,54.8816898 169.02616,55.8914639 171.597399,55.8914639 C172.734989,55.8914639 173.813366,55.6905758 174.794851,55.2745772 C175.770954,54.8763565 176.759616,54.2008033 177.746484,53.2834733 L177.942063,53.0861407 L177.942063,55.377688 L182.795659,55.377688 L182.795659,35.5235371 L177.942063,35.5235371 L177.942063,37.9128618 L177.741101,37.6941959 C176.847537,36.8088658 175.864257,36.1297571 174.816383,35.6764254 C173.770303,35.2302048 172.641685,35.0097611 171.446678,35.0097611 C168.848523,35.0097611 166.616408,35.9964243 164.804159,37.9306395 L164.804159,37.9306395 L164.804159,37.9306395 L164.804159,37.9306395 L164.804159,37.9306395 Z M187.402239,28.0491935 L187.402239,55.8914639 L192.008819,55.8914639 L192.008819,28.0491935 L187.402239,28.0491935 M204.676914,26.8890989 L204.676914,55.8914639 L217.345009,55.8914639 L217.345009,50.9525878 L209.691707,50.9525878 L209.691707,26.8890989 L204.676914,26.8890989 M234.551543,27.8570666 C233.763317,28.4987119 233.288171,29.3878488 233.153731,30.4933119 C233.08559,30.9809623 233.034023,32.5942418 233.026657,35.2891518 L233.026657,35.4174808 L231.164749,35.4174808 L231.164749,39.5643424 L233.026657,39.5643424 L233.026657,55.8914639 L238.012003,55.8914639 L238.012003,39.5643424 L241.308556,39.5643424 L241.308556,35.4174808 L238.012003,35.4174808 L238.024894,32.6987383 C238.024894,32.0589263 238.137235,31.6427735 238.363758,31.430114 C238.682363,31.1477901 239.159351,31.0047948 239.79472,31.0047948 C240.249607,31.0047948 240.840777,31.120291 241.529554,31.3072847 L241.529554,27.5985752 C240.223824,27.1329241 239.019385,26.8890989 237.978853,26.8890989 C236.507375,26.8890989 235.350819,27.2135881 234.551543,27.8570666 M253.136656,38.4900449 C254.480121,38.4900449 255.682169,38.8022401 256.701099,39.4174029 C257.721842,40.0371795 258.408985,40.856884 258.75709,41.833455 L258.804229,41.9703287 L247.287779,41.9703287 L247.369366,41.8211517 C247.953166,40.740003 248.602235,39.9695116 249.285752,39.5250564 C250.389896,38.8437636 251.689848,38.4900449 253.136656,38.4900449 C253.136656,38.4900449 251.689848,38.4900449 253.136656,38.4900449 L253.136656,38.4900449 L253.136656,38.4900449 L253.136656,38.4900449 L253.136656,38.4900449 Z M245.600937,38.0053059 C243.665043,39.9928543 242.681199,42.5368452 242.681199,45.5590566 C242.681199,48.4977127 243.665043,50.9848149 245.608002,52.9421412 C247.54213,54.8959119 250.087407,55.8914639 253.185544,55.8914639 C255.174427,55.8914639 256.912493,55.5287986 258.357348,54.8212455 C259.768643,54.1279147 260.98211,53.0505852 262.00128,51.621257 C261.74163,51.5057019 258.115361,49.793708 257.984653,49.731486 C256.633413,51.0328147 255.011925,51.6959234 253.144918,51.6959234 C251.553458,51.6959234 250.219881,51.2674805 249.197178,50.3999281 C248.178007,49.5412645 247.527999,48.3626021 247.298377,46.9119406 L247.271882,46.7732744 L263.387847,46.7732744 C263.400211,46.590164 263.410809,45.928833 263.410809,45.928833 C263.410809,42.6648448 262.430497,39.9928543 260.484005,38.0053059 C258.55341,36.0159797 256.006367,35.0097611 252.895866,35.0097611 C249.992025,35.0097611 247.527999,36.0159797 245.600937,38.0053059 L245.600937,38.0053059 L245.600937,38.0053059 L245.600937,38.0053059 L245.600937,38.0053059 Z M221.951589,35.0097611 L221.951589,55.8914639 L226.558169,55.8914639 L226.558169,35.0097611 L221.951589,35.0097611 M267.513239,52.2512018 L267.883794,52.2512018 C268.312857,52.2512018 268.661959,52.1043034 268.661959,51.7441006 C268.661959,51.4261562 268.437676,51.2168763 267.944253,51.2168763 C267.739473,51.2168763 267.595151,51.2349871 267.513239,51.2571224 L267.513239,52.2512018 L267.513239,52.2512018 L267.513239,52.2512018 L267.513239,52.2512018 Z M267.495687,54.1991143 L266.713621,54.1991143 L266.713621,50.7278859 C267.019816,50.6876398 267.45083,50.6232459 268.004712,50.6232459 C268.640506,50.6232459 268.929148,50.7278859 269.155382,50.8969196 C269.360162,51.0458303 269.502533,51.2993809 269.502533,51.6374483 C269.502533,52.062045 269.196338,52.3357186 268.80628,52.4645062 L268.80628,52.5047524 C269.133929,52.6114046 269.295802,52.8870906 269.401118,53.3519333 C269.502533,53.8811699 269.584445,54.0703267 269.644904,54.1991143 L268.825783,54.1991143 C268.724368,54.0703267 268.661959,53.7745177 268.558594,53.3519333 C268.500085,52.9917305 268.293354,52.8206845 267.862341,52.8206845 L267.495687,52.8206845 L267.495687,54.1991143 L267.495687,54.1991143 L267.495687,54.1991143 L267.495687,54.1991143 Z M265.422531,52.4001124 C265.422531,53.9455637 266.549797,55.1710583 268.045668,55.1710583 C269.502533,55.1931936 270.608346,53.9455637 270.608346,52.4202355 C270.608346,50.8767965 269.502533,49.6291666 268.004712,49.6291666 C266.549797,49.6291666 265.422531,50.8767965 265.422531,52.4001124 C265.422531,52.4001124 265.422531,50.8767965 265.422531,52.4001124 L265.422531,52.4001124 L265.422531,52.4001124 L265.422531,52.4001124 L265.422531,52.4001124 Z M271.472324,52.4001124 C271.472324,54.3460127 269.955,55.8914639 268.026165,55.8914639 C266.099281,55.8914639 264.562454,54.3460127 264.562454,52.4001124 C264.562454,50.4542122 266.099281,48.9308963 268.045668,48.9308963 C269.955,48.9308963 271.472324,50.4542122 271.472324,52.4001124 L271.472324,52.4001124 L271.472324,52.4001124 L271.472324,52.4001124 L271.472324,52.4001124 Z" id="logo"></path>
                        <path d="M151.701244,22.8304934 C151.701244,25.0685935 153.50849,26.8890989 155.730289,26.8890989 C157.957227,26.8890989 159.762759,25.0685935 159.762759,22.8304934 C159.762759,20.5820398 157.957227,18.7684367 155.730289,18.7684367 C153.50849,18.7684367 151.701244,20.5820398 151.701244,22.8304934 Z M171.28173,22.2487205 C173.182743,22.2487205 174.734144,19.9026182 174.734144,17.0309055 C174.734144,14.152231 173.182743,11.8078691 171.28173,11.8078691 C169.373994,11.8078691 167.824274,14.152231 167.824274,17.0309055 C167.824274,19.9026182 169.373994,22.2487205 171.28173,22.2487205 Z M208.131849,6.01522873 C208.131849,9.20744703 209.422968,11.8078691 211.011784,11.8078691 C212.597311,11.8078691 213.890074,9.20744703 213.890074,6.01522873 C213.890074,2.81256697 212.656521,0.206923134 211.072639,0.206923134 C209.480534,0.206923134 208.131849,2.81256697 208.131849,6.01522873 Z M182.795659,8.90133044 C182.795659,12.4215554 184.081513,15.2881529 185.671023,15.2881529 C187.262407,15.2881529 188.553884,12.4215554 188.553884,8.90133044 C188.553884,5.38650735 187.262407,2.52711233 185.671023,2.52711233 C184.081513,2.52711233 182.795659,5.38650735 182.795659,8.90133044 Z M220.799944,21.089511 C220.799944,23.643799 222.357202,25.7290043 224.259492,25.7290043 C226.163627,25.7290043 227.709814,23.643799 227.709814,21.089511 C227.709814,18.5246022 226.163627,16.4482475 224.259492,16.4482475 C222.357202,16.4482475 220.799944,18.5246022 220.799944,21.089511 Z M195.463754,12.9688808 C195.463754,17.3671525 196.791977,21.0886259 198.343839,21.0886259 C199.909314,21.0886259 201.221979,17.3671525 201.221979,12.9688808 C201.221979,8.56327254 199.909314,4.84730153 198.343839,4.84730153 C196.791977,4.84730153 195.463754,8.56327254 195.463754,12.9688808 Z" id="logo-dots"></path>
                        <path d="M0,37.6388241 L0,27 L42,27 L42,56 L0,56 L0,51.0528866 L3.01395376,51.0528866 L3.01395376,45.0856014 C3.01395376,43.795149 3.1269694,42.8499273 3.35300406,42.2499081 C3.57903872,41.6498888 3.92014045,41.1834424 4.37631949,40.850555 C4.83249852,40.5176676 5.34004146,40.3512264 5.89896353,40.3512264 C6.4003495,40.3512264 6.82775408,40.4827355 7.18119009,40.7457577 C7.5346261,41.0087798 7.79969914,41.4094716 7.97641714,41.9478451 C8.15313515,42.4862185 8.24149283,43.3554115 8.24149283,44.5554501 L8.24149283,51.0528866 L11.6319958,51.0528866 L11.6319958,44.9992977 C11.6319958,43.7170647 11.7429566,42.7862269 11.9648815,42.2067562 C12.1868064,41.6272855 12.5258533,41.1731682 12.9820324,40.8443905 C13.4382114,40.5156128 13.9539737,40.3512264 14.5293346,40.3512264 C15.2855233,40.3512264 15.8526563,40.6204091 16.2307506,41.1587826 C16.608845,41.697156 16.7978893,42.7266257 16.7978893,44.2472225 L16.7978893,51.0528866 L20.1883922,51.0528866 L20.1883922,43.1869198 C20.1883922,41.5759091 20.0301704,40.4128755 19.7137218,39.697784 C19.3972733,38.9826926 18.8774014,38.4032306 18.1540905,37.9593807 C17.4307796,37.5155308 16.5924091,37.2936092 15.6389538,37.2936092 C14.7183762,37.2936092 13.8697316,37.4990922 13.0929943,37.9100643 C12.316257,38.3210364 11.6607663,38.9210467 11.1265026,39.7101131 C10.7155305,38.9210467 10.1730554,38.3210364 9.49906119,37.9100643 C8.82506693,37.4990922 8.0688896,37.2936092 7.2305065,37.2936092 C6.40034284,37.2936092 5.63389136,37.4497763 4.93112906,37.7621151 C4.22836675,38.0744539 3.58931471,38.5470647 3.01395376,39.1799618 L3.01395376,37.6388241 L2.77555756e-17,37.6388241 L0,37.6388241 Z M21.9021374,37.6388241 L25.3419567,37.6388241 L28.8310924,46.0596004 L32.6777721,37.6388241 L36.1299206,37.6388241 L27.7214733,55.959869 L24.2446667,55.959869 L27.0063854,50.0542293 L21.9021374,37.6388241 Z" id="Rectangle-1"></path>
                        <path d="M181.705566,63.3530273 L181.529297,64.5776367 C181.065427,64.132322 180.629397,63.909668 180.221191,63.909668 C179.961424,63.909668 179.73877,64.0364571 179.553223,64.2900391 C179.367675,64.5436211 179.222331,65.0569623 179.117188,65.8300781 L178.959473,66.90625 L181.037598,66.90625 L180.898438,68.0473633 L178.820312,68.0473633 L177.558594,77 L176.287598,77 L177.558594,68.0473633 L176.287598,68.0473633 L176.426758,66.90625 L177.707031,66.90625 L177.827637,66.015625 C177.976075,64.9703724 178.133788,64.2714861 178.300781,63.9189453 C178.467774,63.5664045 178.715168,63.2834483 179.042969,63.0700684 C179.37077,62.8566884 179.732583,62.75 180.128418,62.75 C180.647952,62.75 181.173663,62.9510071 181.705566,63.3530273 L181.705566,63.3530273 Z M187.800781,66.6464844 C188.660486,66.6464844 189.449052,66.8521301 190.166504,67.2634277 C190.883955,67.6747254 191.443683,68.2468225 191.845703,68.9797363 C192.247723,69.7126501 192.44873,70.5429641 192.44873,71.4707031 C192.44873,72.5283256 192.19206,73.510168 191.678711,74.4162598 C191.165362,75.3223515 190.475753,76.022784 189.609863,76.5175781 C188.743974,77.0123723 187.763677,77.2597656 186.668945,77.2597656 C185.314446,77.2597656 184.19963,76.8160038 183.324463,75.9284668 C182.449296,75.0409298 182.011719,73.9106514 182.011719,72.5375977 C182.011719,71.4614204 182.268389,70.4687545 182.781738,69.5595703 C183.295087,68.6503861 183.998612,67.937584 184.892334,67.4211426 C185.786056,66.9047012 186.755529,66.6464844 187.800781,66.6464844 L187.800781,66.6464844 Z M187.772949,67.8803711 C186.968909,67.8803711 186.212813,68.0813782 185.504639,68.4833984 C184.796465,68.8854187 184.252199,69.4374151 183.871826,70.1394043 C183.491453,70.8413935 183.30127,71.6160439 183.30127,72.4633789 C183.30127,73.5271863 183.629066,74.3915169 184.284668,75.0563965 C184.94027,75.7212761 185.787592,76.0537109 186.82666,76.0537109 C187.636886,76.0537109 188.371335,75.8604349 189.030029,75.473877 C189.688724,75.087319 190.212889,74.5291378 190.602539,73.7993164 C190.992189,73.069495 191.187012,72.2871135 191.187012,71.4521484 C191.187012,70.7532517 191.041668,70.1332221 190.750977,69.592041 C190.460285,69.0508599 190.048994,68.6302912 189.51709,68.3303223 C188.985186,68.0303533 188.403812,67.8803711 187.772949,67.8803711 L187.772949,67.8803711 Z M195.166992,66.90625 L196.456543,66.90625 L196.289551,68.1772461 C196.635907,67.6948218 197.053383,67.3190931 197.541992,67.0500488 C198.030601,66.7810045 198.531573,66.6464844 199.044922,66.6464844 C199.409833,66.6464844 199.7902,66.7330721 200.186035,66.90625 L199.57373,68.09375 C199.252114,67.9638665 198.983074,67.8989258 198.766602,67.8989258 C198.315102,67.8989258 197.868248,68.056639 197.426025,68.3720703 C196.983803,68.6875016 196.625083,69.1467255 196.349854,69.7497559 C196.074624,70.3527862 195.841147,71.3439059 195.649414,72.7231445 L195.055664,77 L193.793945,77 L195.166992,66.90625 Z M207.320312,63.0097656 L208.637695,63.0097656 L207.92334,68.418457 C209.092291,67.237136 210.428215,66.6464844 211.931152,66.6464844 C213.310391,66.6464844 214.440669,67.0887 215.322021,67.9731445 C216.203374,68.8575891 216.644043,69.9955985 216.644043,71.387207 C216.644043,72.995288 216.071946,74.3760522 214.927734,75.529541 C213.783523,76.6830299 212.435229,77.2597656 210.882812,77.2597656 C210.041662,77.2597656 209.302575,77.0819516 208.665527,76.7263184 C208.02848,76.3706851 207.484214,75.8186886 207.032715,75.0703125 L206.800781,77 L205.455566,77 L207.320312,63.0097656 Z M211.791992,67.8339844 C210.963212,67.8339844 210.204024,68.0303529 209.514404,68.4230957 C208.824785,68.8158386 208.278973,69.3802047 207.876953,70.1162109 C207.474933,70.8522172 207.273926,71.6531532 207.273926,72.519043 C207.273926,73.5642956 207.606361,74.4147103 208.27124,75.0703125 C208.93612,75.7259147 209.794266,76.0537109 210.845703,76.0537109 C212.088873,76.0537109 213.152665,75.6053105 214.037109,74.7084961 C214.921554,73.8116817 215.36377,72.7107813 215.36377,71.4057617 C215.36377,70.3357694 215.034427,69.472985 214.375732,68.8173828 C213.717038,68.1617806 212.8558,67.8339844 211.791992,67.8339844 L211.791992,67.8339844 Z M219.102539,66.90625 L220.39209,66.90625 L220.225098,68.1772461 C220.571454,67.6948218 220.98893,67.3190931 221.477539,67.0500488 C221.966148,66.7810045 222.46712,66.6464844 222.980469,66.6464844 C223.345379,66.6464844 223.725747,66.7330721 224.121582,66.90625 L223.509277,68.09375 C223.187661,67.9638665 222.918621,67.8989258 222.702148,67.8989258 C222.250649,67.8989258 221.803795,68.056639 221.361572,68.3720703 C220.91935,68.6875016 220.56063,69.1467255 220.2854,69.7497559 C220.010171,70.3527862 219.776694,71.3439059 219.584961,72.7231445 L218.991211,77 L217.729492,77 L219.102539,66.90625 Z M229.89209,66.6464844 C230.751795,66.6464844 231.540361,66.8521301 232.257812,67.2634277 C232.975264,67.6747254 233.534991,68.2468225 233.937012,68.9797363 C234.339032,69.7126501 234.540039,70.5429641 234.540039,71.4707031 C234.540039,72.5283256 234.283368,73.510168 233.77002,74.4162598 C233.256671,75.3223515 232.567062,76.022784 231.701172,76.5175781 C230.835282,77.0123723 229.854986,77.2597656 228.760254,77.2597656 C227.405755,77.2597656 226.290939,76.8160038 225.415771,75.9284668 C224.540604,75.0409298 224.103027,73.9106514 224.103027,72.5375977 C224.103027,71.4614204 224.359698,70.4687545 224.873047,69.5595703 C225.386396,68.6503861 226.089921,67.937584 226.983643,67.4211426 C227.877364,66.9047012 228.846837,66.6464844 229.89209,66.6464844 L229.89209,66.6464844 Z M229.864258,67.8803711 C229.060217,67.8803711 228.304121,68.0813782 227.595947,68.4833984 C226.887773,68.8854187 226.343508,69.4374151 225.963135,70.1394043 C225.582762,70.8413935 225.392578,71.6160439 225.392578,72.4633789 C225.392578,73.5271863 225.720374,74.3915169 226.375977,75.0563965 C227.031579,75.7212761 227.878901,76.0537109 228.917969,76.0537109 C229.728194,76.0537109 230.462643,75.8604349 231.121338,75.473877 C231.780033,75.087319 232.304197,74.5291378 232.693848,73.7993164 C233.083498,73.069495 233.27832,72.2871135 233.27832,71.4521484 C233.27832,70.7532517 233.132977,70.1332221 232.842285,69.592041 C232.551594,69.0508599 232.140302,68.6302912 231.608398,68.3303223 C231.076495,68.0303533 230.49512,67.8803711 229.864258,67.8803711 L229.864258,67.8803711 Z M238.362305,63.0097656 L239.624023,63.0097656 L238.557129,70.6450195 L243.418457,66.90625 L245.440918,66.90625 L239.577637,71.4150391 L244.745117,77 L243.019531,77 L238.362305,71.9902344 L237.685059,77 L236.38623,77 L238.362305,63.0097656 Z M256.378906,72.2128906 L247.379883,72.2128906 C247.361328,73.4127664 247.673662,74.3559536 248.316895,75.0424805 C248.960127,75.7290073 249.816726,76.0722656 250.886719,76.0722656 C251.597985,76.0722656 252.25667,75.926922 252.862793,75.6362305 C253.468916,75.3455389 253.969887,74.9373399 254.365723,74.4116211 L255.330566,75.2001953 C254.841957,75.8248729 254.203373,76.3242983 253.414795,76.6984863 C252.626217,77.0726744 251.774256,77.2597656 250.858887,77.2597656 C249.275545,77.2597656 248.086511,76.7696175 247.291748,75.7893066 C246.496985,74.8089957 246.099609,73.7065491 246.099609,72.4819336 C246.099609,71.4799755 246.367103,70.5151414 246.9021,69.5874023 C247.437096,68.6596633 248.15299,67.937584 249.049805,67.4211426 C249.946619,66.9047012 250.917638,66.6464844 251.962891,66.6464844 C253.25554,66.6464844 254.325517,67.0840614 255.172852,67.9592285 C256.020187,68.8343957 256.443848,69.949212 256.443848,71.3037109 C256.443848,71.551108 256.422201,71.8541649 256.378906,72.2128906 L256.378906,72.2128906 Z M255.191406,71.090332 C255.154297,70.1378533 254.829593,69.3662953 254.217285,68.7756348 C253.604977,68.1849743 252.834966,67.8896484 251.907227,67.8896484 C250.899084,67.8896484 250.010014,68.1741508 249.23999,68.7431641 C248.469967,69.3121773 247.924155,70.0945588 247.602539,71.090332 L255.191406,71.090332 Z M259.143555,66.90625 L260.433105,66.90625 L260.266113,68.1772461 C260.612469,67.6948218 261.029945,67.3190931 261.518555,67.0500488 C262.007164,66.7810045 262.508135,66.6464844 263.021484,66.6464844 C263.386395,66.6464844 263.766762,66.7330721 264.162598,66.90625 L263.550293,68.09375 C263.228677,67.9638665 262.959636,67.8989258 262.743164,67.8989258 C262.291664,67.8989258 261.84481,68.056639 261.402588,68.3720703 C260.960366,68.6875016 260.601645,69.1467255 260.326416,69.7497559 C260.051187,70.3527862 259.817709,71.3439059 259.625977,72.7231445 L259.032227,77 L257.770508,77 L259.143555,66.90625 Z M270.062988,68.0380859 L269.35791,69.0864258 C268.788897,68.2762004 268.11475,67.8710938 267.335449,67.8710938 C266.890134,67.8710938 266.509767,68.0164373 266.194336,68.3071289 C265.878905,68.5978205 265.721191,68.9194318 265.721191,69.2719727 C265.721191,69.5441094 265.817056,69.8038725 266.008789,70.0512695 C266.194337,70.2986666 266.617998,70.6357401 267.279785,71.0625 C268.244634,71.6871776 268.881672,72.231443 269.190918,72.6953125 C269.493979,73.1653669 269.645508,73.7065399 269.645508,74.3188477 C269.645508,75.1661826 269.350182,75.8681613 268.759521,76.4248047 C268.168861,76.9814481 267.400395,77.2597656 266.454102,77.2597656 C265.204746,77.2597656 264.153325,76.706223 263.299805,75.5991211 L264.088379,74.6806641 C264.836755,75.5898483 265.650061,76.0444336 266.52832,76.0444336 C267.029299,76.0444336 267.46533,75.8681658 267.836426,75.515625 C268.207521,75.1630842 268.393066,74.7548851 268.393066,74.2910156 C268.393066,73.9137351 268.253908,73.5519223 267.975586,73.2055664 C267.796223,72.982909 267.313806,72.6056342 266.52832,72.0737305 C265.680985,71.4923474 265.12435,71.0099303 264.858398,70.6264648 C264.592447,70.2491843 264.459473,69.8224308 264.459473,69.3461914 C264.459473,68.5978153 264.740883,67.9607774 265.303711,67.4350586 C265.866539,66.9093398 266.577795,66.6464844 267.4375,66.6464844 C267.944664,66.6464844 268.403888,66.7485341 268.815186,66.9526367 C269.226483,67.1567393 269.642413,67.5185521 270.062988,68.0380859 L270.062988,68.0380859 Z" id="for-brokers"></path>
                    </g>
                </g>
            </g>
        </g>
    </g>
</svg>